<svg width="87" height="163" viewBox="0 0 87 163" fill="none" xmlns="http://www.w3.org/2000/svg">
<path fill-rule="evenodd" clip-rule="evenodd" d="M81.8158 81.4279C81.8158 59.2012 81.8158 36.9745 81.8158 14.748C81.8158 14.3479 81.8215 13.9478 81.8057 13.548C81.7292 11.387 80.7751 9.33767 79.1426 7.82815C77.51 6.31863 75.3255 5.46575 73.0454 5.44772C70.6179 5.42524 68.1896 5.43951 65.7621 5.44451C64.759 5.44665 64.3167 5.83428 64.2207 6.77266C64.1699 7.27023 64.15 7.77208 64.0818 8.26608C64.0223 8.75323 63.8318 9.21771 63.5286 9.61501C63.2254 10.0123 62.8197 10.3291 62.3503 10.5351C61.8226 10.7675 61.2433 10.8749 60.6621 10.8481C49.4199 10.8424 38.1776 10.841 26.9354 10.8439C26.8032 10.8439 26.6719 10.8464 26.5394 10.8439C25.794 10.8355 25.0763 10.5747 24.5159 10.1085C23.9555 9.64232 23.5894 9.0015 23.4836 8.30177C23.4012 7.78421 23.3854 7.25702 23.3331 6.73483C23.2375 5.79288 22.8562 5.44987 21.8609 5.44665C19.4331 5.43987 17.0052 5.40418 14.5777 5.45558C11.3575 5.52232 8.87463 6.89581 7.13522 9.45681C6.1189 10.9559 5.79179 12.6292 5.79217 14.3921C5.79819 59.0203 5.79982 103.649 5.79706 148.278C5.78253 148.503 5.78505 148.728 5.80459 148.952C5.88406 149.746 6.02242 150.533 6.21865 151.308C6.76335 153.035 7.88384 154.548 9.41206 155.62C10.9403 156.692 12.7939 157.265 14.6947 157.254C22.8491 157.265 31.0034 157.267 39.1575 157.258C50.3992 157.258 61.6412 157.281 72.8843 157.244C76.7086 157.232 79.4369 155.46 81.0822 152.206C81.6988 150.987 81.8215 149.672 81.8211 148.332C81.8133 126.03 81.8115 103.729 81.8155 81.4272L81.8158 81.4279ZM85.6082 38.0665C86.524 38.2807 86.5568 38.3121 86.5572 39.1373C86.5592 44.4632 86.5592 49.7891 86.5572 55.1147C86.5572 55.975 86.5323 56.0003 85.6078 56.2537V57.2803C85.6078 88.1603 85.6097 119.04 85.6135 149.92C85.6506 153.012 84.4857 156.009 82.3412 158.339C80.1966 160.669 77.2226 162.169 73.9864 162.552C73.4123 162.624 72.834 162.662 72.2549 162.667C53.0947 162.672 33.9345 162.674 14.7745 162.67C11.7534 162.698 8.81301 161.745 6.442 159.97C4.071 158.194 2.41217 155.702 1.7412 152.909C1.50373 151.884 1.38546 150.838 1.3885 149.789C1.35311 144.814 1.37231 139.838 1.37231 134.862C1.37231 110.408 1.37231 85.9545 1.37231 61.5007C1.38595 61.2508 1.3823 61.0005 1.3614 60.7511C1.3508 60.5883 1.27578 60.4354 1.15136 60.3228C0.998668 60.2233 0.878699 60.085 0.80525 59.9237C0.731801 59.7624 0.707856 59.5848 0.736171 59.4112C0.739433 56.0355 0.739433 52.66 0.736171 49.2846C0.710381 49.1113 0.734841 48.9346 0.806926 48.7735C0.87901 48.6124 0.995997 48.473 1.14533 48.3701C1.28229 48.2361 1.35931 48.057 1.36027 47.8704C1.39076 47.4474 1.36252 47.0206 1.37306 46.5958C1.39484 46.4391 1.37234 46.2797 1.30786 46.134C1.24338 45.9882 1.13923 45.8613 1.00606 45.7663C0.808598 45.5123 0.717405 45.198 0.750098 44.8839C0.732406 41.8832 0.739182 38.8828 0.739182 35.8821C0.739182 35.5819 0.745205 35.2817 0.739182 34.9819C0.729019 34.5703 0.748216 34.1895 1.1954 33.9407C1.30832 33.8779 1.36441 33.6462 1.36554 33.4917C1.37796 31.9926 1.38022 30.4913 1.36252 28.9911C1.36003 28.8988 1.33782 28.8079 1.29726 28.7239C1.2567 28.6399 1.19861 28.5646 1.12651 28.5025C0.988717 28.406 0.880227 28.2767 0.812016 28.1278C0.743805 27.9788 0.71829 27.8154 0.738053 27.654C0.741817 26.2538 0.727513 24.8535 0.750474 23.4536C0.754615 23.1991 0.822746 22.8272 1.00267 22.7176C1.40205 22.4738 1.37382 22.1608 1.37344 21.8135C1.37344 18.9381 1.34145 16.0622 1.38172 13.1871C1.37372 11.4927 1.73447 9.81501 2.44141 8.25886C3.14836 6.7027 4.18628 5.30159 5.49029 4.14313C6.68505 3.02115 8.10188 2.13415 9.65934 1.53311C11.2168 0.93208 12.8842 0.628862 14.5656 0.640892C33.8576 0.618762 53.1501 0.617215 72.4431 0.636251C75.5989 0.655647 78.6436 1.7432 81.0286 3.70294C83.4136 5.66268 84.982 8.36573 85.4512 11.325C85.5539 12.0173 85.6043 12.7157 85.6018 13.4149C85.6121 21.315 85.6142 29.2162 85.6082 37.1185V38.0665Z" fill="#4E4E4E"/>
</svg>
