<svg width="46" height="38" viewBox="0 0 46 38" fill="none" xmlns="http://www.w3.org/2000/svg">
<path d="M37.7766 21.0754C37.5382 22.0743 35.8223 25.6589 36.6053 26.747C36.7359 26.9285 38.4714 26.7978 38.7467 26.7978C39.8805 26.7978 41.2283 26.9588 42.2425 26.5562C44.7286 25.5692 44.9095 24.1692 44.6767 22.3089C44.4193 20.2519 43.0409 20.1361 40.5586 19.7529C38.0989 19.3731 38.765 20.7123 38.765 21.991" stroke="#FB7C51" stroke-width="0.854385" stroke-linecap="round"/>
<path d="M6.64716 7.81948C9.56938 4.63363 13.8474 3.72697 18.4658 3.02314C21.0757 2.6254 24.2481 2.81058 26.8742 3.03399C27.9838 3.12838 28.8715 3.50845 29.8419 3.91296" stroke="#FB7C51" stroke-width="0.854385" stroke-linecap="round"/>
<path d="M36.4021 7.62414C37.3154 7.81568 38.1869 8.00204 38.9166 8.4296C39.5166 8.78121 39.6145 9.53414 39.9963 10.0012C40.579 10.714 40.7292 11.4713 41.224 12.2015C41.7126 12.9225 42.3054 13.3781 42.5552 14.1661C42.8431 15.0741 43.55 15.7486 43.5906 16.72C43.6362 17.8101 43.8568 18.8891 43.8568 20.0008" stroke="#FB7C51" stroke-width="0.854385" stroke-linecap="round"/>
<path d="M22.0281 32.5733C23.3977 32.5733 25.4598 32.7947 26.6377 32.3288C28.7361 31.4988 30.9806 30.8689 33.0943 29.9873C35.2021 29.1082 36.7982 27.1567 39.6818 27.1567" stroke="#FB7C51" stroke-width="0.854385" stroke-linecap="round"/>
<path d="M4.06958 16.2184C4.32352 18.4572 4.84129 20.6714 5.01986 22.9204C5.11191 24.0797 5.55637 25.5678 6.30763 26.4439C6.85813 27.0859 7.43217 27.7653 8.03057 28.3547C8.77535 29.0883 10.1587 29.4583 11.1212 29.7529C12.2698 30.1045 13.2708 30.3122 14.4605 30.3122" stroke="#FB7C51" stroke-width="0.854385" stroke-linecap="round"/>
<path d="M6.01817 8.14701C5.04899 8.06269 4.41906 8.0026 3.55634 8.35986C2.63531 8.74128 2.07838 9.32211 1.7308 10.0515C1.48401 10.5694 1.2867 11.0857 1.25358 11.6368C1.20214 12.4927 1.03304 13.5733 1.46568 14.3815C1.94865 15.2838 2.62346 16.1771 4.1396 16.2132C5.02215 16.2343 5.69949 16.2016 6.50296 15.9164C7.18695 15.6736 7.67806 15.4484 7.98006 14.9025C8.62206 13.742 8.74512 12.3397 8.74512 11.0934C8.74512 10.5037 8.22436 9.91378 7.58616 9.5642C7.00062 9.24345 6.03368 8.91015 5.88182 8.34866" stroke="#FB7C51" stroke-width="0.854385" stroke-linecap="round"/>
<path d="M19.3014 28.6222C18.3323 28.5379 17.7023 28.4778 16.8396 28.8351C15.9186 29.2165 15.3616 29.7973 15.0141 30.5268C14.7673 31.0447 14.57 31.5609 14.5368 32.112C14.4854 32.9679 14.3163 34.0485 14.7489 34.8568C15.2319 35.7591 15.9067 36.6523 17.4229 36.6885C18.3054 36.7095 18.9828 36.6768 19.7862 36.3916C20.4702 36.1488 20.9613 35.9236 21.2633 35.3777C21.9053 34.2172 22.0284 32.815 22.0284 31.5687C22.0284 30.979 21.5076 30.389 20.8694 30.0394C20.2839 29.7187 19.3169 29.3854 19.1651 28.8239" stroke="#FB7C51" stroke-width="0.854385" stroke-linecap="round"/>
<path d="M34.6824 1.3011C33.7132 1.21679 33.0833 1.15669 32.2206 1.51396C31.2995 1.89538 30.7426 2.47621 30.395 3.20563C30.1482 3.72352 29.9509 4.23978 29.9178 4.79087C29.8664 5.64678 29.6973 6.72739 30.1299 7.53563C30.6129 8.43792 31.2877 9.33118 32.8038 9.36734C33.6864 9.3884 34.3637 9.35566 35.1672 9.07046C35.8512 8.82767 36.3423 8.60248 36.6443 8.05658C37.2863 6.89606 37.4093 5.49384 37.4093 4.24752C37.4093 3.65782 36.8886 3.06788 36.2504 2.7183C35.6648 2.39755 34.6979 2.06425 34.546 1.50276" stroke="#FB7C51" stroke-width="0.854385" stroke-linecap="round"/>
</svg>
