<svg width="60" height="59" viewBox="0 0 60 59" fill="none" xmlns="http://www.w3.org/2000/svg">
<path d="M59.6721 29.6592C59.6721 45.8637 46.5358 59 30.3313 59C14.1268 59 0.990479 45.8637 0.990479 29.6592C0.990479 13.4547 14.1268 0.318359 30.3313 0.318359C46.5358 0.318359 59.6721 13.4547 59.6721 29.6592Z" fill="#FB7C51"/>
<path d="M37.8687 21.809C35.7007 19.1226 32.3039 17.4601 28.8765 17.1785C25.4447 16.8965 21.9474 17.998 19.6183 20.8872M37.8687 21.809L20.6717 21.6854M37.8687 21.809C37.9345 21.8904 37.9679 21.9978 37.9505 22.1091C37.9342 22.2129 37.8782 22.294 37.814 22.3466C37.6849 22.4525 37.4515 22.4874 37.2873 22.3122L37.2866 22.3114C35.2004 20.0715 32.0705 18.6075 28.9416 18.3645C25.818 18.1219 22.7298 19.0962 20.6717 21.6854M37.8687 21.809L20.4092 21.4767L20.6717 21.6854M19.6183 20.8872L19.8794 21.0977L19.6183 20.8872ZM19.6183 20.8872C15.0005 26.6153 17.7263 34.7404 23.9626 37.8176L23.9626 37.8176C24.1457 37.9079 24.3445 37.9138 24.5185 37.828C24.6815 37.7476 24.7864 37.6049 24.8397 37.4627C24.944 37.1841 24.887 36.7743 24.5059 36.5808L24.5059 36.5808C18.983 33.7795 16.6869 26.6984 20.6717 21.6854" fill="white" stroke="white" stroke-width="0.670648"/>
<mask id="path-3-outside-1" maskUnits="userSpaceOnUse" x="22.4543" y="35.7712" width="4.26966" height="8.3833" fill="black">
<rect fill="white" x="22.4543" y="35.7712" width="4.26966" height="8.3833"/>
<path d="M24.3515 37.091C24.0966 38.6887 24.2375 40.4931 24.4609 42.2393C24.5384 42.842 25.0676 42.7562 24.9856 42.1522C24.7596 40.49 24.7446 38.8912 24.6473 37.245C24.6305 36.9644 24.3956 36.815 24.3515 37.091Z"/>
</mask>
<path d="M24.3515 37.091C24.0966 38.6887 24.2375 40.4931 24.4609 42.2393C24.5384 42.842 25.0676 42.7562 24.9856 42.1522C24.7596 40.49 24.7446 38.8912 24.6473 37.245C24.6305 36.9644 24.3956 36.815 24.3515 37.091Z" fill="white"/>
<path d="M24.3515 37.091L23.6892 36.9854L23.6892 36.9853L24.3515 37.091ZM24.4609 42.2393L23.7957 42.3249L23.7957 42.3244L24.4609 42.2393ZM24.9856 42.1522L25.6501 42.0619L25.6501 42.0619L24.9856 42.1522ZM24.6473 37.245L25.3168 37.2049L25.3168 37.2054L24.6473 37.245ZM25.0138 37.1967C24.775 38.6936 24.9039 40.4171 25.1261 42.1542L23.7957 42.3244C23.5711 40.5691 23.4183 38.6838 23.6892 36.9854L25.0138 37.1967ZM25.1261 42.1538C25.1339 42.2148 25.1445 42.1831 25.0904 42.1217C25.0313 42.0546 24.8836 41.9521 24.6745 41.9865C24.4716 42.0198 24.3726 42.1553 24.3422 42.22C24.3124 42.2834 24.3292 42.3026 24.321 42.2425L25.6501 42.0619C25.683 42.3038 25.6644 42.5602 25.556 42.7907C25.447 43.0226 25.2263 43.2551 24.8917 43.3101C24.5508 43.366 24.2613 43.2098 24.0838 43.0081C23.9112 42.8122 23.8266 42.5652 23.7957 42.3249L25.1261 42.1538ZM24.321 42.2426C24.0905 40.5468 24.0726 38.888 23.9779 37.2845L25.3168 37.2054C25.4166 38.8943 25.4287 40.4331 25.6501 42.0619L24.321 42.2426ZM23.9779 37.2851C23.9789 37.3027 23.9839 37.3315 24.0028 37.3685C24.017 37.3962 24.0636 37.4768 24.1769 37.5415C24.3092 37.6172 24.5674 37.6743 24.8048 37.5041C24.9896 37.3716 25.0132 37.2001 25.0137 37.1968L23.6892 36.9853C23.7118 36.8439 23.7812 36.5876 24.0231 36.4142C24.3174 36.2031 24.6437 36.2634 24.8424 36.377C25.1735 36.5662 25.3003 36.9303 25.3168 37.2049L23.9779 37.2851Z" fill="white" mask="url(#path-3-outside-1)"/>
<path d="M28.2515 40.3473L28.2513 40.3474C27.2116 40.6701 26.1991 41.1378 25.2284 41.5862C25.034 41.676 24.8412 41.7651 24.6502 41.852L24.6501 41.8521C24.4383 41.9486 24.2957 42.1148 24.2388 42.3148C24.1844 42.5057 24.2156 42.6999 24.2929 42.857C24.3702 43.0139 24.505 43.1567 24.6882 43.23C24.8805 43.3069 25.0988 43.2959 25.3033 43.186L28.2515 40.3473ZM28.2515 40.3473C28.4824 40.2758 28.7113 40.3718 28.8334 40.5329C28.8978 40.6179 28.9456 40.7389 28.9272 40.8775C28.9082 41.021 28.8251 41.1324 28.7233 41.2055C27.8389 41.8407 26.8408 42.3697 25.8856 42.8759M28.2515 40.3473L25.8856 42.8759M25.8856 42.8759C25.6893 42.98 25.4947 43.0831 25.3033 43.186L25.8856 42.8759Z" fill="white" stroke="white" stroke-width="0.670648"/>
<mask id="path-6-outside-2" maskUnits="userSpaceOnUse" x="24.5323" y="22.5532" width="23.0054" height="23.0054" fill="black">
<rect fill="white" x="24.5323" y="22.5532" width="23.0054" height="23.0054"/>
<path d="M40.4545 24.2731C43.5328 28.1916 46.1475 35.3239 41.8252 39.4102C38.5584 42.4987 32.2835 43.295 28.6097 40.6359C28.2447 40.3719 27.8357 40.9434 28.2031 41.2043C32.2135 44.0543 39.1572 43.1526 42.5009 39.5447C46.6308 35.0885 44.0684 28.0901 40.5305 24.21C40.4877 24.1633 40.4149 24.223 40.4545 24.2731Z"/>
</mask>
<path d="M40.4545 24.2731C43.5328 28.1916 46.1475 35.3239 41.8252 39.4102C38.5584 42.4987 32.2835 43.295 28.6097 40.6359C28.2447 40.3719 27.8357 40.9434 28.2031 41.2043C32.2135 44.0543 39.1572 43.1526 42.5009 39.5447C46.6308 35.0885 44.0684 28.0901 40.5305 24.21C40.4877 24.1633 40.4149 24.223 40.4545 24.2731Z" fill="white"/>
<path d="M41.8252 39.4102L42.286 39.8975L42.286 39.8975L41.8252 39.4102ZM28.6097 40.6359L29.0027 40.0925L29.0029 40.0926L28.6097 40.6359ZM28.2031 41.2043L28.5915 40.6576L28.5916 40.6577L28.2031 41.2043ZM42.5009 39.5447L42.009 39.0888L42.009 39.0888L42.5009 39.5447ZM40.5305 24.21L41.0251 23.7572L41.026 23.7581L40.5305 24.21ZM40.9819 23.8588C42.5755 25.8874 44.0542 28.7493 44.5752 31.6606C45.0976 34.5791 44.667 37.6465 42.286 39.8975L41.3645 38.9229C43.3058 37.0876 43.729 34.5456 43.2549 31.8968C42.7796 29.2407 41.4118 26.5773 39.9271 24.6874L40.9819 23.8588ZM42.286 39.8975C40.5256 41.5618 37.9927 42.5806 35.4393 42.8455C32.8871 43.1102 30.2217 42.6306 28.2165 41.1792L29.0029 40.0926C30.6715 41.3003 32.9804 41.7521 35.3009 41.5113C37.6201 41.2707 39.8581 40.347 41.3645 38.9229L42.286 39.8975ZM28.2167 41.1793C28.2806 41.2255 28.3877 41.2555 28.4999 41.2281C28.5936 41.2052 28.6488 41.1531 28.6772 41.1135C28.7055 41.0739 28.7368 41.005 28.7284 40.9092C28.7182 40.7947 28.6556 40.7031 28.5915 40.6576L27.8147 41.7511C27.5669 41.5751 27.4176 41.3142 27.3923 41.0274C27.3686 40.7593 27.456 40.5151 27.5864 40.333C27.7167 40.1509 27.9196 39.9892 28.1812 39.9252C28.4612 39.8567 28.7564 39.9143 29.0027 40.0925L28.2167 41.1793ZM28.5916 40.6577C30.4266 41.9617 32.9851 42.4363 35.5218 42.1304C38.0576 41.8246 40.4688 40.7507 42.009 39.0888L42.9928 40.0005C41.1893 41.9466 38.4568 43.1275 35.6823 43.462C32.9086 43.7965 29.9901 43.297 27.8146 41.751L28.5916 40.6577ZM42.009 39.0888C43.8861 37.0635 44.2712 34.442 43.7339 31.7947C43.1945 29.1371 41.7333 26.5245 40.0349 24.6619L41.026 23.7581C42.8656 25.7756 44.4546 28.6023 45.0484 31.5279C45.6443 34.4638 45.2457 37.5697 42.9928 40.0005L42.009 39.0888ZM40.0358 24.6628C40.146 24.7833 40.307 24.8609 40.4846 24.8637C40.6482 24.8662 40.7882 24.8052 40.8884 24.7225C40.9885 24.6399 41.0784 24.5111 41.1057 24.3428C41.1354 24.1596 41.0814 23.9849 40.981 23.8577L39.928 24.6885C39.8078 24.5362 39.7481 24.3353 39.7817 24.1282C39.8128 23.9361 39.9161 23.7859 40.0348 23.6879C40.2757 23.4892 40.7188 23.4225 41.0251 23.7572L40.0358 24.6628Z" fill="white" mask="url(#path-6-outside-2)"/>
<path d="M41.6303 38.1096C41.6066 38.1865 41.5827 38.2634 41.559 38.3404C41.5583 38.343 41.5623 38.3445 41.563 38.3419C41.5867 38.265 41.6106 38.188 41.6343 38.1111C41.635 38.1085 41.631 38.1069 41.6303 38.1096Z" fill="white"/>
<path d="M29.6411 20.3867C27.8496 20.2455 26.1244 20.5351 24.4766 21.2524C24.4008 21.2854 24.4547 21.4029 24.5306 21.3692C26.1616 20.6425 27.8517 20.3449 29.6324 20.4699C29.6862 20.4737 29.695 20.3909 29.6411 20.3867Z" fill="white"/>
<path d="M27.629 21.0187C26.4597 21.1321 25.3735 21.4714 24.3367 22.0223C24.2503 22.0681 24.3152 22.208 24.4006 22.1604C25.4137 21.5965 26.4945 21.2529 27.6434 21.1054C27.7 21.0981 27.685 21.0132 27.629 21.0187Z" fill="white"/>
<path d="M30.7318 39.486C31.289 39.9536 32.0133 40.1998 32.726 40.2977C32.8313 40.3122 32.8482 40.1476 32.7429 40.1336C32.0221 40.0369 31.412 39.7662 30.7829 39.4145C30.7341 39.3871 30.6878 39.449 30.7318 39.486Z" fill="white"/>
<path d="M31.4191 39.1106C32.8987 39.7757 34.4954 40.0092 36.1062 39.856C36.2149 39.8457 36.1864 39.6792 36.0785 39.689C34.4717 39.8337 32.9617 39.586 31.464 38.9924C31.3879 38.9622 31.3454 39.0775 31.4191 39.1106Z" fill="white"/>
</svg>
