<svg width="109" height="205" viewBox="0 0 109 205" fill="none" xmlns="http://www.w3.org/2000/svg">
<path d="M88.793 0.708618H20.0783C10.1736 0.708618 2.14429 8.73796 2.14429 18.6426V186.604C2.14429 196.509 10.1736 204.538 20.0783 204.538H88.793C98.6977 204.538 106.727 196.509 106.727 186.604V18.6426C106.727 8.73795 98.6977 0.708618 88.793 0.708618Z" fill="white"/>
<path fill-rule="evenodd" clip-rule="evenodd" d="M102.877 102.146C102.877 74.0974 102.877 46.0486 102.877 18C102.877 17.495 102.884 16.9901 102.864 16.4856C102.767 13.7586 101.563 11.1724 99.5031 9.26749C97.4429 7.36257 94.6861 6.28628 91.8088 6.26353C88.7454 6.23515 85.6811 6.25317 82.6177 6.25947C81.3518 6.26218 80.7937 6.75134 80.6726 7.93553C80.6084 8.56343 80.5832 9.19673 80.4973 9.82013C80.4221 10.4349 80.1817 11.021 79.7991 11.5224C79.4165 12.0238 78.9045 12.4236 78.3122 12.6835C77.6462 12.9768 76.9152 13.1123 76.1818 13.0786C61.9947 13.0713 47.8076 13.0695 33.6205 13.0731C33.4538 13.0731 33.288 13.0763 33.1208 13.0731C32.1801 13.0626 31.2744 12.7335 30.5672 12.1452C29.8601 11.5569 29.3981 10.7482 29.2646 9.86517C29.1606 9.21205 29.1406 8.54676 29.0746 7.88778C28.9539 6.69909 28.4727 6.26623 27.2168 6.26217C24.153 6.25362 21.0891 6.20857 18.0258 6.27344C13.962 6.35767 10.8288 8.09093 8.63378 11.3228C7.35124 13.2146 6.93845 15.3262 6.93893 17.5509C6.94653 73.8692 6.94859 130.188 6.9451 186.508C6.92676 186.791 6.92994 187.075 6.9546 187.359C7.05488 188.36 7.22949 189.353 7.47712 190.331C8.1645 192.511 9.5785 194.42 11.507 195.773C13.4356 197.126 15.7747 197.849 18.1735 197.835C28.4639 197.849 38.7541 197.851 49.0442 197.839C63.2305 197.839 77.4173 197.868 91.6055 197.822C96.4316 197.807 99.8745 195.57 101.951 191.465C102.729 189.926 102.884 188.267 102.883 186.576C102.873 158.432 102.871 130.289 102.876 102.145L102.877 102.146ZM107.662 47.4266C108.818 47.6969 108.859 47.7365 108.86 48.7779C108.862 55.499 108.862 62.2198 108.86 68.9406C108.86 70.0261 108.829 70.0581 107.662 70.3779V71.6733C107.662 110.642 107.664 149.611 107.669 188.58C107.716 192.482 106.246 196.264 103.54 199.204C100.833 202.144 97.0802 204.037 92.9963 204.52C92.2718 204.611 91.5421 204.66 90.8113 204.665C66.6321 204.673 42.4531 204.674 18.2742 204.669C14.4617 204.705 10.7511 203.502 7.75898 201.262C4.7669 199.021 2.67355 195.877 1.82682 192.352C1.52715 191.059 1.3779 189.739 1.38173 188.415C1.33708 182.136 1.36131 175.857 1.36131 169.577C1.36131 138.718 1.36131 107.859 1.36131 76.9993C1.37852 76.684 1.37392 76.368 1.34753 76.0533C1.33416 75.8479 1.2395 75.6549 1.08248 75.5128C0.889793 75.3873 0.738398 75.2127 0.645709 75.0092C0.55302 74.8057 0.522803 74.5815 0.558535 74.3624C0.562652 70.1025 0.562652 65.8428 0.558535 61.5832C0.52599 61.3646 0.556858 61.1416 0.647824 60.9383C0.73879 60.735 0.886422 60.559 1.07488 60.4292C1.24771 60.2601 1.3449 60.0341 1.34611 59.7986C1.38458 59.2649 1.34896 58.7262 1.36226 58.1901C1.38974 57.9924 1.36135 57.7913 1.27997 57.6074C1.1986 57.4234 1.06717 57.2633 0.89912 57.1433C0.649934 56.8228 0.534853 56.4261 0.57611 56.0299C0.553785 52.2431 0.562335 48.4568 0.562335 44.67C0.562335 44.2912 0.569935 43.9124 0.562335 43.534C0.54951 43.0147 0.573735 42.5341 1.13805 42.2201C1.28056 42.1408 1.35133 41.8485 1.35276 41.6535C1.36843 39.7617 1.37128 37.8671 1.34896 35.974C1.34581 35.8574 1.31779 35.7427 1.2666 35.6367C1.21541 35.5308 1.14211 35.4357 1.05112 35.3573C0.877234 35.2356 0.740327 35.0725 0.654248 34.8845C0.568169 34.6965 0.535971 34.4902 0.56091 34.2867C0.56566 32.5196 0.54761 30.7526 0.576585 28.986C0.581811 28.6648 0.667788 28.1955 0.894845 28.0572C1.39884 27.7495 1.36321 27.3545 1.36273 26.9163C1.36273 23.2876 1.32236 19.6585 1.37318 16.0302C1.36309 13.892 1.81834 11.7748 2.71046 9.81102C3.60258 7.84724 4.91238 6.07911 6.55797 4.6172C8.06569 3.20132 9.85365 2.08198 11.8191 1.3235C13.7845 0.565031 15.8887 0.182387 18.0106 0.197568C42.356 0.169641 66.7021 0.167689 91.0488 0.191712C95.0312 0.216189 98.8735 1.58863 101.883 4.06171C104.893 6.53479 106.872 9.94589 107.464 13.6803C107.594 14.554 107.657 15.4353 107.654 16.3176C107.667 26.2871 107.67 36.258 107.662 46.2303V47.4266Z" fill="#4E4E4E"/>
<path d="M53.2993 88.5949C54.3351 88.7081 55.265 87.9605 55.3763 86.9251C55.4875 85.8897 54.738 84.9585 53.7022 84.8453C52.6664 84.7321 51.7365 85.4798 51.6252 86.5152C51.514 87.5506 52.2635 88.4817 53.2993 88.5949Z" fill="white"/>
<path d="M43.1306 89.577C43.1306 89.577 55.1076 93.5507 61.8549 88.4456C61.8549 88.4456 52.9537 96.8157 52.677 105.443C52.677 105.443 51.9435 92.9581 43.1306 89.577Z" fill="white"/>
</svg>
