<svg width="104" height="104" viewBox="0 0 104 104" fill="none" xmlns="http://www.w3.org/2000/svg">
<g opacity="0.45">
<path d="M101.854 39.7613C102.474 42.3561 102.898 45.0271 103.109 47.7577L102.252 47.8241C102.354 49.1388 102.406 50.4677 102.406 51.8089C102.406 53.1501 102.354 54.479 102.252 55.7937L103.109 55.8602C102.898 58.5907 102.474 61.2617 101.854 63.8566L101.017 63.6568C100.395 66.2643 99.5711 68.7937 98.5637 71.2275L99.3584 71.5564C98.3194 74.0667 97.0882 76.4771 95.6833 78.7692L94.9501 78.3198C93.558 80.5911 91.9923 82.7444 90.2715 84.7611L90.9257 85.3193C89.1716 87.3751 87.259 89.2913 85.2069 91.0489L84.6475 90.3957C82.6336 92.1206 80.4832 93.6901 78.2148 95.0858L78.6654 95.8183C76.3753 97.2273 73.9668 98.4621 71.4583 99.5043L71.1283 98.7101C68.6956 99.7209 66.1673 100.547 63.5607 101.172L63.7612 102.008C61.1667 102.63 58.496 103.056 55.7656 103.268L55.6989 102.411C54.3843 102.513 53.0555 102.565 51.7144 102.565C50.3733 102.565 49.0445 102.513 47.7299 102.411L47.6632 103.268C44.9328 103.056 42.2621 102.63 39.6676 102.008L39.8681 101.172C37.2615 100.547 34.7332 99.7209 32.3005 98.7102L31.9706 99.5043C29.4621 98.4621 27.0536 97.2273 24.7634 95.8183L25.2141 95.0858C22.9457 93.6902 20.7953 92.1206 18.7814 90.3957L18.2219 91.0489C16.1698 89.2913 14.2573 87.3751 12.5031 85.3193L13.1573 84.7611C11.4365 82.7444 9.87083 80.5911 8.47871 78.3198L7.74549 78.7692C6.3406 76.4771 5.10947 74.0667 4.07048 71.5564L4.8651 71.2276C3.85773 68.7937 3.03406 66.2643 2.41139 63.6568L1.57491 63.8566C0.95526 61.2617 0.531324 58.5907 0.319596 55.8602L1.17702 55.7937C1.07508 54.479 1.02314 53.1501 1.02314 51.8089C1.02314 50.4677 1.07508 49.1388 1.17702 47.8242L0.319595 47.7577C0.531324 45.0271 0.95526 42.3561 1.57491 39.7613L2.41139 39.961C3.03406 37.3535 3.85773 34.8241 4.8651 32.3903L4.07047 32.0614C5.10947 29.5511 6.34059 27.1407 7.74548 24.8486L8.47871 25.298C9.87083 23.0267 11.4365 20.8735 13.1573 18.8567L12.5031 18.2985C14.2573 16.2427 16.1698 14.3265 18.2219 12.5689L18.7814 13.2221C20.7952 11.4972 22.9457 9.92767 25.2141 8.53203L24.7634 7.79956C27.0535 6.39054 29.4621 5.15571 31.9706 4.11349L32.3005 4.90767C34.7332 3.89695 37.2615 3.0705 39.8681 2.44568L39.6676 1.60938C42.2621 0.987456 44.9328 0.561947 47.6632 0.349425L47.7299 1.20683C49.0445 1.10451 50.3733 1.05238 51.7144 1.05238C53.0555 1.05238 54.3843 1.10451 55.6989 1.20683L55.7656 0.349425C58.496 0.561947 61.1667 0.987456 63.7612 1.60938L63.5607 2.44568C66.1673 3.0705 68.6956 3.89695 71.1283 4.90767L71.4583 4.11349C73.9668 5.1557 76.3753 6.39054 78.6654 7.79956L78.2148 8.53202C80.4832 9.92767 82.6336 11.4972 84.6475 13.2221L85.2069 12.5689C87.259 14.3265 89.1716 16.2427 90.9257 18.2985L90.2715 18.8567C91.9923 20.8735 93.558 23.0267 94.9501 25.298L95.6833 24.8486C97.0882 27.1407 98.3194 29.5511 99.3584 32.0614L98.5637 32.3903C99.5711 34.8241 100.395 37.3535 101.017 39.961L101.854 39.7613Z" stroke="#838282" stroke-width="1.72" stroke-dasharray="8.6 8.6"/>
<g opacity="0.6">
<path d="M67.3342 25.8302H76.2596V34.7829C76.2596 35.4066 76.7586 35.9124 77.3753 35.9124C77.992 35.9124 78.491 35.4066 78.491 34.7829V24.7007C78.491 24.0769 77.992 23.5712 77.3753 23.5712H67.3342C66.7175 23.5712 66.2185 24.0769 66.2185 24.7007C66.2185 25.3244 66.7175 25.8302 67.3342 25.8302Z" fill="#FB7C51"/>
<path d="M29.4017 35.9124C30.0184 35.9124 30.5174 35.4066 30.5174 34.7829V25.8302H39.4428C40.0595 25.8302 40.5585 25.3244 40.5585 24.7007C40.5585 24.0769 40.0595 23.5712 39.4428 23.5712H29.4017C28.7851 23.5712 28.2861 24.0769 28.2861 24.7007V34.7829C28.2861 35.4066 28.7851 35.9124 29.4017 35.9124Z" fill="#FB7C51"/>
<path d="M40.5585 58.586C40.5585 57.9622 40.0595 57.4565 39.4428 57.4565H30.5174V48.5038C30.5174 47.88 30.0184 47.3743 29.4017 47.3743C28.7851 47.3743 28.2861 47.88 28.2861 48.5038V58.586C28.2861 59.2097 28.7851 59.7155 29.4017 59.7155H39.4428C40.0595 59.7155 40.5585 59.2097 40.5585 58.586Z" fill="#FB7C51"/>
<path d="M67.3342 59.7155H77.3753C77.992 59.7155 78.491 59.2097 78.491 58.586V48.5038C78.491 47.88 77.992 47.3743 77.3753 47.3743C76.7586 47.3743 76.2596 47.88 76.2596 48.5038V57.4565H67.3342C66.7175 57.4565 66.2185 57.9622 66.2185 58.586C66.2185 59.2097 66.7175 59.7155 67.3342 59.7155Z" fill="#FB7C51"/>
<path d="M67.3342 42.7718H70.6812C71.2979 42.7718 71.7969 42.2661 71.7969 41.6423C71.7969 41.0186 71.2979 40.5128 70.6812 40.5128H67.3342C66.7175 40.5128 66.2185 41.0186 66.2185 41.6423C66.2185 42.2661 66.7175 42.7718 67.3342 42.7718Z" fill="#FB7C51"/>
<path d="M75.144 40.5128C74.5273 40.5128 74.0283 41.0186 74.0283 41.6423C74.0283 42.2661 74.5273 42.7718 75.144 42.7718H78.491C79.1077 42.7718 79.6067 42.2661 79.6067 41.6423C79.6067 41.0186 79.1077 40.5128 78.491 40.5128H75.144Z" fill="#FB7C51"/>
<path d="M29.4014 41.6423C29.4014 41.0186 28.9025 40.5128 28.2858 40.5128H24.9387C24.322 40.5128 23.8231 41.0186 23.8231 41.6423C23.8231 42.2661 24.322 42.7718 24.9387 42.7718H28.2858C28.9025 42.7718 29.4014 42.2661 29.4014 41.6423Z" fill="#FB7C51"/>
<path d="M32.7491 40.5128C32.1324 40.5128 31.6335 41.0186 31.6335 41.6423C31.6335 42.2661 32.1324 42.7718 32.7491 42.7718H36.0962C36.7128 42.7718 37.2118 42.2661 37.2118 41.6423C37.2118 41.0186 36.7128 40.5128 36.0962 40.5128H32.7491Z" fill="#FB7C51"/>
<path d="M63.9874 71.01C63.3707 71.01 62.8717 71.5157 62.8717 72.1395V78.9165C62.8717 79.5403 63.3707 80.046 63.9874 80.046C64.604 80.046 65.103 79.5403 65.103 78.9165V72.1395C65.103 71.5157 64.604 71.01 63.9874 71.01Z" fill="#FB7C51"/>
<path d="M45.0209 71.01C44.4042 71.01 43.9052 71.5157 43.9052 72.1395V78.9165C43.9052 79.5403 44.4042 80.046 45.0209 80.046C45.6375 80.046 46.1365 79.5403 46.1365 78.9165V72.1395C46.1365 71.5157 45.6375 71.01 45.0209 71.01Z" fill="#FB7C51"/>
<path d="M60.1581 59.7149H57.2936V57.9018C61.2091 56.4896 63.9877 53.0288 63.9877 48.9846V38.2544C63.9877 36.1527 62.5627 34.3816 60.6395 33.8793C60.5938 31.3015 58.5075 29.2184 55.9503 29.2184H44.1334C41.5467 29.2184 39.4428 31.3483 39.4428 33.9668V39.3839C39.4428 40.0077 39.9418 40.5134 40.5585 40.5134H42.7898V48.9846C42.7898 53.0288 45.5684 56.4896 49.4839 57.9018V59.7149H46.1477C41.8354 59.7149 38.3271 63.0495 38.3271 67.1476V78.9164C38.3271 79.5402 38.8261 80.0459 39.4428 80.0459C40.0595 80.0459 40.5585 79.5402 40.5585 78.9164V67.1476C40.5585 64.2945 43.0654 61.9739 46.1477 61.9739H47.2807C47.5638 65.1354 50.194 67.6214 53.3888 67.6214C56.5835 67.6214 59.2134 65.1354 59.4968 61.9739H60.1581C65.3455 61.9739 69.5661 65.9057 69.5661 70.738V78.9164C69.5661 79.5402 70.0651 80.0459 70.6817 80.0459C71.2984 80.0459 71.7974 79.5402 71.7974 78.9164V70.738C71.7974 64.6599 66.5763 59.7149 60.1581 59.7149ZM41.6741 38.2544V33.9668C41.6741 32.5942 42.7767 31.4774 44.1331 31.4774H55.9501C57.3064 31.4774 58.409 32.5942 58.409 33.9668V34.8659C58.409 35.4897 58.908 35.9954 59.5247 35.9954C60.7547 35.9954 61.756 37.0086 61.756 38.2544V43.602C61.0872 43.2115 60.6404 42.4796 60.6404 41.6429V39.3839C60.6404 38.7601 60.1414 38.2544 59.5247 38.2544H41.6741ZM45.0212 48.9846V40.5134H58.4093V41.6429C58.4093 43.7463 59.8203 45.5185 61.7563 46.0191V48.9846C61.7563 53.0328 58.0029 56.3264 53.3888 56.3264C48.7746 56.3264 45.0212 53.0328 45.0212 48.9846ZM53.3888 65.3624C51.4268 65.3624 49.8138 63.8847 49.5402 61.9739H50.5996C51.2163 61.9739 51.7152 61.4682 51.7152 60.8444V58.4538C52.2616 58.5329 52.8181 58.5854 53.3888 58.5854C53.9594 58.5854 54.5159 58.5329 55.0623 58.4538V60.8444C55.0623 61.4682 55.5613 61.9739 56.1779 61.9739H57.2373C56.9637 63.8847 55.3507 65.3624 53.3888 65.3624Z" fill="#FB7C51"/>
<path d="M54.834 52.4931C55.0912 52.1518 55.1335 51.6923 54.945 51.308C54.7564 50.9237 54.3699 50.6803 53.9459 50.6803H49.4832C49.0592 50.6803 48.6727 50.9234 48.4841 51.308C48.2956 51.6926 48.3382 52.1518 48.5951 52.4931C49.3468 53.4947 50.4834 54.0688 51.7146 54.0688C52.9457 54.0688 54.082 53.4947 54.834 52.4931Z" fill="#FB7C51"/>
<path d="M47.2526 46.162C47.8688 46.162 48.3683 45.6563 48.3683 45.0325C48.3683 44.4086 47.8688 43.903 47.2526 43.903C46.6365 43.903 46.137 44.4086 46.137 45.0325C46.137 45.6563 46.6365 46.162 47.2526 46.162Z" fill="#FB7C51"/>
<path d="M56.1775 46.162C56.7937 46.162 57.2932 45.6563 57.2932 45.0325C57.2932 44.4086 56.7937 43.903 56.1775 43.903C55.5613 43.903 55.0618 44.4086 55.0618 45.0325C55.0618 45.6563 55.5613 46.162 56.1775 46.162Z" fill="#FB7C51"/>
</g>
</g>
</svg>
