<svg width="96" height="96" viewBox="0 0 96 96" fill="none" xmlns="http://www.w3.org/2000/svg">
<g opacity="0.45">
<path d="M94.2138 36.9118C94.7834 39.2971 95.173 41.7523 95.3677 44.2623L94.5795 44.3234C94.6732 45.5319 94.721 46.7535 94.721 47.9863C94.721 49.2192 94.6732 50.4407 94.5795 51.6492L95.3677 51.7103C95.173 54.2204 94.7834 56.6756 94.2138 59.0608L93.4448 58.8772C92.8725 61.2741 92.1153 63.5992 91.1893 65.8364L91.9198 66.1388C90.9647 68.4463 89.833 70.662 88.5416 72.769L87.8676 72.3558C86.5879 74.4437 85.1487 76.423 83.5669 78.2768L84.1683 78.79C82.5558 80.6797 80.7977 82.4411 78.9114 84.0568L78.3971 83.4564C76.5459 85.0419 74.5692 86.4847 72.484 87.7676L72.8983 88.4409C70.7931 89.7361 68.5791 90.8712 66.2733 91.8292L65.97 91.0992C63.7338 92.0283 61.4097 92.788 59.0137 93.3623L59.198 94.1311C56.813 94.7027 54.358 95.0939 51.8482 95.2892L51.7868 94.5011C50.5785 94.5951 49.357 94.6431 48.1242 94.6431C46.8914 94.6431 45.67 94.5951 44.4616 94.5011L44.4002 95.2892C41.8904 95.0939 39.4354 94.7027 37.0505 94.1311L37.2347 93.3623C34.8387 92.7879 32.5147 92.0283 30.2785 91.0992L29.9751 91.8292C27.6693 90.8712 25.4553 89.7361 23.3501 88.4409L23.7644 87.7676C21.6792 86.4847 19.7025 85.0419 17.8513 83.4564L17.337 84.0568C15.4507 82.4411 13.6926 80.6797 12.0802 78.79L12.6815 78.2768C11.0997 76.423 9.6605 74.4437 8.38082 72.3558L7.70682 72.769C6.41541 70.662 5.28373 68.4463 4.32866 66.1388L5.0591 65.8364C4.1331 63.5992 3.37596 61.2741 2.80358 58.8772L2.03467 59.0608C1.46507 56.6756 1.07538 54.2204 0.88075 51.7103L1.66892 51.6492C1.57521 50.4407 1.52747 49.2192 1.52747 47.9863C1.52747 46.7535 1.57521 45.5319 1.66892 44.3234L0.88075 44.2623C1.07538 41.7523 1.46507 39.2971 2.03467 36.9118L2.80358 37.0954C3.37596 34.6985 4.1331 32.3735 5.0591 30.1362L4.32866 29.8339C5.28373 27.5264 6.41541 25.3107 7.70682 23.2037L8.38083 23.6168C9.6605 21.529 11.0997 19.5497 12.6815 17.6958L12.0802 17.1827C13.6926 15.293 15.4507 13.5315 17.3371 11.9159L17.8513 12.5163C19.7025 10.9307 21.6792 9.48799 23.7644 8.20508L23.3501 7.53177C25.4553 6.23657 27.6693 5.10148 29.9752 4.14345L30.2785 4.87348C32.5147 3.9444 34.8387 3.1847 37.2348 2.61036L37.0505 1.8416C39.4354 1.26991 41.8904 0.878775 44.4002 0.683419L44.4616 1.47157C45.67 1.37751 46.8914 1.3296 48.1242 1.3296C49.357 1.3296 50.5785 1.37751 51.7868 1.47157L51.8482 0.68342C54.3581 0.878776 56.813 1.26992 59.198 1.8416L59.0137 2.61036C61.4097 3.18471 63.7338 3.9444 65.97 4.87349L66.2733 4.14346C68.5792 5.10148 70.7931 6.23657 72.8983 7.53178L72.484 8.20508C74.5692 9.488 76.5459 10.9307 78.3971 12.5163L78.9114 11.9159C80.7977 13.5315 82.5558 15.293 84.1683 17.1827L83.5669 17.6958C85.1487 19.5497 86.5879 21.529 87.8676 23.6168L88.5416 23.2037C89.833 25.3107 90.9647 27.5264 91.9198 29.8339L91.1893 30.1362C92.1153 32.3735 92.8725 34.6985 93.4448 37.0954L94.2138 36.9118Z" stroke="#838282" stroke-width="1.58107" stroke-dasharray="7.91 7.91"/>
<g opacity="0.6" clip-path="url(#clip0)">
<path d="M42.3909 60.3053C42.8891 60.3053 43.2928 59.901 43.2928 59.4022V57.6428C43.2928 57.1441 42.8891 56.7397 42.3909 56.7397C41.8926 56.7397 41.4889 57.1441 41.4889 57.6428V59.4022C41.4889 59.901 41.8926 60.3053 42.3909 60.3053Z" fill="#FB7C51"/>
<path d="M54.7183 59.4022V57.6428C54.7183 57.1441 54.3145 56.7397 53.8163 56.7397C53.3181 56.7397 52.9144 57.1441 52.9144 57.6428V59.4022C52.9144 59.901 53.3181 60.3053 53.8163 60.3053C54.3145 60.3053 54.7183 59.901 54.7183 59.4022Z" fill="#FB7C51"/>
<path d="M42.3909 64.8524H53.817C54.3152 64.8524 54.7189 64.448 54.7189 63.9493C54.7189 63.4505 54.3152 63.0461 53.817 63.0461H42.3909C41.8926 63.0461 41.4889 63.4505 41.4889 63.9493C41.4889 64.448 41.8926 64.8524 42.3909 64.8524Z" fill="#FB7C51"/>
<path d="M44.5592 35.8061C44.5592 28.2755 38.4403 22.1488 30.9192 22.1488C23.3981 22.1488 17.2794 28.2755 17.2794 35.8061C17.2794 43.3368 23.3982 49.4634 30.9193 49.4634C38.4405 49.4634 44.5592 43.3368 44.5592 35.8061ZM30.9193 47.6572C24.3929 47.6572 19.0833 42.3409 19.0833 35.8061C19.0833 29.2715 24.3929 23.955 30.9193 23.955C37.4457 23.955 42.7554 29.2713 42.7554 35.8061C42.7553 42.3409 37.4457 47.6572 30.9193 47.6572Z" fill="#FB7C51"/>
<path d="M26.1085 35.0454V33.286C26.1085 32.7873 25.7047 32.3829 25.2065 32.3829C24.7083 32.3829 24.3046 32.7873 24.3046 33.286V35.0454C24.3046 35.5442 24.7083 35.9485 25.2065 35.9485C25.7047 35.9485 26.1085 35.5443 26.1085 35.0454Z" fill="#FB7C51"/>
<path d="M36.6326 32.3829C36.1344 32.3829 35.7307 32.7873 35.7307 33.286V35.0454C35.7307 35.5442 36.1344 35.9485 36.6326 35.9485C37.1308 35.9485 37.5346 35.5442 37.5346 35.0454V33.286C37.5346 32.7873 37.1308 32.3829 36.6326 32.3829Z" fill="#FB7C51"/>
<path d="M36.093 38.7834C35.6793 38.5063 35.119 38.6174 34.8419 39.0322C33.9723 40.334 32.5211 41.1262 30.9596 41.1514C29.3773 41.1764 27.8947 40.4182 26.9854 39.1221C26.6993 38.7141 26.1367 38.6155 25.729 38.9021C25.3214 39.1888 25.223 39.752 25.5092 40.1603C26.7423 41.9177 28.7445 42.9582 30.8823 42.9582C30.9176 42.9582 30.9532 42.958 30.9887 42.9574C33.1418 42.9227 35.1428 41.8306 36.3413 40.0363C36.6183 39.6216 36.5071 39.0608 36.093 38.7834Z" fill="#FB7C51"/>
<path d="M65.3283 22.1494C61.8565 22.1494 58.5487 23.4563 56.0141 25.8293C55.6501 26.1698 55.631 26.7413 55.9712 27.1057C56.3115 27.47 56.8823 27.4894 57.2461 27.1486C59.4455 25.0896 62.3157 23.9556 65.3283 23.9556C71.8547 23.9556 77.1643 29.2719 77.1643 35.8067C77.1643 42.3414 71.8547 47.6578 65.3283 47.6578C58.8019 47.6578 53.4922 42.3415 53.4922 35.8067C53.4922 33.8505 53.9779 31.9125 54.8967 30.2021C55.1326 29.7628 54.9683 29.2152 54.5296 28.9789C54.091 28.7428 53.544 28.9072 53.308 29.3465C52.2484 31.3191 51.6884 33.5529 51.6884 35.8067C51.6884 43.3374 57.8073 49.464 65.3284 49.464C72.8496 49.464 78.9682 43.3372 78.9682 35.8066C78.9682 28.2759 72.8495 22.1494 65.3283 22.1494Z" fill="#FB7C51"/>
<path d="M59.6156 32.3829C59.1174 32.3829 58.7136 32.7873 58.7136 33.286V35.0454C58.7136 35.5442 59.1174 35.9485 59.6156 35.9485C60.1138 35.9485 60.5175 35.5442 60.5175 35.0454V33.286C60.5175 32.7873 60.1138 32.3829 59.6156 32.3829Z" fill="#FB7C51"/>
<path d="M71.9442 35.0454V33.286C71.9442 32.7873 71.5404 32.3829 71.0422 32.3829C70.544 32.3829 70.1403 32.7873 70.1403 33.286V35.0454C70.1403 35.5442 70.544 35.9485 71.0422 35.9485C71.5404 35.9485 71.9442 35.5443 71.9442 35.0454Z" fill="#FB7C51"/>
<path d="M65.2996 37.9747C63.1464 38.0094 61.1455 39.1014 59.947 40.8958C59.6701 41.3105 59.7813 41.8713 60.1954 42.1485C60.3494 42.2517 60.5235 42.301 60.6959 42.301C60.9869 42.301 61.2726 42.1602 61.4465 41.8999C62.316 40.5981 63.7674 39.8059 65.3288 39.7806C66.9038 39.7536 68.3936 40.5138 69.3029 41.81C69.5892 42.2182 70.1517 42.317 70.5594 42.03C70.9671 41.7433 71.0655 41.1801 70.7792 40.7718C69.5257 38.9853 67.4748 37.9382 65.2996 37.9747Z" fill="#FB7C51"/>
<path d="M48.1245 46.5068C40.6035 46.5068 34.4845 52.6335 34.4845 60.1641C34.4845 67.6948 40.6035 73.8213 48.1245 73.8213C48.7331 73.8213 49.3453 73.7808 49.9441 73.7007C50.4379 73.6347 50.7847 73.1805 50.7188 72.6861C50.6527 72.1916 50.1985 71.8442 49.7054 71.9104C49.1854 71.9799 48.6535 72.0151 48.1244 72.0151C41.598 72.0151 36.2883 66.6988 36.2883 60.164C36.2883 53.6294 41.5979 48.3129 48.1244 48.3129C54.6509 48.3129 59.9605 53.6292 59.9605 60.164C59.9605 64.6761 57.4568 68.7372 53.4263 70.7628C52.9811 70.9866 52.8013 71.5293 53.0247 71.975C53.2481 72.4207 53.7903 72.6007 54.2354 72.377C58.8794 70.0432 61.7643 65.3633 61.7643 60.164C61.7646 52.6335 55.6455 46.5068 48.1245 46.5068Z" fill="#FB7C51"/>
</g>
</g>
<defs>
<clipPath id="clip0">
<rect width="61.6891" height="61.7672" fill="white" transform="translate(17.2793 17.1021)"/>
</clipPath>
</defs>
</svg>
