<svg width="69" height="69" viewBox="0 0 69 69" fill="none" xmlns="http://www.w3.org/2000/svg">
<g opacity="0.45">
<g opacity="0.5" clip-path="url(#clip0)">
<path d="M25.3399 46.7281C27.7663 47.4144 30.9712 47.7925 34.364 47.7925C37.7569 47.7925 40.9618 47.4145 43.3882 46.7281C46.3567 45.8885 47.8618 44.6731 47.8618 43.1158C47.8618 41.5585 46.3567 40.3432 43.3882 39.5036C42.0317 39.1199 40.4312 38.8332 38.6912 38.6544C42.0986 32.8311 45.4753 26.2376 45.4753 22.9767C45.4753 16.8422 40.4908 11.8514 34.364 11.8514C28.2372 11.8514 23.2528 16.8422 23.2528 22.9767C23.2528 26.2375 26.6294 32.8309 30.0368 38.6541C28.2968 38.8329 26.6965 39.1198 25.34 39.5036C22.3715 40.3432 20.8663 41.5586 20.8663 43.1158C20.8663 44.6731 22.3714 45.8885 25.3399 46.7281ZM34.364 13.12C39.1726 13.12 43.9795 18.162 43.9795 22.9767C43.9795 25.4497 40.575 34.7027 35.2906 40.6249C34.7447 40.9318 33.818 40.9391 34.364 40.6249C34.2562 40.6249 33.9871 40.5951 33.818 40.3181C27.0476 33.2755 24.5371 25.4498 24.5371 22.9767C24.5373 18.162 29.5553 13.12 34.364 13.12ZM25.3399 40.6249C26.7651 40.2615 29.4646 39.8028 31.3972 40.9391C30.9165 40.3181 31.6521 41.3593 31.7784 41.5662C32.3334 42.4755 33.3 43.0183 34.364 43.0183C35.428 43.0183 36.3945 42.4755 36.9496 41.5662C37.0759 41.3592 37.2031 41.15 37.3308 40.939C39.0771 39.9532 41.2566 40.5756 42.6818 40.939C44.8664 41.4962 45.7859 42.8747 45.95 43.1158C45.7858 43.357 44.6161 44.8417 42.4315 45.3988C40.263 45.9519 35.871 46.7281 32.9191 46.7281C29.9673 46.7281 25.2473 45.0431 24.4535 44.7231C22.2688 44.1661 22.5589 43.1538 22.3948 42.9127C22.1541 42.5589 23.1553 41.1821 25.3399 40.6249Z" fill="#FB7C51"/>
<path d="M51.2836 40.4923C50.7048 40.174 49.9782 40.3857 49.6605 40.9649C49.3426 41.5443 50.705 41.8633 51.2836 42.1815C52.7074 42.9647 53.4231 44.472 53.4231 45.2027C53.4231 46.0964 51.7089 48.2249 48.1595 49.4323C44.653 50.6252 39.3664 51.4464 34.3642 51.4464C29.362 51.4464 24.3742 50.3898 20.8677 49.1968C17.3183 47.9895 18.1203 48.7609 16.1088 46.9482C14.3989 45.6726 15.7578 43.4012 17.1816 42.6179C17.7602 42.2997 19.3858 41.5442 19.0679 40.9649C18.7501 40.3856 18.0236 40.1739 17.4448 40.4922C15.8573 41.3655 13.9649 42.8515 13.9649 44.9722C13.9649 46.5977 15.0814 48.9153 20.4004 50.7247C24.1481 51.9996 29.1072 52.7017 34.3642 52.7017C39.6212 52.7017 44.5803 51.9996 48.328 50.7247C53.6469 48.9153 54.7635 46.5977 54.7635 44.9722C54.7635 42.8515 52.8711 41.3655 51.2836 40.4923Z" fill="#FB7C51"/>
<path d="M38.8303 22.2126C38.8303 19.7469 36.8268 17.741 34.3642 17.741C31.9016 17.741 29.8981 19.7469 29.8981 22.2126C29.8981 24.6782 31.9016 26.6842 34.3642 26.6842C36.8268 26.6842 38.8303 24.6783 38.8303 22.2126ZM32.2886 22.2126C32.2886 21.0668 33.2198 20.1345 34.3642 20.1345C35.5086 20.1345 36.4397 21.0668 36.4397 22.2126C36.4397 23.3584 35.5086 24.2906 34.3642 24.2906C33.2198 24.2906 32.2886 23.3584 32.2886 22.2126Z" fill="#FB7C51"/>
</g>
<path d="M67.2605 26.5293C67.667 28.2318 67.9452 29.9842 68.0841 31.7757L67.5645 31.816C67.6314 32.6797 67.6655 33.5527 67.6655 34.4337C67.6655 35.3148 67.6314 36.1878 67.5645 37.0515L68.0841 37.0918C67.9452 38.8833 67.667 40.6357 67.2605 42.3382L66.7535 42.2171C66.3445 43.9301 65.8034 45.5918 65.1416 47.1907L65.6232 47.39C64.9415 49.037 64.1338 50.6184 63.212 52.1223L62.7676 51.8499C61.8531 53.342 60.8245 54.7566 59.6941 56.0814L60.0905 56.4198C58.9397 57.7686 57.6848 59.0258 56.3385 60.1789L55.9994 59.7831C54.6764 60.9162 53.2637 61.9473 51.7735 62.8642L52.0466 63.3081C50.5441 64.2325 48.9639 65.0427 47.318 65.7265L47.1181 65.2452C45.5199 65.9092 43.8589 66.4521 42.1465 66.8626L42.268 67.3694C40.5658 67.7775 38.8136 68.0566 37.0222 68.1961L36.9817 67.6764C36.1181 67.7437 35.2452 67.7779 34.3642 67.7779C33.4832 67.7779 32.6102 67.7437 31.7467 67.6764L31.7062 68.1961C29.9148 68.0566 28.1626 67.7775 26.4603 67.3694L26.5818 66.8626C24.8694 66.4521 23.2085 65.9092 21.6103 65.2452L21.4103 65.7265C19.7645 65.0427 18.1843 64.2325 16.6817 63.3081L16.9549 62.8642C15.4647 61.9473 14.052 60.9162 12.729 59.7831L12.3899 60.1789C11.0436 59.0258 9.78871 57.7686 8.63783 56.4198L9.03432 56.0814C7.90386 54.7566 6.87529 53.342 5.96075 51.8499L5.51637 52.1223C4.59463 50.6184 3.78689 49.037 3.10521 47.39L3.5868 47.1907C2.92501 45.5918 2.38391 43.9301 1.97484 42.2171L1.46788 42.3382C1.06133 40.6357 0.783186 38.8833 0.644271 37.0917L1.16393 37.0515C1.09696 36.1878 1.06284 35.3148 1.06284 34.4337C1.06284 33.5527 1.09696 32.6797 1.16393 31.816L0.644272 31.7757C0.783186 29.9842 1.06133 28.2318 1.46788 26.5293L1.97484 26.6504C2.38391 24.9374 2.92501 23.2757 3.5868 21.6768L3.10521 21.4775C3.78689 19.8305 4.59463 18.249 5.51637 16.7452L5.96075 17.0176C6.87529 15.5255 7.90386 14.1109 9.03432 12.786L8.63783 12.4477C9.78871 11.0989 11.0435 9.84172 12.3899 8.68855L12.729 9.08441C14.052 7.95126 15.4647 6.92018 16.9549 6.00332L16.6817 5.5594C18.1843 4.63494 19.7645 3.82477 21.4103 3.14098L21.6103 3.62231C23.2085 2.95831 24.8694 2.41538 26.5818 2.0049L26.4603 1.49804C28.1626 1.09 29.9148 0.810829 31.7062 0.671394L31.7467 1.19104C32.6102 1.12382 33.4832 1.08958 34.3642 1.08958C35.2452 1.08958 36.1181 1.12382 36.9817 1.19104L37.0222 0.671394C38.8136 0.810829 40.5658 1.09 42.268 1.49804L42.1465 2.0049C43.8589 2.41538 45.5199 2.95831 47.1181 3.62231L47.318 3.14098C48.9639 3.82477 50.5441 4.63494 52.0466 5.55939L51.7735 6.00332C53.2637 6.92018 54.6764 7.95126 55.9994 9.08441L56.3385 8.68855C57.6848 9.84171 58.9397 11.0989 60.0905 12.4477L59.6941 12.786C60.8245 14.1109 61.8531 15.5255 62.7676 17.0176L63.212 16.7452C64.1338 18.249 64.9415 19.8305 65.6232 21.4775L65.1416 21.6768C65.8034 23.2757 66.3445 24.9374 66.7535 26.6504L67.2605 26.5293Z" stroke="#838282" stroke-width="1.04243" stroke-dasharray="5.21 5.21"/>
</g>
<defs>
<clipPath id="clip0">
<rect width="40.7986" height="40.8502" fill="white" transform="translate(13.965 11.8516)"/>
</clipPath>
</defs>
</svg>
