<svg width="105" height="86" viewBox="0 0 105 86" fill="none" xmlns="http://www.w3.org/2000/svg">
<path d="M35.3987 1.64648C47.4619 1.64648 59.5251 1.64648 71.5883 1.64648" stroke="#FB7C51" stroke-width="2" stroke-linecap="round" stroke-linejoin="round"/>
<path d="M1.58643 10.2676C24.6837 10.2676 47.8132 10.6271 70.8933 9.50102C80.7859 9.01835 93.6941 10.2676 103.586 10.2676" stroke="#FB7C51" stroke-width="2" stroke-linecap="round" stroke-linejoin="round"/>
<path d="M10.9078 67.9794C11.1351 73.0726 11.1147 78.169 11.1147 83.2666C11.1147 83.3505 11.0303 84.3226 11.1607 84.3882C11.8049 84.7118 13.3374 84.4369 13.9657 84.4369C16.3875 84.4369 18.8093 84.4369 21.2311 84.4369C22.4536 84.4369 27.4853 85.361 27.6918 83.3276C27.9252 81.0296 26.6342 78.8449 26.6342 76.5373C26.6342 75.2024 26.7591 73.7898 26.5997 72.4656C26.47 71.3883 26.0134 70.5177 26.0134 69.4179C26.0134 68.9384 26.0134 68.4589 26.0134 67.9794" stroke="#FB7C51" stroke-width="2" stroke-linecap="round" stroke-linejoin="round"/>
<path d="M26.0128 67.9792C21.9432 67.9792 17.8737 67.9792 13.8041 67.9792" stroke="#FB7C51" stroke-width="2" stroke-linecap="round" stroke-linejoin="round"/>
<path d="M10.9079 34.4146C11.1353 39.5078 11.1148 44.6042 11.1148 49.7018C11.1148 49.7857 11.0304 50.7578 11.1608 50.8233C11.805 51.1469 13.3375 50.8721 13.9658 50.8721C16.3876 50.8721 18.8094 50.8721 21.2312 50.8721C22.4537 50.8721 27.4854 51.7962 27.6919 49.7627C27.9253 47.4648 26.6343 45.2801 26.6343 42.9725C26.6343 41.6375 26.7592 40.225 26.5998 38.9008C26.4701 37.8235 26.0135 36.9529 26.0135 35.8531C26.0135 35.3736 26.0135 34.8941 26.0135 34.4146" stroke="#FB7C51" stroke-width="2" stroke-linecap="round" stroke-linejoin="round"/>
<path d="M26.0129 34.4149C21.9433 34.4149 17.8738 34.4149 13.8042 34.4149" stroke="#FB7C51" stroke-width="2" stroke-linecap="round" stroke-linejoin="round"/>
<path d="M17.6823 40.0123C17.7349 41.1834 17.8109 42.6908 18.4717 43.6917C19.1336 44.6945 20.1123 41.9666 20.2673 41.6864C21.6769 39.1377 23.7962 37.5032 25.9923 35.7625C27.9036 34.2476 29.7692 32.7158 31.5786 31.0712" stroke="#FB7C51" stroke-width="2" stroke-linecap="round" stroke-linejoin="round"/>
<path d="M71.2898 34.4129C71.5172 39.5061 71.4967 44.6026 71.4967 49.7001C71.4967 49.7841 71.4123 50.7562 71.5427 50.8217C72.1869 51.1453 73.7194 50.8705 74.3477 50.8705C76.7695 50.8705 79.1913 50.8705 81.6131 50.8705C82.8356 50.8705 87.8673 51.7945 88.0739 49.7611C88.3072 47.4631 87.0162 45.2784 87.0162 42.9708C87.0162 41.6359 87.1412 40.2234 86.9817 38.8991C86.852 37.8218 86.3954 36.9512 86.3954 35.8514C86.3954 35.3719 86.3954 34.8924 86.3954 34.4129" stroke="#FB7C51" stroke-width="2" stroke-linecap="round" stroke-linejoin="round"/>
<path d="M86.3951 34.4128C82.3256 34.4128 78.256 34.4128 74.1865 34.4128" stroke="#FB7C51" stroke-width="2" stroke-linecap="round" stroke-linejoin="round"/>
<path d="M71.2898 67.9795C71.5172 73.0727 71.4967 78.1691 71.4967 83.2667C71.4967 83.3506 71.4123 84.3227 71.5427 84.3883C72.1869 84.7119 73.7194 84.437 74.3477 84.437C76.7695 84.437 79.1913 84.437 81.6131 84.437C82.8356 84.437 87.8673 85.3611 88.0739 83.3277C88.3072 81.0297 87.0162 78.845 87.0162 76.5374C87.0162 75.2025 87.1412 73.7899 86.9817 72.4657C86.852 71.3884 86.3954 70.5178 86.3954 69.418C86.3954 68.9385 86.3954 68.459 86.3954 67.9795" stroke="#FB7C51" stroke-width="2" stroke-linecap="round" stroke-linejoin="round"/>
<path d="M86.3951 67.9793C82.3256 67.9793 78.256 67.9793 74.1865 67.9793" stroke="#FB7C51" stroke-width="2" stroke-linecap="round" stroke-linejoin="round"/>
</svg>
