<svg width="68" height="69" viewBox="0 0 68 69" fill="none" xmlns="http://www.w3.org/2000/svg">
<g opacity="0.45">
<g opacity="0.5" clip-path="url(#clip0)">
<path d="M24.9177 46.6602C27.3441 47.3466 30.5489 47.7246 33.9418 47.7246C37.3347 47.7246 40.5395 47.3466 42.9659 46.6602C45.9344 45.8207 47.4396 44.6052 47.4396 43.048C47.4396 41.4906 45.9344 40.2753 42.9659 39.4357C41.6095 39.052 40.009 38.7653 38.269 38.5865C41.6764 32.7633 45.053 26.1697 45.053 22.9088C45.053 16.7743 40.0686 11.7836 33.9418 11.7836C27.815 11.7836 22.8306 16.7743 22.8306 22.9088C22.8306 26.1696 26.2071 32.763 29.6145 38.5863C27.8745 38.7651 26.2743 39.052 24.9178 39.4357C21.9493 40.2753 20.4441 41.4907 20.4441 43.048C20.444 44.6052 21.9492 45.8206 24.9177 46.6602ZM33.9417 13.0521C38.7504 13.0521 43.5572 18.0941 43.5572 22.9088C43.5572 25.3818 40.1527 34.6348 34.8684 40.557C34.3225 40.8639 33.3958 40.8712 33.9417 40.557C33.834 40.557 33.5649 40.5272 33.3958 40.2502C26.6254 33.2076 24.1149 25.3819 24.1149 22.9088C24.115 18.0941 29.1331 13.0521 33.9417 13.0521ZM24.9177 40.557C26.3428 40.1936 29.0424 39.7349 30.975 40.8712C30.4943 40.2502 31.2298 41.2914 31.3561 41.4983C31.9112 42.4077 32.8778 42.9505 33.9417 42.9505C35.0058 42.9505 35.9723 42.4076 36.5273 41.4983C36.6536 41.2913 36.7808 41.0821 36.9085 40.8712C38.6549 39.8853 40.8343 40.5077 42.2596 40.8712C44.4442 41.4283 45.3637 42.8068 45.5277 43.048C45.3636 43.2891 44.1939 44.7739 42.0092 45.3309C39.8408 45.884 35.4487 46.6602 32.4969 46.6602C29.545 46.6602 24.8251 44.9752 24.0312 44.6553C21.8466 44.0982 22.1366 43.0859 21.9726 42.8448C21.7319 42.4911 22.733 41.1143 24.9177 40.557Z" fill="#FB7C51"/>
<path d="M50.8613 40.4244C50.2826 40.1061 49.5559 40.3178 49.2382 40.8971C48.9204 41.4764 50.2827 41.7955 50.8613 42.1137C52.2851 42.8968 53.0009 44.4041 53.0009 45.1348C53.0009 46.0285 51.2867 48.157 47.7373 49.3644C44.2308 50.5574 38.9442 51.3785 33.942 51.3785C28.9397 51.3785 23.952 50.3219 20.4455 49.129C16.8961 47.9216 17.6981 48.6931 15.6865 46.8804C13.9767 45.6048 15.3355 43.3333 16.7594 42.55C17.3379 42.2319 18.9635 41.4763 18.6457 40.897C18.3278 40.3177 17.6013 40.1061 17.0226 40.4243C15.4351 41.2976 13.5427 42.7837 13.5427 44.9043C13.5427 46.5298 14.6592 48.8475 19.9782 50.6568C23.7259 51.9317 28.685 52.6338 33.942 52.6338C39.1989 52.6338 44.158 51.9317 47.9057 50.6568C53.2247 48.8475 54.3412 46.5298 54.3412 44.9043C54.3412 42.7837 52.4488 41.2976 50.8613 40.4244Z" fill="#FB7C51"/>
<path d="M38.4081 22.1447C38.4081 19.6791 36.4046 17.6731 33.942 17.6731C31.4794 17.6731 29.4759 19.6791 29.4759 22.1447C29.4759 24.6104 31.4794 26.6163 33.942 26.6163C36.4046 26.6163 38.4081 24.6105 38.4081 22.1447ZM31.8664 22.1447C31.8664 20.9989 32.7975 20.0667 33.942 20.0667C35.0864 20.0667 36.0175 20.9989 36.0175 22.1447C36.0175 23.2905 35.0864 24.2228 33.942 24.2228C32.7975 24.2228 31.8664 23.2906 31.8664 22.1447Z" fill="#FB7C51"/>
</g>
<path d="M66.8383 26.4615C67.2448 28.1639 67.5229 29.9163 67.6619 31.7079L67.1422 31.7482C67.2092 32.6118 67.2433 33.4848 67.2433 34.3659C67.2433 35.2469 67.2092 36.1199 67.1422 36.9836L67.6619 37.0239C67.5229 38.8154 67.2448 40.5678 66.8383 42.2703L66.3313 42.1492C65.9222 43.8622 65.3811 45.5239 64.7193 47.1228L65.2009 47.3221C64.5192 48.9691 63.7115 50.5506 62.7898 52.0544L62.3454 51.782C61.4308 53.2741 60.4023 54.6887 59.2718 56.0136L59.6683 56.3519C58.5174 57.7007 57.2626 58.9579 55.9162 60.1111L55.5772 59.7152C54.2542 60.8483 52.8415 61.8794 51.3513 62.7963L51.6244 63.2402C50.1218 64.1647 48.5416 64.9748 46.8958 65.6586L46.6958 65.1773C45.0977 65.8413 43.4367 66.3842 41.7243 66.7947L41.8458 67.3016C40.1436 67.7096 38.3913 67.9888 36.5999 68.1282L36.5595 67.6086C35.6959 67.6758 34.823 67.71 33.9419 67.71C33.0609 67.71 32.188 67.6758 31.3244 67.6086L31.284 68.1282C29.4926 67.9888 27.7403 67.7096 26.0381 67.3016L26.1596 66.7947C24.4472 66.3842 22.7862 65.8413 21.1881 65.1773L20.9881 65.6586C19.3423 64.9748 17.7621 64.1647 16.2595 63.2402L16.5326 62.7963C15.0424 61.8794 13.6297 60.8483 12.3067 59.7152L11.9677 60.1111C10.6213 58.9579 9.36647 57.7007 8.21559 56.3519L8.61208 56.0136C7.48162 54.6887 6.45305 53.2741 5.53851 51.782L5.09413 52.0544C4.17238 50.5506 3.36465 48.9691 2.68297 47.3221L3.16456 47.1228C2.50277 45.5239 1.96166 43.8622 1.5526 42.1492L1.04564 42.2703C0.639087 40.5678 0.360945 38.8154 0.22203 37.0239L0.741686 36.9836C0.674718 36.1199 0.640601 35.2469 0.640601 34.3659C0.640601 33.4848 0.674718 32.6118 0.741686 31.7482L0.22203 31.7079C0.360945 29.9163 0.639088 28.1639 1.04564 26.4615L1.5526 26.5825C1.96166 24.8695 2.50277 23.2078 3.16456 21.6089L2.68297 21.4096C3.36465 19.7626 4.17238 18.1812 5.09412 16.6773L5.53851 16.9497C6.45305 15.4576 7.48162 14.043 8.61208 12.7182L8.21559 12.3798C9.36647 11.031 10.6213 9.77384 11.9677 8.62068L12.3067 9.01654C13.6297 7.88339 15.0424 6.85231 16.5326 5.93545L16.2595 5.49152C17.7621 4.56707 19.3423 3.7569 20.9881 3.07311L21.1881 3.55444C22.7862 2.89044 24.4472 2.3475 26.1596 1.93703L26.0381 1.43017C27.7403 1.02213 29.4926 0.742957 31.284 0.603523L31.3244 1.12317C32.188 1.05595 33.0609 1.0217 33.9419 1.0217C34.823 1.0217 35.6959 1.05595 36.5595 1.12317L36.5999 0.603523C38.3913 0.742958 40.1436 1.02213 41.8458 1.43017L41.7243 1.93703C43.4367 2.3475 45.0977 2.89044 46.6958 3.55444L46.8958 3.07311C48.5416 3.7569 50.1218 4.56707 51.6244 5.49152L51.3513 5.93545C52.8415 6.85231 54.2542 7.88339 55.5772 9.01654L55.9162 8.62067C57.2626 9.77384 58.5174 11.031 59.6683 12.3798L59.2718 12.7182C60.4023 14.043 61.4308 15.4576 62.3454 16.9497L62.7898 16.6773C63.7115 18.1812 64.5192 19.7626 65.2009 21.4096L64.7193 21.6089C65.3811 23.2079 65.9222 24.8695 66.3313 26.5825L66.8383 26.4615Z" stroke="#838282" stroke-width="1.04243" stroke-dasharray="5.21 5.21"/>
</g>
<defs>
<clipPath id="clip0">
<rect width="40.7986" height="40.8502" fill="white" transform="translate(13.5427 11.7837)"/>
</clipPath>
</defs>
</svg>
