<svg width="79" height="33" viewBox="0 0 79 33" fill="none" xmlns="http://www.w3.org/2000/svg">
<path d="M7.94343 30.6003C18.1494 29.1724 39.8569 23.4484 45.0391 11.976C42.6019 18.9548 31.7708 32.4499 7.94343 30.6003Z" fill="#C4C3C3"/>
<path d="M2.214 30.1013C1.5268 30.1013 0.927957 30.0293 0.417467 29.8853V27.3525C0.941046 27.4834 1.41881 27.5489 1.85077 27.5489C2.51833 27.5489 2.99609 27.3394 3.28406 26.9206C3.57203 26.5082 3.71602 25.8603 3.71602 24.9768V11.5273H6.75932V24.9571C6.75932 26.6326 6.37645 27.9088 5.61072 28.7858C4.84498 29.6628 3.71274 30.1013 2.214 30.1013ZM23.3993 18.684C23.3993 21.0597 22.8103 22.8857 21.6322 24.1619C20.4542 25.4382 18.7656 26.0763 16.5666 26.0763C14.3676 26.0763 12.679 25.4382 11.501 24.1619C10.3229 22.8857 9.7339 21.0532 9.7339 18.6644C9.7339 16.2755 10.3229 14.4528 11.501 13.1962C12.6856 11.9331 14.3807 11.3015 16.5862 11.3015C18.7918 11.3015 20.4771 11.9364 21.6421 13.2061C22.8136 14.4757 23.3993 16.3017 23.3993 18.684ZM12.9245 18.684C12.9245 20.2875 13.2288 21.495 13.8375 22.3065C14.4461 23.1181 15.3558 23.5238 16.5666 23.5238C18.9947 23.5238 20.2088 21.9106 20.2088 18.684C20.2088 15.4509 19.0013 13.8343 16.5862 13.8343C15.3755 13.8343 14.4625 14.2434 13.8473 15.0615C13.2321 15.873 12.9245 17.0805 12.9245 18.684ZM26.3739 11.5273H30.8407C32.8761 11.5273 34.3519 11.8186 35.2682 12.4011C36.191 12.977 36.6524 13.8965 36.6524 15.1597C36.6524 16.017 36.4495 16.7206 36.0438 17.2703C35.6445 17.8201 35.1111 18.1506 34.4436 18.2619V18.36C35.3533 18.5629 36.0078 18.9425 36.407 19.4988C36.8128 20.0551 37.0157 20.7947 37.0157 21.7175C37.0157 23.0264 36.5412 24.0474 35.5922 24.7804C34.6497 25.5134 33.367 25.8799 31.7439 25.8799H26.3739V11.5273ZM29.4172 17.2114H31.1843C32.0089 17.2114 32.6045 17.0838 32.971 16.8286C33.3441 16.5733 33.5306 16.1512 33.5306 15.5622C33.5306 15.0124 33.3277 14.6197 32.9219 14.3841C32.5227 14.142 31.8879 14.0209 31.0174 14.0209H29.4172V17.2114ZM29.4172 19.6264V23.3668H31.4003C32.238 23.3668 32.8565 23.2064 33.2557 22.8857C33.6549 22.565 33.8545 22.0742 33.8545 21.4132C33.8545 20.222 33.0037 19.6264 31.3021 19.6264H29.4172Z" fill="#A6A0A0"/>
<path d="M40.843 23.4464V26.4498H40.0033V19.2279H41.9841C42.87 19.2279 43.5237 19.3975 43.9452 19.7367C44.37 20.0759 44.5824 20.5863 44.5824 21.268C44.5824 22.223 44.0983 22.8685 43.1301 23.2044L45.0912 26.4498H44.0983L42.3496 23.4464H40.843ZM40.843 22.7252H41.994C42.5867 22.7252 43.0214 22.6083 43.2981 22.3745C43.5747 22.1374 43.713 21.7834 43.713 21.3124C43.713 20.8349 43.5714 20.4908 43.2882 20.28C43.0083 20.0693 42.5571 19.9639 41.9347 19.9639H40.843V22.7252ZM52.5255 22.8289C52.5255 23.9848 52.2324 24.8938 51.6462 25.5557C51.0633 26.2176 50.2516 26.5486 49.2109 26.5486C48.1472 26.5486 47.3256 26.2242 46.746 25.5754C46.1697 24.9234 45.8816 24.0046 45.8816 22.8191C45.8816 21.6434 46.1714 20.7328 46.7509 20.0874C47.3305 19.4386 48.1538 19.1143 49.2208 19.1143C50.2582 19.1143 51.0683 19.4436 51.6512 20.1022C52.2341 20.7608 52.5255 21.6697 52.5255 22.8289ZM46.7707 22.8289C46.7707 23.807 46.9782 24.5496 47.3931 25.0568C47.8113 25.5606 48.4173 25.8125 49.2109 25.8125C50.0112 25.8125 50.6155 25.5606 51.0238 25.0568C51.4322 24.5529 51.6363 23.8103 51.6363 22.8289C51.6363 21.8575 51.4322 21.1214 51.0238 20.6209C50.6188 20.117 50.0178 19.8651 49.2208 19.8651C48.4206 19.8651 47.8113 20.1187 47.3931 20.6258C46.9782 21.1297 46.7707 21.864 46.7707 22.8289ZM57.2331 19.875C56.4394 19.875 55.8121 20.1401 55.351 20.6703C54.8933 21.1972 54.6644 21.92 54.6644 22.8388C54.6644 23.784 54.885 24.515 55.3263 25.0321C55.7709 25.5458 56.4032 25.8027 57.2232 25.8027C57.727 25.8027 58.3017 25.7121 58.9472 25.531V26.267C58.4466 26.4547 57.8291 26.5486 57.0948 26.5486C56.0311 26.5486 55.2094 26.2258 54.6298 25.5804C54.0535 24.9349 53.7654 24.0178 53.7654 22.8289C53.7654 22.0847 53.9037 21.4326 54.1803 20.8728C54.4602 20.313 54.862 19.8816 55.3856 19.5786C55.9125 19.2756 56.5316 19.1241 57.243 19.1241C58.0004 19.1241 58.6623 19.2624 59.2287 19.5391L58.8731 20.2603C58.3264 20.0034 57.7797 19.875 57.2331 19.875ZM65.7393 26.4498H64.7514L62.1185 22.9475L61.3627 23.6193V26.4498H60.5229V19.2279H61.3627V22.8092L64.6377 19.2279H65.6306L62.7261 22.3646L65.7393 26.4498ZM70.763 26.4498H66.7371V19.2279H70.763V19.9738H67.5769V22.3004H70.5704V23.0413H67.5769V25.6989H70.763V26.4498ZM74.5913 26.4498H73.7516V19.9738H71.4645V19.2279H76.8784V19.9738H74.5913V26.4498Z" fill="#A6A0A0"/>
<path d="M41.6294 9.52561C42.436 6.67434 45.5648 6.15217 47.0283 6.24749C47.5647 2.84851 51.0878 1.63094 52.7823 1.44703L54.2182 0.517626L53.6559 2.05389C53.8889 5.50081 51.5225 7.85819 50.3101 8.60601C51.2962 11.3694 49.4833 14.0307 48.4535 15.0159C48.8066 14.3261 48.1982 11.6482 47.8498 10.3954L46.1266 11.3858L45.9586 8.90009C44.5846 9.10393 41.7952 9.51441 41.6294 9.52561Z" fill="#C4C3C3" fill-opacity="0.35"/>
<ellipse cx="49.4752" cy="6.16626" rx="1.35127" ry="1.35089" fill="#C4C3C3"/>
</svg>
