<svg width="104" height="85" viewBox="0 0 104 85" fill="none" xmlns="http://www.w3.org/2000/svg">
<path d="M1.87247 58.3517C1.78655 65.1837 1.52965 72.0136 1.31502 78.8447C1.27634 80.0759 1.20185 81.3072 1.22792 82.5384C1.23672 82.954 1.10387 83.3983 1.41954 83.7815C1.5205 83.9041 1.93352 83.7348 2.18604 83.7016C3.23998 83.563 4.92853 83.2821 5.84433 83.1244C9.68672 82.463 10.9617 83.8099 14.7859 83.1244C20.2609 83.1244 19.4323 83.1244 19.3626 80.4962C19.956 79.3537 19.4323 77.8026 19.4323 76.6516C19.4323 73.3989 19.4323 70.1461 19.4323 66.8934C19.4323 66.2281 20.1465 56.7784 18.8748 56.7535C14.6702 56.6711 9.94905 56.6922 5.86175 57.2241C4.60705 57.3874 3.72949 57.565 2.81318 58.0321" stroke="#FB7C51" stroke-width="2" stroke-linecap="round"/>
<path d="M28.2527 47.5251C28.1667 57.2607 27.9098 66.9935 27.6952 76.7278C27.6565 78.4823 27.582 80.2369 27.6081 81.9914C27.6169 82.5837 27.484 83.2167 27.7997 83.7628C27.9007 83.9375 28.3137 83.6963 28.5662 83.6489C29.6202 83.4514 31.3087 83.0512 32.2245 82.8265C36.0669 81.8839 37.3418 83.8033 41.1661 82.8265C46.641 82.8265 45.8124 82.8265 45.7428 79.0813C46.3361 77.4531 45.8124 75.2429 45.8124 73.6026C45.8124 68.9674 45.8124 64.3323 45.8124 59.6971C45.8124 58.749 46.5267 45.2831 45.255 45.2476C41.0504 45.1301 36.3292 45.1602 32.2419 45.9182C30.9872 46.1509 30.1097 46.4041 29.1934 47.0696" stroke="#FB7C51" stroke-width="2" stroke-linecap="round"/>
<path d="M54.6328 39.3785C54.5469 51.299 54.29 63.216 54.0754 75.135C54.0367 77.2832 53.9622 79.4315 53.9883 81.5798C53.9971 82.305 53.8642 83.0801 54.1799 83.7488C54.2809 83.9626 54.6939 83.6673 54.9464 83.6093C56.0003 83.3675 57.6889 82.8774 58.6047 82.6023C62.4471 81.4482 63.722 83.7983 67.5463 82.6023C73.0212 82.6023 72.1926 82.6023 72.1229 78.0166C72.7163 76.023 72.1926 73.3167 72.1926 71.3084C72.1926 65.633 72.1926 59.9576 72.1926 54.2822C72.1926 53.1213 72.9069 36.6334 71.6352 36.5899C67.4306 36.446 62.7094 36.4829 58.6221 37.411C57.3674 37.6959 56.4898 38.0059 55.5735 38.8208" stroke="#FB7C51" stroke-width="2" stroke-linecap="round"/>
<path d="M81.013 30.6663C80.9271 44.9234 80.6702 59.1763 80.4556 73.4315C80.4169 76.0008 80.3424 78.5703 80.3685 81.1397C80.3772 82.007 80.2444 82.934 80.5601 83.7337C80.661 83.9895 81.0741 83.6363 81.3266 83.567C82.3805 83.2777 84.0691 82.6916 84.9849 82.3626C88.8273 80.9822 90.1022 83.793 93.9264 82.3626C99.4014 82.3626 98.5728 82.3626 98.5031 76.878C99.0965 74.4936 98.5728 71.2569 98.5728 68.8549C98.5728 62.067 98.5728 55.2792 98.5728 48.4913C98.5728 47.1029 99.2871 27.3831 98.0153 27.3311C93.8107 27.1591 89.0896 27.2031 85.0023 28.3131C83.7476 28.6538 82.87 29.0246 81.9537 29.9993" stroke="#FB7C51" stroke-width="2" stroke-linecap="round"/>
<path d="M3.07123 52.3265C6.4641 49.4854 9.77756 46.6033 13.102 43.7218" stroke="#FB7C51" stroke-width="2" stroke-linecap="round"/>
<path d="M62.321 20.1902C67.1377 19.25 71.7793 19.1433 76.7194 19.1368C80.1842 19.1322 83.6491 19.1368 87.1139 19.1368C88.5963 19.1368 93.3041 7.38522 94.7604 7.02377" stroke="#FB7C51" stroke-width="2" stroke-linecap="round"/>
<path d="M19.6461 38.1802C24.6439 36.4002 30.1062 35.3345 35.4797 34.5289C36.9993 34.3011 38.4353 34.0513 39.9 33.6589" stroke="#FB7C51" stroke-width="2" stroke-linecap="round"/>
<path d="M47.1225 31.2436C48.1465 28.5141 50.7097 27.2653 52.6899 25.6818C53.5636 24.9833 54.2271 24.136 54.9663 23.2677" stroke="#FB7C51" stroke-width="2" stroke-linecap="round"/>
<path d="M17.1197 36.5818C16.3258 36.5098 15.8099 36.4585 15.1032 36.7634C14.3488 37.089 13.8927 37.5847 13.608 38.2072C13.4058 38.6492 13.2442 39.0898 13.2171 39.5601C13.1749 40.2905 13.0364 41.2128 13.3908 41.9026C13.7864 42.6726 14.3391 43.4349 15.581 43.4658C16.3038 43.4838 16.8586 43.4558 17.5168 43.2124C18.077 43.0052 18.4793 42.813 18.7266 42.3472C19.2525 41.3567 19.3533 40.16 19.3533 39.0964C19.3533 38.5931 18.9267 38.0896 18.404 37.7913C17.9244 37.5175 17.1324 37.2331 17.008 36.7539" stroke="#FB7C51" stroke-width="2" stroke-linecap="round"/>
<path d="M44.1576 29.6384C43.3638 29.5664 42.8478 29.5151 42.1412 29.82C41.3868 30.1455 40.9306 30.6413 40.6459 31.2638C40.4438 31.7058 40.2822 32.1463 40.255 32.6167C40.2129 33.3471 40.0744 34.2694 40.4288 34.9592C40.8244 35.7292 41.3771 36.4915 42.6189 36.5224C43.3418 36.5404 43.8966 36.5124 44.5547 36.269C45.1149 36.0618 45.5172 35.8696 45.7646 35.4037C46.2904 34.4133 46.3912 33.2166 46.3912 32.153C46.3912 31.6497 45.9647 31.1462 45.4419 30.8479C44.9623 30.5741 44.1703 30.2897 44.0459 29.8105" stroke="#FB7C51" stroke-width="2" stroke-linecap="round"/>
<path d="M62.1425 23.3417C62.5275 22.7344 62.7826 22.3414 62.734 21.6573C62.6822 20.927 62.3339 20.3691 61.7844 19.8992C61.3943 19.5655 60.9899 19.2648 60.5016 19.0602C59.7433 18.7424 58.8191 18.2729 57.9497 18.2882C56.9792 18.3053 55.9557 18.4511 55.44 19.4329C55.1398 20.0044 54.9536 20.4593 54.9558 21.0806C54.9577 21.6095 55.005 22.0062 55.4029 22.3853C56.2488 23.1914 57.4788 23.7375 58.6069 24.1512C59.1406 24.3469 59.8405 24.2014 60.3602 23.8991C60.8371 23.6217 61.4468 23.0985 62.0034 23.1854" stroke="#FB7C51" stroke-width="2" stroke-linecap="round"/>
<path d="M94.8215 7.09858C95.3297 7.63323 95.6563 7.98395 96.4063 8.19672C97.2071 8.42386 97.9324 8.34803 98.6378 8.07736C99.1386 7.88518 99.6093 7.66932 100.008 7.35038C100.628 6.85503 101.471 6.28156 101.774 5.57382C102.114 4.78373 102.334 3.90346 101.474 3.12535C100.972 2.67241 100.554 2.35455 99.8884 2.12747C99.3217 1.93415 98.8797 1.82632 98.3273 2.00801C97.1531 2.39428 96.1156 3.18647 95.2574 3.94512C94.8513 4.30408 94.7493 4.92289 94.8814 5.45396C95.0026 5.94121 95.338 6.62631 95.04 7.04383" stroke="#FB7C51" stroke-width="2" stroke-linecap="round"/>
</svg>
