<svg width="130" height="51" viewBox="0 0 130 51" fill="none" xmlns="http://www.w3.org/2000/svg">
<path d="M2.084 42.0566C1.53144 42.0566 1.13503 41.8284 0.894788 41.3719C0.654543 40.9155 0.630519 40.471 0.822714 40.0386L11.4175 14.885C11.6818 14.2363 12.1382 13.912 12.7869 13.912C13.4115 13.912 13.856 14.2363 14.1203 14.885L24.7511 40.0746C24.9673 40.5311 24.9313 40.9755 24.643 41.408C24.3787 41.8404 23.9943 42.0566 23.4898 42.0566C23.2015 42.0566 22.9372 41.9846 22.697 41.8404C22.4808 41.6963 22.3006 41.4801 22.1564 41.1918L12.2463 17.1553H13.3635L3.38132 41.1918C3.2612 41.4801 3.08101 41.6963 2.84077 41.8404C2.62455 41.9846 2.37229 42.0566 2.084 42.0566ZM4.46242 35.3538L5.54352 32.9394H20.1744L21.2555 35.3538H4.46242ZM30.0169 50.4892C29.5845 50.4892 29.2361 50.3571 28.9719 50.0928C28.7316 49.8526 28.6115 49.5162 28.6115 49.0838V32.0745C28.6355 30.2006 29.08 28.5189 29.9449 27.0293C30.8338 25.5158 32.023 24.3266 33.5125 23.4617C35.026 22.5968 36.7198 22.1644 38.5937 22.1644C40.5156 22.1644 42.2334 22.6088 43.7469 23.4977C45.2605 24.3626 46.4497 25.5518 47.3145 27.0654C48.2034 28.5789 48.6479 30.2967 48.6479 32.2186C48.6479 34.1166 48.2155 35.8223 47.3506 37.3358C46.5097 38.8494 45.3566 40.0506 43.8911 40.9395C42.4256 41.8044 40.7679 42.2368 38.918 42.2368C37.3084 42.2368 35.8429 41.9005 34.5215 41.2278C33.2242 40.5311 32.1791 39.6182 31.3863 38.489V49.0838C31.3863 49.5162 31.2542 49.8526 30.9899 50.0928C30.7497 50.3571 30.4254 50.4892 30.0169 50.4892ZM38.5937 39.7143C39.9871 39.7143 41.2364 39.3899 42.3415 38.7413C43.4466 38.0926 44.3115 37.2037 44.9361 36.0746C45.5848 34.9214 45.9091 33.6361 45.9091 32.2186C45.9091 30.7772 45.5848 29.4918 44.9361 28.3627C44.3115 27.2335 43.4466 26.3446 42.3415 25.696C41.2364 25.0233 39.9871 24.687 38.5937 24.687C37.2243 24.687 35.987 25.0233 34.8819 25.696C33.7768 26.3446 32.9119 27.2335 32.2872 28.3627C31.6626 29.4918 31.3503 30.7772 31.3503 32.2186C31.3503 33.6361 31.6626 34.9214 32.2872 36.0746C32.9119 37.2037 33.7768 38.0926 34.8819 38.7413C35.987 39.3899 37.2243 39.7143 38.5937 39.7143ZM61.8024 42.0566C60.5291 42.0566 59.388 41.7563 58.3789 41.1557C57.3939 40.5551 56.6131 39.7383 56.0366 38.7052C55.46 37.6482 55.1717 36.4469 55.1717 35.1016V17.4796C55.1717 17.0712 55.2918 16.7349 55.532 16.4706C55.7963 16.2063 56.1326 16.0742 56.5411 16.0742C56.9495 16.0742 57.2858 16.2063 57.5501 16.4706C57.8144 16.7349 57.9465 17.0712 57.9465 17.4796V35.1016C57.9465 36.3268 58.3069 37.3358 59.0276 38.1286C59.7483 38.8974 60.6733 39.2818 61.8024 39.2818H62.7754C63.1598 39.2818 63.4721 39.414 63.7124 39.6782C63.9526 39.9425 64.0727 40.2788 64.0727 40.6872C64.0727 41.0957 63.9286 41.432 63.6403 41.6963C63.352 41.9365 62.9916 42.0566 62.5592 42.0566H61.8024ZM52.8293 25.4798C52.4689 25.4798 52.1686 25.3717 51.9284 25.1554C51.6881 24.9152 51.568 24.6269 51.568 24.2906C51.568 23.9302 51.6881 23.6419 51.9284 23.4257C52.1686 23.1854 52.4689 23.0653 52.8293 23.0653H62.0186C62.379 23.0653 62.6793 23.1854 62.9196 23.4257C63.1598 23.6419 63.2799 23.9302 63.2799 24.2906C63.2799 24.6269 63.1598 24.9152 62.9196 25.1554C62.6793 25.3717 62.379 25.4798 62.0186 25.4798H52.8293ZM77.2745 42.2368C75.4247 42.2368 73.767 41.8044 72.3015 40.9395C70.836 40.0506 69.6708 38.8494 68.8059 37.3358C67.9651 35.8223 67.5446 34.1166 67.5446 32.2186C67.5446 30.2967 67.9771 28.5789 68.842 27.0654C69.7309 25.5518 70.9321 24.3626 72.4456 23.4977C73.9592 22.6088 75.6649 22.1644 77.5628 22.1644C79.4608 22.1644 81.1545 22.6088 82.644 23.4977C84.1575 24.3626 85.3468 25.5518 86.2116 27.0654C87.1005 28.5789 87.557 30.2967 87.581 32.2186L86.4639 33.0835C86.4639 34.8133 86.0555 36.3749 85.2386 37.7683C84.4458 39.1377 83.3527 40.2308 81.9593 41.0476C80.5899 41.8404 79.0283 42.2368 77.2745 42.2368ZM77.5628 39.7143C78.9563 39.7143 80.1935 39.3899 81.2746 38.7413C82.3797 38.0926 83.2446 37.2037 83.8693 36.0746C84.5179 34.9214 84.8422 33.6361 84.8422 32.2186C84.8422 30.7772 84.5179 29.4918 83.8693 28.3627C83.2446 27.2335 82.3797 26.3446 81.2746 25.696C80.1935 25.0233 78.9563 24.687 77.5628 24.687C76.1934 24.687 74.9562 25.0233 73.8511 25.696C72.7459 26.3446 71.869 27.2335 71.2204 28.3627C70.5717 29.4918 70.2474 30.7772 70.2474 32.2186C70.2474 33.6361 70.5717 34.9214 71.2204 36.0746C71.869 37.2037 72.7459 38.0926 73.8511 38.7413C74.9562 39.3899 76.1934 39.7143 77.5628 39.7143ZM86.1756 42.0566C85.7672 42.0566 85.4308 41.9365 85.1666 41.6963C84.9023 41.432 84.7702 41.0957 84.7702 40.6872V34.525L85.4549 31.6781L87.581 32.2186V40.6872C87.581 41.0957 87.4489 41.432 87.1846 41.6963C86.9204 41.9365 86.584 42.0566 86.1756 42.0566Z" fill="#FB7C51"/>
<path d="M113.959 22.374C107.73 16.4238 100.555 18.2714 97.4773 20.0867C97.3365 20.1698 97.2546 20.3212 97.254 20.4847L97.2426 23.7274C97.2405 24.3114 99.8869 25.2312 100.384 24.9242C101.272 24.3753 102.161 24.0438 102.784 23.897C108.222 23.0907 110.648 26.908 111.203 28.9719C111.213 29.0105 111.218 29.049 111.218 29.089V41.2485C111.218 41.5123 111.432 41.7261 111.695 41.7261H116.56C116.822 41.7261 117.035 41.5155 117.038 41.2537C117.083 36.7798 117.163 29.9415 117.172 29.1115C117.173 29.0542 117.184 28.9998 117.204 28.9464C119.3 23.5281 125.389 23.486 128.174 24.2809C128.504 24.3752 128.857 24.1368 128.857 23.7934V18.9904C128.857 18.7497 128.677 18.5458 128.438 18.5215C122.242 17.8922 116.57 20.5887 114.722 22.358C114.512 22.559 114.169 22.5748 113.959 22.374Z" fill="black" stroke="black" stroke-width="1.73361"/>
<rect x="93.8012" y="1.95726" width="5.95178" height="39.6196" rx="1.40988" fill="black" stroke="black" stroke-width="1.95601"/>
<path d="M119.12 12.8989C119.12 15.2215 117.237 17.1043 114.914 17.1043C112.592 17.1043 110.709 15.2215 110.709 12.8989C110.709 10.5764 112.592 8.6936 114.914 8.6936C117.237 8.6936 119.12 10.5764 119.12 12.8989Z" fill="#FB7C51"/>
</svg>
