<svg width="149" height="62" viewBox="0 0 149 62" fill="none" xmlns="http://www.w3.org/2000/svg">
<path d="M14.5028 57.0944C33.8651 54.3854 75.0477 43.5261 84.8791 21.7612C80.2555 35.001 59.7072 60.6034 14.5028 57.0944Z" fill="#C4C3C3"/>
<path d="M3.63312 57.3073C2.3294 57.3073 1.19329 57.1707 0.224812 56.8976V52.0924C1.21813 52.3407 2.12452 52.4649 2.94401 52.4649C4.21048 52.4649 5.11688 52.0676 5.6632 51.2729C6.20953 50.4907 6.48269 49.2615 6.48269 47.5852V22.0695H12.2563V47.548C12.2563 50.7266 11.53 53.1478 10.0772 54.8116C8.62452 56.4754 6.47648 57.3073 3.63312 57.3073ZM43.8251 35.6469C43.8251 40.154 42.7076 43.6182 40.4726 46.0394C38.2377 48.4606 35.0342 49.6712 30.8623 49.6712C26.6904 49.6712 23.487 48.4606 21.252 46.0394C19.0171 43.6182 17.8996 40.1416 17.8996 35.6096C17.8996 31.0776 19.0171 27.6196 21.252 25.2357C23.4994 22.8393 26.7152 21.6411 30.8996 21.6411C35.0839 21.6411 38.2811 22.8455 40.4913 25.2543C42.7138 27.6631 43.8251 31.1273 43.8251 35.6469ZM23.9526 35.6469C23.9526 38.6889 24.53 40.9797 25.6847 42.5193C26.8394 44.059 28.5653 44.8288 30.8623 44.8288C35.4688 44.8288 37.7721 41.7681 37.7721 35.6469C37.7721 29.5131 35.4812 26.4463 30.8996 26.4463C28.6025 26.4463 26.8704 27.2223 25.7033 28.7744C24.5362 30.314 23.9526 32.6048 23.9526 35.6469ZM49.4683 22.0695H57.9425C61.804 22.0695 64.6039 22.622 66.3422 23.7271C68.093 24.8197 68.9683 26.5642 68.9683 28.9606C68.9683 30.5872 68.5834 31.9219 67.8136 32.9649C67.0562 34.0079 66.0442 34.6349 64.7778 34.846V35.0322C66.5037 35.4172 67.7453 36.1373 68.5027 37.1927C69.2725 38.2481 69.6574 39.6511 69.6574 41.4019C69.6574 43.8851 68.7572 45.8221 66.9569 47.2127C65.1689 48.6034 62.7353 49.2987 59.656 49.2987H49.4683V22.0695ZM55.242 32.8532H58.5944C60.1589 32.8532 61.2888 32.611 61.9841 32.1268C62.6918 31.6426 63.0457 30.8417 63.0457 29.7242C63.0457 28.6812 62.6608 27.9363 61.891 27.4893C61.1336 27.0299 59.9292 26.8002 58.2778 26.8002H55.242V32.8532ZM55.242 37.4348V44.5308H59.0041C60.5934 44.5308 61.7668 44.2266 62.5242 43.6182C63.2816 43.0098 63.6603 42.0786 63.6603 40.8245C63.6603 38.5647 62.0462 37.4348 58.8179 37.4348H55.242Z" fill="#A6A0A0"/>
<path d="M76.9186 42.6536V48.3514H75.3254V34.6503H79.0834C80.764 34.6503 82.0042 34.9721 82.8039 35.6156C83.6098 36.2591 84.0128 37.2275 84.0128 38.5208C84.0128 40.3326 83.0944 41.5571 81.2576 42.1944L84.9781 48.3514H83.0944L79.7769 42.6536H76.9186ZM76.9186 41.2853H79.1021C80.2267 41.2853 81.0514 41.0636 81.5762 40.62C82.101 40.1701 82.3634 39.4985 82.3634 38.6051C82.3634 37.6992 82.0948 37.0463 81.5575 36.6465C81.0264 36.2466 80.1705 36.0467 78.9897 36.0467H76.9186V41.2853ZM99.0821 41.4821C99.0821 43.6751 98.5261 45.3994 97.414 46.6552C96.3082 47.911 94.7681 48.5389 92.7939 48.5389C90.7759 48.5389 89.2171 47.9235 88.1175 46.6927C87.0242 45.4557 86.4775 43.7126 86.4775 41.4634C86.4775 39.233 87.0273 37.5055 88.1269 36.281C89.2265 35.0502 90.7884 34.4348 92.8126 34.4348C94.7806 34.4348 96.3175 35.0596 97.4234 36.3091C98.5292 37.5586 99.0821 39.283 99.0821 41.4821ZM88.1644 41.4821C88.1644 43.3377 88.558 44.7465 89.3452 45.7087C90.1386 46.6646 91.2882 47.1425 92.7939 47.1425C94.312 47.1425 95.4585 46.6646 96.2332 45.7087C97.0079 44.7528 97.3953 43.3439 97.3953 41.4821C97.3953 39.6391 97.0079 38.2427 96.2332 37.2931C95.4647 36.3372 94.3245 35.8593 92.8126 35.8593C91.2944 35.8593 90.1386 36.3403 89.3452 37.3025C88.558 38.2584 88.1644 39.6516 88.1644 41.4821ZM108.013 35.878C106.507 35.878 105.317 36.3809 104.443 37.3868C103.574 38.3864 103.14 39.7578 103.14 41.5009C103.14 43.294 103.559 44.6809 104.396 45.6618C105.239 46.6365 106.439 47.1238 107.994 47.1238C108.95 47.1238 110.041 46.952 111.265 46.6083V48.0047C110.315 48.3608 109.144 48.5389 107.751 48.5389C105.733 48.5389 104.174 47.9266 103.074 46.7021C101.981 45.4775 101.434 43.7376 101.434 41.4821C101.434 40.0702 101.697 38.8331 102.222 37.771C102.753 36.7089 103.515 35.8905 104.508 35.3157C105.508 34.7409 106.682 34.4535 108.032 34.4535C109.469 34.4535 110.725 34.7159 111.799 35.2407L111.124 36.609C110.087 36.1217 109.05 35.878 108.013 35.878ZM124.151 48.3514H122.277L117.282 41.7071L115.848 42.9816V48.3514H114.255V34.6503H115.848V41.4447L122.061 34.6503H123.945L118.434 40.6012L124.151 48.3514ZM133.682 48.3514H126.044V34.6503H133.682V36.0654H127.637V40.4794H133.316V41.8851H127.637V46.927H133.682V48.3514ZM140.945 48.3514H139.351V36.0654H135.012V34.6503H145.283V36.0654H140.945V48.3514Z" fill="#A6A0A0"/>
<path d="M78.4106 17.1124C79.9407 11.7031 85.8765 10.7124 88.6532 10.8933C89.6708 4.44485 96.3546 2.13493 99.5693 1.78602L102.294 0.0227975L101.227 2.93734C101.669 9.47669 97.1793 13.949 94.8793 15.3678C96.7501 20.6104 93.3106 25.6592 91.357 27.5283C92.0268 26.2197 90.8726 21.1392 90.2117 18.7625L86.9424 20.6416L86.6237 15.9257C84.017 16.3124 78.7251 17.0911 78.4106 17.1124Z" fill="#C4C3C3" fill-opacity="0.35"/>
<ellipse cx="93.2952" cy="10.7391" rx="2.56358" ry="2.56285" fill="#C4C3C3"/>
</svg>
