<svg width="105" height="100" viewBox="0 0 105 100" fill="none" xmlns="http://www.w3.org/2000/svg">
<path d="M1.91037 25.6586C7.92925 28.2495 13.1263 33.0475 15.3243 37.4595C16.9582 40.7392 18.6008 43.9203 19.628 47.3117C21.329 52.9282 21.5964 58.6294 22.5064 64.3093C23.8447 72.6627 23.0373 81.2487 23.0373 89.6434C23.0373 92.3079 23.0373 94.9724 23.0373 97.637C23.0373 98.9616 23.0373 95.1843 23.0373 94.8401" stroke="#FB7C51" stroke-width="2" stroke-linecap="round"/>
<path d="M85.5332 7.70406C82.4421 7.70406 78.6569 7.30553 76.5632 9.13053C74.5256 10.9067 74.7533 13.4097 74.7533 15.541C74.7533 17.6802 75.1248 19.6614 75.6582 21.7625C76.0572 23.3337 80.5383 22.7078 82.2593 22.7078C84.4708 22.7078 86.4903 22.5967 88.674 22.3984C89.8807 22.2888 91.9137 22.2865 92.8529 21.625C93.547 21.1361 93.665 19.6097 93.678 18.9611C93.6985 17.9418 93.678 16.9214 93.678 15.902C93.678 14.5951 93.464 13.3011 93.4385 12.0007C93.4241 11.2662 93.6657 10.3599 93.332 9.64612C93.0346 9.00991 93.2461 8.33031 92.1076 8.20247C90.3834 8.00885 88.484 8.16809 86.731 8.16809" stroke="#FB7C51" stroke-width="2" stroke-linecap="round"/>
<path d="M83.4635 6.80107C83.3233 6.41991 81.8834 2.23 83.3734 2.04045C86.3134 1.66644 89.5969 1.54204 92.6052 1.54204C94.4685 1.54204 96.8332 1.37256 98.1592 2.30683C99.5792 3.30728 100.565 3.53187 101.327 4.94494C101.855 5.92672 101.526 7.0286 101.897 8.03849C102.412 9.43778 102.331 10.8799 102.783 12.2749C103.223 13.6371 102.918 15.1448 102.918 16.5285C102.918 17.6308 90.6091 18.9954 96.5533 17.9377" stroke="#FB7C51" stroke-width="2" stroke-linecap="round"/>
<path d="M1.02087 25.6278C4.31215 23.95 8.14583 23.4734 11.721 22.2764C14.3657 21.3909 17.3936 20.8753 20.3316 20.6094C24.6424 20.2191 28.643 19.2183 32.9082 18.736C38.0912 18.15 43.3642 17.9302 48.5591 17.3611C52.5428 16.9248 56.2873 15.882 60.244 15.3503C63.0127 14.9783 65.7965 14.85 68.4154 14.1129C69.2382 13.8813 70.0932 13.8121 70.9707 13.7176" stroke="#FB7C51" stroke-width="2" stroke-linecap="round"/>
<path d="M89.4164 24.8756C90.3524 28.0986 91.1371 31.342 91.8652 34.5859C92.049 35.4048 92.3645 36.1718 92.6637 36.9748C93.1617 38.3111 92.8842 39.6602 93.0497 41.0136C93.4227 44.0641 93.9459 47.0969 94.5536 50.131C94.9962 52.3412 95.6048 54.5495 95.9643 56.7649C96.288 58.7605 96.0868 60.7859 96.124 62.7887C96.1504 64.2117 96.5743 65.6103 96.6031 67.0338C96.6355 68.6372 96.6031 70.2423 96.6031 71.8459C96.6031 74.189 96.6031 76.5321 96.6031 78.8752C96.6031 79.8691 96.6031 80.863 96.6031 81.857C96.6031 83.4389 97.3508 84.8848 97.5081 86.4543C97.5604 86.9767 98.0637 89.1195 97.162 89.5909C96.0578 90.168 94.2905 90.4399 92.9698 90.6822C89.9891 91.2289 86.9671 91.7945 83.9599 92.2719C77.8019 93.2497 71.1453 92.6627 65.0085 93.7757C60.3372 94.623 55.5418 95.3578 50.795 96.0271C46.8331 96.5858 43.0142 97.7869 39.0169 98.184C35.0554 98.5776 31.1047 98.8389 27.0791 98.6223C25.6213 98.5438 24.1732 98.5284 22.7139 98.4676C22.6487 98.4649 20.562 98.3473 21.6226 98.3473C22.1992 98.3473 22.9787 98.028 23.5391 97.8833" stroke="#FB7C51" stroke-width="2" stroke-linecap="round"/>
<path d="M38.2664 72.9667C43.732 72.8298 49.1588 72.3973 54.6022 72.0712" stroke="#FB7C51" stroke-width="2" stroke-linecap="round"/>
<path d="M46.4347 72.9667C46.5185 74.6159 46.7758 76.2694 47.0597 77.909C47.3166 79.3925 48.0229 80.808 48.4895 82.2652C48.8448 83.3745 48.9005 84.465 48.9005 85.5932C48.9005 86.1115 49.3181 87.5737 48.558 87.9593C48.0652 88.2093 47.0033 88.1025 46.4347 88.0919C45.3046 88.0709 44.4547 87.8535 43.5922 87.3788C41.9779 86.4902 40.9253 85.1567 40.5785 83.8131" stroke="#FB7C51" stroke-width="2" stroke-linecap="round"/>
<path d="M58.455 72.5687C58.533 76.1654 58.3922 79.8278 59.3626 83.3874C59.3886 83.4829 59.8197 86.0752 61.366 85.5821C62.2024 85.3154 63.0402 84.5101 63.5921 84.0508C64.4394 83.3455 65.1902 82.5849 65.6554 81.74C66.3524 80.4744 66.4333 79.1106 66.4602 77.7818C66.4805 76.7816 66.4758 75.7802 66.4688 74.78C66.4622 73.836 66.8705 72.2056 66.1263 71.3193C65.779 70.9056 64.1633 71.0717 63.6263 71.0761C62.4577 71.0857 61.189 71.1409 60.0903 71.4299C59.3732 71.6185 59.0359 72.1093 58.9174 72.5687" stroke="#FB7C51" stroke-width="2" stroke-linecap="round"/>
<path d="M70.938 70.8771C71.8896 74.7942 71.8102 78.7659 72.5476 82.7019C72.558 82.7576 72.9414 84.2504 72.9414 83.9126" stroke="#FB7C51" stroke-width="2" stroke-linecap="round"/>
<path d="M72.1714 71.1756C72.7095 71.0356 75.3222 69.9996 75.6218 70.8163C75.955 71.7247 75.7992 72.9565 75.5105 73.8513C75.1269 75.04 74.5112 76.2453 73.507 77.2732C72.8189 77.9777 72.6247 78.1936 73.9009 77.7431C75.4782 77.1863 77.0909 76.659 78.7468 76.2063C79.8481 75.9052 82.1282 75.1437 83.4472 75.3992C83.8753 75.4821 83.7298 76.1347 83.7298 76.2947C83.7298 77.2316 83.7481 78.2279 83.1476 79.1031C80.992 82.2442 74.8675 82.918 71.0926 85.0072" stroke="#FB7C51" stroke-width="2" stroke-linecap="round"/>
<path d="M25.0376 32.6479L26.9979 38.5969" stroke="#FB7C51" stroke-width="2" stroke-linecap="round"/>
<path d="M24.8413 33.1541C27.2633 32.0969 30.2037 32.25 33.0311 32.0431C33.4902 32.0095 36.3691 31.4837 36.9518 31.8181C37.7262 32.2625 37.3776 33.8641 37.3874 34.434C37.4063 35.5356 37.5995 36.5983 37.7686 37.6898C37.8438 38.1757 32.8004 38.2904 31.8549 38.4C30.8238 38.5195 29.9235 38.573 28.958 38.85" stroke="#FB7C51" stroke-width="2" stroke-linecap="round"/>
<path d="M29.4529 47.3486C39.0568 45.6641 48.9438 44.6166 58.7488 43.5513C62.0878 43.1886 65.4849 42.7689 68.8554 42.6653" stroke="#FB7C51" stroke-width="2" stroke-linecap="round"/>
<path d="M32.7857 53.6774C40.4584 53.4832 43.3089 53.5305 51.1691 52.8054C67.9033 51.2618 57.7388 51.7536 75.3246 49.7535" stroke="#FB7C51" stroke-width="2" stroke-linecap="round"/>
<path d="M35.1378 60.9958C47.234 61.2452 59.3608 59.4203 71.3819 57.7971C75.2681 57.2724 79.8914 56.9672 83.7537 55.4495" stroke="#FB7C51" stroke-width="2" stroke-linecap="round"/>
</svg>
