<svg width="91" height="59" viewBox="0 0 91 59" fill="none" xmlns="http://www.w3.org/2000/svg">
<path d="M76.1448 34.5478C74.7437 34.0251 73.7085 35.6265 72.3417 35.9876C70.4372 36.4909 68.4896 36.1676 66.5805 36.1676C62.6893 36.1676 58.6512 35.204 54.7741 36.3476C52.6406 36.9769 50.3205 38.0851 48.3033 40.2171" stroke="#FB7C51" stroke-width="1.38414" stroke-linecap="round"/>
<path d="M14.8258 36.1745C16.2269 35.6518 17.2621 37.2532 18.6288 37.6143C20.5334 38.1176 22.481 37.7943 24.3901 37.7943C28.2813 37.7943 32.3193 36.8307 36.1965 37.9743C38.3299 38.6036 40.6501 39.7118 42.6672 41.8438" stroke="#FB7C51" stroke-width="1.38414" stroke-linecap="round"/>
<path d="M41.9002 8.62984C42.2959 10.9657 42.6484 13.284 42.9219 15.6482C42.9715 16.0761 43.113 16.5135 43.4328 16.7048C44.0731 17.0878 45.3354 16.7802 45.9729 16.7802C47.5441 16.7802 49.6448 17.287 51.1807 16.7425C52.2538 16.362 50.8169 6.47479 49.3644 6.2715C47.5183 6.01315 45.5767 6.25264 43.7166 6.25264C43.287 6.25264 41.1601 5.87978 40.9353 6.3281C40.3363 7.52261 42.2068 10.9827 42.3969 12.1202C42.6043 13.3612 43.1774 14.0757 43.1774 15.4218" stroke="#FB7C51" stroke-width="1.38414" stroke-linecap="round"/>
<path d="M45.7319 5.23378C45.5366 3.54629 44.7439 0.846293 46.4698 0.818976C48.0715 0.793623 49.693 0.740118 51.2945 0.818976C52.1626 0.861726 53.4741 2.49253 54.1042 3.19618C55.1347 4.34706 54.4163 9.94598 54.4163 11.7616C54.4163 12.9332 52.7139 13.272 52.3729 12.3654" stroke="#FB7C51" stroke-width="1.38414" stroke-linecap="round"/>
<path d="M11.5046 32.0621C13.8842 30.6641 16.153 28.4967 18.1457 26.2889" stroke="#FB7C51" stroke-width="1.38414" stroke-linecap="round"/>
<path d="M20.7 23.9118C21.7124 22.6021 22.6735 21.3501 24.0489 20.7799C24.7626 20.484 25.6192 20.3837 26.0639 19.497" stroke="#FB7C51" stroke-width="1.38414" stroke-linecap="round"/>
<path d="M29.8954 18.1386C31.8559 16.7751 33.9578 16.0819 36.0256 15.0822" stroke="#FB7C51" stroke-width="1.38414" stroke-linecap="round"/>
<path d="M58.5032 14.0632C60.4111 15.2047 61.9796 16.4158 63.4414 18.4025C63.8665 18.9803 64.1076 19.417 64.6334 19.8364" stroke="#FB7C51" stroke-width="1.38414" stroke-linecap="round"/>
<path d="M67.9534 24.591C69.1429 25.8254 70.4841 26.9161 71.2739 28.6662" stroke="#FB7C51" stroke-width="1.38414" stroke-linecap="round"/>
<path d="M1.53618 35.2513C4.73406 35.0183 7.93472 34.8298 11.1373 34.6735C11.373 34.662 11.7152 34.5214 11.8439 34.7193C12.0373 35.0169 11.9987 35.5581 12.006 35.8913C12.0282 36.9158 12.1579 37.8966 12.2595 38.913C12.4286 40.6037 12.6906 42.278 12.8663 43.9712C13.0074 45.3312 13.3788 46.7526 13.3568 48.1192C13.3465 48.7578 9.32298 48.4933 8.86793 48.4933C6.84322 48.4933 4.80135 48.413 2.78307 48.5847C2.47317 48.6111 2.39895 44.7232 2.32172 44.1209C2.16159 42.8718 1.90666 41.7231 1.58605 40.5049C1.35513 39.6273 1.44538 38.6761 1.27433 37.7866C1.12568 37.0136 1.41142 36.1488 1.16211 35.4009" stroke="#FB7C51" stroke-width="1.38414" stroke-linecap="round"/>
<path d="M40.4639 44.5283C43.6618 44.2953 46.8625 44.1068 50.065 43.9505C50.3008 43.939 50.643 43.7984 50.7716 43.9963C50.965 44.2939 50.9264 44.8351 50.9337 45.1684C50.956 46.1928 51.0856 47.1736 51.1872 48.19C51.3563 49.8807 51.6183 51.555 51.794 53.2482C51.9352 54.6083 52.3065 56.0296 52.2845 57.3962C52.2742 58.0348 48.2507 57.7703 47.7957 57.7703C45.771 57.7703 43.7291 57.69 41.7108 57.8618C41.4009 57.8881 41.3267 54.0002 41.2495 53.3979C41.0893 52.1488 40.8344 51.0002 40.5138 49.7819C40.2829 48.9044 40.3731 47.9531 40.2021 47.0636C40.0534 46.2906 40.3392 45.4258 40.0898 44.6779" stroke="#FB7C51" stroke-width="1.38414" stroke-linecap="round"/>
<path d="M77.6412 27.2655C80.839 27.0325 84.0397 26.844 87.2423 26.6878C87.478 26.6763 87.8202 26.5356 87.9488 26.7335C88.1423 27.0311 88.1037 27.5723 88.1109 27.9056C88.1332 28.93 88.2628 29.9109 88.3645 30.9272C88.5335 32.6179 88.7956 34.2922 88.9713 35.9855C89.1124 37.3455 89.4838 38.7668 89.4617 40.1335C89.4514 40.772 85.428 40.5075 84.9729 40.5075C82.9482 40.5075 80.9063 40.4272 78.8881 40.599C78.5782 40.6253 78.5039 36.7375 78.4267 36.1351C78.2666 34.886 78.0116 33.7374 77.691 32.5191C77.4601 31.6416 77.5504 30.6903 77.3793 29.8008C77.2307 29.0279 77.5164 28.163 77.2671 27.4151" stroke="#FB7C51" stroke-width="1.38414" stroke-linecap="round"/>
<path d="M8.58704 36.4865C8.59852 37.1412 8.92969 38.2294 9.82547 37.9474C10.1845 37.8344 10.2378 37.3885 10.1955 37.0718C10.1664 36.8535 9.7791 36.5659 9.56182 36.5324C9.48166 36.5201 9.30852 36.5022 9.23044 36.5397C9.09539 36.6045 9.10114 36.9742 9.24012 37.0089" stroke="#FB7C51" stroke-width="1.38414" stroke-linecap="round"/>
<path d="M47.5146 45.7635C47.5261 46.4183 47.8573 47.5065 48.7531 47.2245C49.1121 47.1114 49.1654 46.6656 49.1232 46.3489C49.0941 46.1306 48.7067 45.8429 48.4894 45.8095C48.4093 45.7971 48.2361 45.7793 48.1581 45.8167C48.023 45.8816 48.0287 46.2512 48.1677 46.286" stroke="#FB7C51" stroke-width="1.38414" stroke-linecap="round"/>
<path d="M84.6929 28.5007C84.7044 29.1555 85.0355 30.2437 85.9313 29.9617C86.2904 29.8486 86.3436 29.4028 86.3014 29.0861C86.2723 28.8678 85.8849 28.5801 85.6677 28.5467C85.5875 28.5343 85.4144 28.5164 85.3363 28.5539C85.2012 28.6187 85.207 28.9884 85.346 29.0232" stroke="#FB7C51" stroke-width="1.38414" stroke-linecap="round"/>
<path d="M4.01526 40.7968C5.35237 40.7658 6.69082 40.6836 8.01597 40.4993C8.21566 40.4716 8.47288 40.405 8.68356 40.405C8.7741 40.405 8.63343 40.573 8.63035 40.5792" stroke="#FB7C51" stroke-width="1.38414" stroke-linecap="round"/>
<path d="M42.943 50.0736C44.2801 50.0425 45.6186 49.9604 46.9437 49.7761C47.1434 49.7484 47.4006 49.6818 47.6113 49.6818C47.7018 49.6818 47.5612 49.8498 47.5581 49.8559" stroke="#FB7C51" stroke-width="1.38414" stroke-linecap="round"/>
<path d="M80.1221 32.8106C81.4592 32.7795 82.7976 32.6973 84.1228 32.5131C84.3225 32.4853 84.5797 32.4188 84.7904 32.4188C84.8809 32.4188 84.7402 32.5868 84.7372 32.5929" stroke="#FB7C51" stroke-width="1.38414" stroke-linecap="round"/>
<path d="M4.18994 43.1044H10.1547" stroke="#FB7C51" stroke-width="1.38414" stroke-linecap="round"/>
<path d="M43.1177 52.3814H49.0825" stroke="#FB7C51" stroke-width="1.38414" stroke-linecap="round"/>
<path d="M80.2949 35.1186H86.2597" stroke="#FB7C51" stroke-width="1.38414" stroke-linecap="round"/>
<path d="M5.10522 46.1522H10.504" stroke="#FB7C51" stroke-width="1.38414" stroke-linecap="round"/>
<path d="M44.0311 55.4288H49.4299" stroke="#FB7C51" stroke-width="1.38414" stroke-linecap="round"/>
<path d="M81.2101 38.166H86.6089" stroke="#FB7C51" stroke-width="1.38414" stroke-linecap="round"/>
</svg>
