<svg width="105" height="86" viewBox="0 0 105 86" fill="none" xmlns="http://www.w3.org/2000/svg">
<path d="M4.32106 3.17852C10.8559 1.716 17.2696 2.0025 23.9374 2.0025C35.5292 2.0025 47.1209 2.0025 58.7126 2.0025C67.3997 2.0025 76.2176 2.48177 84.8825 1.7085C88.2135 1.41124 91.5216 1.41449 94.8604 1.41449C96.213 1.41449 97.8456 1.12129 99.1704 1.41449C99.6456 1.51965 99.6362 7.18143 99.7608 7.88261C100.253 10.6484 100.095 13.2611 100.292 16.0494C100.51 19.1311 100.765 22.0907 100.765 25.1962C100.765 32.0784 101.663 39.0735 102.241 45.9236C102.788 52.4161 103.156 58.9468 103.156 65.4749C103.156 66.0436 103.528 69.5304 103.185 69.591C101.209 69.941 98.8973 69.4512 96.9269 69.3297C93.5002 69.1183 90.1216 68.9049 86.7128 68.4477C81.6647 67.7705 76.5467 67.5279 71.4802 66.994C66.8647 66.5075 62.2068 66.6836 57.576 66.6836C53.6006 66.6836 49.6252 66.6836 45.6498 66.6836C40.9671 66.6836 36.1139 67.0879 31.4504 66.553C24.1073 65.7106 16.7005 65.2791 9.36907 64.3316C7.24266 64.0568 5.14433 64.0376 3.0074 64.0376C1.08006 64.0376 1.61814 62.411 1.67898 60.5259C1.76909 57.7338 2.08932 54.781 2.7122 52.0814C3.24897 49.7549 2.99264 47.1532 2.99264 44.7639C2.99264 35.0599 3.45802 25.2308 1.98894 15.6574C1.53327 12.688 1.39853 9.50078 1.39853 6.47792C1.39853 5.63395 1.21057 4.52121 1.45757 3.7012C1.9367 2.11061 3.88356 2.24359 5.11812 2.0025" stroke="#FB7C51" stroke-width="2" stroke-linecap="round"/>
<path d="M48.7784 68.3324C50.2017 70.4489 49.8411 72.8742 49.8411 75.3885" stroke="#FB7C51" stroke-width="2" stroke-linecap="round"/>
<path d="M31.2776 82.8142C34.4764 81.9677 36.5328 79.4493 39.6319 78.5674C44.2821 77.2442 49.2767 77.8161 54.0674 77.8161C56.9944 77.8161 60.988 77.1305 63.7501 78.3061C65.4626 79.0349 66.3657 79.9561 67.7944 81.1808C68.8265 82.0656 69.8973 83.8294 71.1302 84.2842" stroke="#FB7C51" stroke-width="2" stroke-linecap="round"/>
<path d="M50.5503 29.051C49.0663 29.051 48.3895 28.8465 47.4654 30.0963C47.0427 30.668 45.7081 30.9485 45.5318 31.5827C45.3141 32.3655 45.0386 33.5552 44.9857 34.3758C44.7042 38.7368 48.0839 40.8112 51.4654 40.8112C53.2742 40.8112 54.0554 39.4145 55.3326 38.3938C56.4705 37.4844 56.1296 35.202 56.1296 33.8857C56.1296 32.3779 55.6153 30.3913 53.9451 30.227C52.7887 30.1133 51.9883 29.345 50.816 29.345" stroke="#FB7C51" stroke-width="2" stroke-linecap="round"/>
<path d="M50.5504 41.9872C48.3554 42.0234 46.4987 42.5871 44.6168 43.8982C43.807 44.4625 42.4482 45.1017 41.7828 45.7766C39.7504 47.8382 38.5329 49.767 38.1961 52.898C37.7645 56.9098 37.7976 60.8824 37.7976 64.9196" stroke="#FB7C51" stroke-width="2" stroke-linecap="round"/>
<path d="M51.8789 41.9872C53.0936 43.4154 54.028 44.7117 55.5985 45.5806C57.1971 46.4651 57.4604 49.3051 58.6686 50.399C60.0534 51.6528 59.7477 56.241 59.8642 58.1738C60.004 60.4945 60.6465 62.8525 60.6465 65.2136" stroke="#FB7C51" stroke-width="2" stroke-linecap="round"/>
<path d="M60.9118 34.049C61.523 33.7431 64.2946 31.0302 64.6314 31.403" stroke="#FB7C51" stroke-width="2" stroke-linecap="round"/>
<path d="M61.1776 34.049C62.4534 34.7957 63.6261 35.227 65.2262 35.6718C65.9715 35.8791 66.6957 36.2427 67.5397 36.2427" stroke="#FB7C51" stroke-width="2" stroke-linecap="round"/>
<path d="M64.6318 31.109C64.6318 27.679 65.4542 22.4102 68.8828 21.1455C69.9266 20.7605 70.9779 19.9878 72.0119 19.7081C72.9528 19.4536 74.0939 19.6428 75.0525 19.6428C78.512 19.6428 80.8144 20.7885 82.167 24.4122C83.8371 28.8866 82.8677 35.477 79.6282 38.868" stroke="#FB7C51" stroke-width="2" stroke-linecap="round"/>
<path d="M67.9667 36.2427C68.1323 37.3681 69.8989 37.8177 70.7501 38.0487C71.2119 38.1741 71.7355 38.1401 72.1566 38.423C72.4948 38.6503 72.7781 38.5822 73.1595 38.6135C73.6914 38.6571 74.2084 38.8433 74.744 38.8433C76.3683 38.8433 78.7726 39.3367 80.1445 38.2523" stroke="#FB7C51" stroke-width="2" stroke-linecap="round"/>
<ellipse cx="10.0034" cy="11.277" rx="2.61525" ry="2.89402" fill="#FB7C51"/>
<ellipse cx="17.1449" cy="11.277" rx="2.61525" ry="2.89402" fill="#FB7C51"/>
<ellipse cx="24.2863" cy="11.277" rx="2.61525" ry="2.89402" fill="#FB7C51"/>
</svg>
