<svg width="547" height="468" viewBox="0 0 547 468" fill="none" xmlns="http://www.w3.org/2000/svg">
<path d="M289.553 298.179C289.553 307.829 281.663 306.712 270.037 305.065C264.736 304.315 258.658 303.454 252.196 303.454C245.735 303.454 239.656 304.315 234.355 305.065C222.729 306.712 214.84 307.829 214.84 298.179C214.84 284.127 231.565 272.737 252.196 272.737C272.828 272.737 289.553 284.127 289.553 298.179Z" fill="white"/>
<path d="M289.553 298.179C289.553 307.829 281.663 306.712 270.037 305.065C264.736 304.315 258.658 303.454 252.196 303.454C245.735 303.454 239.656 304.315 234.355 305.065C222.729 306.712 214.84 307.829 214.84 298.179C214.84 284.127 231.565 272.737 252.196 272.737C272.828 272.737 289.553 284.127 289.553 298.179Z" stroke="white"/>
<circle cx="252.196" cy="247.943" r="21.5641" fill="white"/>
<circle cx="252.196" cy="247.943" r="21.5641" stroke="white"/>
<path d="M273.782 218.249C279.49 214.779 284.111 211.166 288.504 206.059C291.691 202.353 294.898 198.245 296.248 193.469C296.826 191.425 297.341 189.423 297.341 187.292" stroke="white" stroke-width="1.54212" stroke-linecap="round"/>
<path d="M289.553 190.991C292.522 187.752 296.252 185.499 299.504 182.598C300.454 181.75 301.057 182.865 301.386 183.744C301.641 184.424 302.263 184.913 302.641 185.496C303.523 186.86 303.869 188.675 304.35 190.212" stroke="white" stroke-width="1.54212" stroke-linecap="round"/>
<path d="M287.633 283.382C290.102 278.736 292.672 274.974 296.309 271.395C298.948 268.798 301.874 266.186 305.279 265.082C306.736 264.61 308.163 264.189 309.683 264.187" stroke="white" stroke-width="1.09982" stroke-linecap="round"/>
<path d="M307.054 270.525C309.361 268.107 310.963 265.07 313.028 262.422C313.632 261.648 312.835 261.16 312.208 260.892C311.723 260.686 311.374 260.18 310.957 259.874C309.984 259.158 308.688 258.878 307.591 258.489" stroke="white" stroke-width="1.09982" stroke-linecap="round"/>
<path d="M232.194 226.379C229.269 219.451 226.007 213.71 221.044 207.976C217.442 203.815 213.395 199.567 208.298 197.276C206.118 196.296 203.973 195.393 201.6 195.041" stroke="white" stroke-width="1.16545" stroke-linecap="round"/>
<path d="M204.436 204.324C201.318 200.484 199.424 195.958 196.728 191.859C195.941 190.661 197.282 190.174 198.315 189.952C199.115 189.78 199.761 189.167 200.474 188.843C202.137 188.085 204.216 187.999 206.007 187.717" stroke="white" stroke-width="1.16545" stroke-linecap="round"/>
<path d="M153.109 187.858H157.011V189.354H151.296V179.609H153.109V187.858ZM160.806 182.332C161.242 182.332 161.641 182.402 162.005 182.541C162.374 182.68 162.691 182.885 162.956 183.154C163.221 183.419 163.427 183.747 163.576 184.138C163.724 184.524 163.798 184.967 163.798 185.466C163.798 185.592 163.791 185.697 163.778 185.783C163.769 185.863 163.749 185.929 163.717 185.978C163.69 186.023 163.652 186.057 163.603 186.079C163.553 186.097 163.49 186.106 163.414 186.106H159.141C159.19 186.816 159.381 187.337 159.714 187.67C160.046 188.002 160.487 188.168 161.035 188.168C161.304 188.168 161.536 188.137 161.729 188.074C161.927 188.011 162.097 187.941 162.241 187.865C162.39 187.789 162.518 187.719 162.625 187.656C162.738 187.593 162.846 187.562 162.949 187.562C163.016 187.562 163.075 187.575 163.124 187.602C163.174 187.629 163.216 187.667 163.252 187.717L163.737 188.323C163.553 188.539 163.347 188.721 163.117 188.869C162.888 189.013 162.648 189.13 162.396 189.22C162.149 189.305 161.895 189.366 161.635 189.402C161.379 189.438 161.129 189.456 160.887 189.456C160.406 189.456 159.959 189.377 159.545 189.22C159.132 189.058 158.773 188.822 158.467 188.512C158.162 188.198 157.921 187.811 157.746 187.353C157.571 186.89 157.483 186.355 157.483 185.749C157.483 185.277 157.56 184.835 157.712 184.421C157.865 184.003 158.083 183.642 158.366 183.336C158.654 183.026 159.002 182.781 159.411 182.601C159.824 182.422 160.289 182.332 160.806 182.332ZM160.839 183.525C160.354 183.525 159.975 183.662 159.7 183.936C159.426 184.21 159.251 184.599 159.175 185.102H162.302C162.302 184.886 162.273 184.684 162.214 184.495C162.156 184.302 162.066 184.134 161.945 183.99C161.823 183.846 161.671 183.734 161.486 183.653C161.302 183.567 161.087 183.525 160.839 183.525ZM170.601 189.354H169.853C169.695 189.354 169.572 189.332 169.482 189.287C169.392 189.238 169.325 189.141 169.28 188.997L169.131 188.505C168.956 188.663 168.783 188.802 168.613 188.923C168.446 189.04 168.273 189.139 168.094 189.22C167.914 189.301 167.723 189.361 167.521 189.402C167.319 189.442 167.094 189.462 166.847 189.462C166.555 189.462 166.285 189.424 166.038 189.348C165.791 189.267 165.577 189.148 165.398 188.991C165.223 188.833 165.086 188.638 164.987 188.404C164.888 188.171 164.838 187.899 164.838 187.589C164.838 187.328 164.906 187.072 165.041 186.82C165.18 186.564 165.409 186.335 165.728 186.133C166.047 185.926 166.472 185.756 167.002 185.621C167.532 185.486 168.19 185.41 168.976 185.392V184.987C168.976 184.524 168.878 184.183 168.68 183.963C168.487 183.738 168.204 183.626 167.831 183.626C167.561 183.626 167.337 183.657 167.157 183.72C166.977 183.783 166.82 183.855 166.685 183.936C166.555 184.012 166.433 184.082 166.321 184.145C166.209 184.208 166.085 184.239 165.95 184.239C165.838 184.239 165.741 184.21 165.661 184.152C165.58 184.093 165.515 184.021 165.465 183.936L165.162 183.403C165.957 182.676 166.916 182.312 168.04 182.312C168.444 182.312 168.803 182.379 169.118 182.514C169.437 182.644 169.707 182.828 169.927 183.066C170.147 183.3 170.313 183.581 170.425 183.909C170.542 184.237 170.601 184.596 170.601 184.987V189.354ZM167.366 188.317C167.536 188.317 167.694 188.301 167.837 188.269C167.981 188.238 168.116 188.191 168.242 188.128C168.372 188.065 168.496 187.989 168.613 187.899C168.734 187.804 168.855 187.694 168.976 187.569V186.403C168.491 186.425 168.085 186.468 167.757 186.531C167.433 186.589 167.173 186.665 166.975 186.76C166.777 186.854 166.636 186.964 166.55 187.09C166.469 187.216 166.429 187.353 166.429 187.501C166.429 187.793 166.514 188.002 166.685 188.128C166.86 188.254 167.087 188.317 167.366 188.317ZM177.137 189.354C176.922 189.354 176.78 189.253 176.713 189.051L176.578 188.384C176.434 188.546 176.284 188.692 176.126 188.822C175.969 188.952 175.798 189.065 175.614 189.159C175.434 189.253 175.239 189.325 175.028 189.375C174.821 189.429 174.596 189.456 174.354 189.456C173.976 189.456 173.63 189.377 173.316 189.22C173.001 189.062 172.73 188.836 172.5 188.539C172.276 188.238 172.101 187.867 171.975 187.427C171.853 186.987 171.793 186.483 171.793 185.917C171.793 185.405 171.862 184.929 172.002 184.489C172.141 184.048 172.341 183.666 172.601 183.343C172.862 183.019 173.174 182.768 173.538 182.588C173.902 182.404 174.311 182.312 174.765 182.312C175.151 182.312 175.482 182.375 175.756 182.5C176.03 182.622 176.275 182.786 176.49 182.992V179.34H178.155V189.354H177.137ZM174.92 188.135C175.266 188.135 175.56 188.063 175.803 187.919C176.045 187.775 176.275 187.571 176.49 187.306V184.205C176.302 183.976 176.095 183.815 175.87 183.72C175.65 183.626 175.412 183.579 175.156 183.579C174.904 183.579 174.675 183.626 174.468 183.72C174.266 183.815 174.093 183.958 173.949 184.152C173.81 184.34 173.702 184.583 173.626 184.879C173.55 185.171 173.511 185.517 173.511 185.917C173.511 186.322 173.543 186.665 173.606 186.948C173.673 187.227 173.767 187.456 173.889 187.636C174.01 187.811 174.158 187.939 174.334 188.02C174.509 188.096 174.704 188.135 174.92 188.135ZM182.85 182.332C183.286 182.332 183.686 182.402 184.049 182.541C184.418 182.68 184.735 182.885 185 183.154C185.265 183.419 185.471 183.747 185.62 184.138C185.768 184.524 185.842 184.967 185.842 185.466C185.842 185.592 185.835 185.697 185.822 185.783C185.813 185.863 185.793 185.929 185.761 185.978C185.734 186.023 185.696 186.057 185.647 186.079C185.597 186.097 185.534 186.106 185.458 186.106H181.185C181.235 186.816 181.426 187.337 181.758 187.67C182.09 188.002 182.531 188.168 183.079 188.168C183.349 188.168 183.58 188.137 183.773 188.074C183.971 188.011 184.142 187.941 184.285 187.865C184.434 187.789 184.562 187.719 184.669 187.656C184.782 187.593 184.89 187.562 184.993 187.562C185.06 187.562 185.119 187.575 185.168 187.602C185.218 187.629 185.26 187.667 185.296 187.717L185.782 188.323C185.597 188.539 185.391 188.721 185.161 188.869C184.932 189.013 184.692 189.13 184.44 189.22C184.193 189.305 183.939 189.366 183.679 189.402C183.423 189.438 183.173 189.456 182.931 189.456C182.45 189.456 182.003 189.377 181.59 189.22C181.176 189.058 180.817 188.822 180.511 188.512C180.206 188.198 179.965 187.811 179.79 187.353C179.615 186.89 179.527 186.355 179.527 185.749C179.527 185.277 179.604 184.835 179.756 184.421C179.909 184.003 180.127 183.642 180.41 183.336C180.698 183.026 181.046 182.781 181.455 182.601C181.868 182.422 182.333 182.332 182.85 182.332ZM182.884 183.525C182.398 183.525 182.019 183.662 181.745 183.936C181.47 184.21 181.295 184.599 181.219 185.102H184.346C184.346 184.886 184.317 184.684 184.258 184.495C184.2 184.302 184.11 184.134 183.989 183.99C183.867 183.846 183.715 183.734 183.531 183.653C183.346 183.567 183.131 183.525 182.884 183.525ZM187.226 189.354V182.44H188.203C188.374 182.44 188.493 182.471 188.561 182.534C188.628 182.597 188.673 182.705 188.695 182.858L188.797 183.693C189.044 183.266 189.333 182.929 189.666 182.682C189.998 182.435 190.371 182.312 190.785 182.312C191.126 182.312 191.409 182.39 191.634 182.548L191.418 183.794C191.405 183.875 191.376 183.934 191.331 183.97C191.286 184.001 191.225 184.017 191.149 184.017C191.081 184.017 190.989 184.001 190.872 183.97C190.755 183.938 190.6 183.922 190.407 183.922C190.061 183.922 189.765 184.019 189.518 184.212C189.271 184.401 189.062 184.679 188.891 185.048V189.354H187.226Z" fill="white"/>
<path d="M121.669 248.955V250.398H117.349V253.1H120.753V254.495H117.349V257.252H121.669V258.701H115.523V248.955H121.669ZM124.814 255.135L122.542 251.786H124.146C124.268 251.786 124.358 251.804 124.416 251.84C124.474 251.871 124.526 251.925 124.571 252.002L126.02 254.313C126.042 254.237 126.069 254.16 126.101 254.084C126.137 254.008 126.179 253.931 126.229 253.855L127.395 252.035C127.449 251.95 127.505 251.887 127.563 251.847C127.622 251.806 127.694 251.786 127.779 251.786H129.309L127.031 255.061L129.403 258.701H127.799C127.678 258.701 127.579 258.669 127.503 258.606C127.431 258.543 127.37 258.472 127.321 258.391L125.851 255.985C125.811 256.146 125.755 256.281 125.683 256.389L124.389 258.391C124.34 258.467 124.279 258.539 124.207 258.606C124.135 258.669 124.045 258.701 123.937 258.701H122.448L124.814 255.135ZM132.76 258.809C132.162 258.809 131.702 258.64 131.378 258.303C131.055 257.962 130.893 257.492 130.893 256.894V253.033H130.192C130.102 253.033 130.024 253.004 129.956 252.945C129.893 252.887 129.862 252.799 129.862 252.682V252.022L130.974 251.84L131.325 249.953C131.342 249.863 131.383 249.793 131.446 249.744C131.513 249.694 131.596 249.67 131.695 249.67H132.558V251.847H134.378V253.033H132.558V256.78C132.558 256.996 132.612 257.164 132.72 257.285C132.827 257.407 132.971 257.467 133.151 257.467C133.254 257.467 133.34 257.456 133.407 257.434C133.479 257.407 133.54 257.38 133.589 257.353C133.643 257.326 133.69 257.301 133.731 257.279C133.771 257.252 133.811 257.238 133.852 257.238C133.901 257.238 133.942 257.252 133.973 257.279C134.005 257.301 134.038 257.337 134.074 257.386L134.573 258.195C134.33 258.397 134.052 258.55 133.737 258.654C133.423 258.757 133.097 258.809 132.76 258.809ZM135.735 258.701V251.786H136.712C136.883 251.786 137.002 251.817 137.07 251.88C137.137 251.943 137.182 252.051 137.204 252.204L137.305 253.039C137.553 252.613 137.842 252.276 138.175 252.029C138.507 251.781 138.88 251.658 139.294 251.658C139.635 251.658 139.918 251.736 140.143 251.894L139.927 253.141C139.914 253.221 139.884 253.28 139.84 253.316C139.795 253.347 139.734 253.363 139.658 253.363C139.59 253.363 139.498 253.347 139.381 253.316C139.264 253.284 139.109 253.269 138.916 253.269C138.57 253.269 138.274 253.365 138.027 253.558C137.779 253.747 137.571 254.026 137.4 254.394V258.701H135.735ZM144.223 251.678C144.74 251.678 145.207 251.761 145.625 251.927C146.047 252.094 146.407 252.33 146.703 252.635C147 252.941 147.229 253.314 147.391 253.754C147.552 254.194 147.633 254.686 147.633 255.23C147.633 255.778 147.552 256.272 147.391 256.713C147.229 257.153 147 257.528 146.703 257.838C146.407 258.148 146.047 258.386 145.625 258.552C145.207 258.719 144.74 258.802 144.223 258.802C143.706 258.802 143.237 258.719 142.814 258.552C142.392 258.386 142.03 258.148 141.729 257.838C141.433 257.528 141.201 257.153 141.035 256.713C140.873 256.272 140.793 255.778 140.793 255.23C140.793 254.686 140.873 254.194 141.035 253.754C141.201 253.314 141.433 252.941 141.729 252.635C142.03 252.33 142.392 252.094 142.814 251.927C143.237 251.761 143.706 251.678 144.223 251.678ZM144.223 257.521C144.798 257.521 145.223 257.328 145.497 256.942C145.775 256.555 145.915 255.989 145.915 255.243C145.915 254.497 145.775 253.929 145.497 253.538C145.223 253.147 144.798 252.952 144.223 252.952C143.639 252.952 143.208 253.15 142.929 253.545C142.65 253.936 142.511 254.502 142.511 255.243C142.511 255.985 142.65 256.551 142.929 256.942C143.208 257.328 143.639 257.521 144.223 257.521ZM152.206 258.701H150.696L147.947 251.786H149.328C149.45 251.786 149.551 251.815 149.632 251.874C149.717 251.932 149.775 252.006 149.807 252.096L151.141 255.789C151.218 256.005 151.28 256.216 151.33 256.423C151.384 256.629 151.431 256.836 151.471 257.043C151.512 256.836 151.557 256.629 151.606 256.423C151.66 256.216 151.728 256.005 151.808 255.789L153.177 252.096C153.208 252.006 153.264 251.932 153.345 251.874C153.426 251.815 153.522 251.786 153.635 251.786H154.949L152.206 258.701ZM158.596 251.678C159.032 251.678 159.432 251.748 159.796 251.887C160.165 252.026 160.481 252.231 160.746 252.5C161.012 252.765 161.218 253.093 161.366 253.484C161.515 253.871 161.589 254.313 161.589 254.812C161.589 254.938 161.582 255.043 161.569 255.129C161.56 255.21 161.539 255.275 161.508 255.324C161.481 255.369 161.443 255.403 161.393 255.425C161.344 255.443 161.281 255.452 161.205 255.452H156.932C156.981 256.162 157.172 256.683 157.505 257.016C157.837 257.348 158.277 257.515 158.826 257.515C159.095 257.515 159.327 257.483 159.52 257.42C159.718 257.357 159.888 257.288 160.032 257.211C160.18 257.135 160.308 257.065 160.416 257.002C160.529 256.939 160.636 256.908 160.74 256.908C160.807 256.908 160.865 256.921 160.915 256.948C160.964 256.975 161.007 257.014 161.043 257.063L161.528 257.67C161.344 257.885 161.137 258.067 160.908 258.215C160.679 258.359 160.439 258.476 160.187 258.566C159.94 258.651 159.686 258.712 159.425 258.748C159.169 258.784 158.92 258.802 158.677 258.802C158.197 258.802 157.75 258.723 157.336 258.566C156.923 258.404 156.563 258.168 156.258 257.858C155.952 257.544 155.712 257.157 155.537 256.699C155.362 256.236 155.274 255.702 155.274 255.095C155.274 254.623 155.35 254.181 155.503 253.767C155.656 253.349 155.874 252.988 156.157 252.682C156.444 252.372 156.793 252.127 157.201 251.948C157.615 251.768 158.08 251.678 158.596 251.678ZM158.63 252.871C158.145 252.871 157.765 253.008 157.491 253.282C157.217 253.556 157.042 253.945 156.966 254.448H160.093C160.093 254.232 160.063 254.03 160.005 253.841C159.947 253.648 159.857 253.48 159.735 253.336C159.614 253.192 159.461 253.08 159.277 252.999C159.093 252.914 158.877 252.871 158.63 252.871ZM162.973 258.701V251.786H163.95C164.121 251.786 164.24 251.817 164.307 251.88C164.375 251.943 164.42 252.051 164.442 252.204L164.543 253.039C164.79 252.613 165.08 252.276 165.413 252.029C165.745 251.781 166.118 251.658 166.531 251.658C166.873 251.658 167.156 251.736 167.381 251.894L167.165 253.141C167.151 253.221 167.122 253.28 167.077 253.316C167.032 253.347 166.972 253.363 166.895 253.363C166.828 253.363 166.736 253.347 166.619 253.316C166.502 253.284 166.347 253.269 166.154 253.269C165.808 253.269 165.511 253.365 165.264 253.558C165.017 253.747 164.808 254.026 164.638 254.394V258.701H162.973ZM170.78 258.809C170.182 258.809 169.722 258.64 169.398 258.303C169.075 257.962 168.913 257.492 168.913 256.894V253.033H168.212C168.122 253.033 168.044 253.004 167.976 252.945C167.913 252.887 167.882 252.799 167.882 252.682V252.022L168.994 251.84L169.344 249.953C169.362 249.863 169.403 249.793 169.466 249.744C169.533 249.694 169.616 249.67 169.715 249.67H170.578V251.847H172.398V253.033H170.578V256.78C170.578 256.996 170.632 257.164 170.74 257.285C170.847 257.407 170.991 257.467 171.171 257.467C171.274 257.467 171.36 257.456 171.427 257.434C171.499 257.407 171.56 257.38 171.609 257.353C171.663 257.326 171.71 257.301 171.751 257.279C171.791 257.252 171.831 257.238 171.872 257.238C171.921 257.238 171.962 257.252 171.993 257.279C172.025 257.301 172.058 257.337 172.094 257.386L172.593 258.195C172.35 258.397 172.072 258.55 171.757 258.654C171.443 258.757 171.117 258.809 170.78 258.809Z" fill="white"/>
<path d="M281.918 169.586H280.098V159.841H281.918V169.586ZM284.054 169.586V162.672H285.072C285.287 162.672 285.429 162.773 285.496 162.975L285.611 163.521C285.75 163.377 285.896 163.247 286.049 163.13C286.206 163.013 286.37 162.912 286.541 162.827C286.716 162.741 286.902 162.676 287.1 162.631C287.298 162.586 287.514 162.564 287.747 162.564C288.125 162.564 288.459 162.629 288.751 162.759C289.043 162.885 289.286 163.065 289.479 163.298C289.677 163.528 289.825 163.804 289.924 164.127C290.027 164.446 290.079 164.799 290.079 165.186V169.586H288.414V165.186C288.414 164.763 288.316 164.437 288.118 164.208C287.925 163.975 287.633 163.858 287.242 163.858C286.954 163.858 286.685 163.923 286.433 164.053C286.181 164.184 285.943 164.361 285.719 164.586V169.586H284.054ZM292.045 169.586V163.925L291.445 163.831C291.315 163.808 291.209 163.763 291.128 163.696C291.052 163.629 291.014 163.534 291.014 163.413V162.732H292.045V162.443C292.045 162.074 292.101 161.721 292.214 161.384C292.33 161.047 292.508 160.751 292.746 160.495C292.984 160.234 293.285 160.028 293.649 159.875C294.013 159.717 294.444 159.639 294.943 159.639C295.352 159.639 295.738 159.652 296.102 159.679C296.471 159.706 296.837 159.72 297.201 159.72H298.138V169.586H296.48V160.879C296.242 160.87 296.008 160.859 295.779 160.845C295.554 160.832 295.363 160.825 295.206 160.825C294.703 160.825 294.319 160.967 294.053 161.25C293.788 161.528 293.656 161.926 293.656 162.443V162.732H295.294V163.918H293.71V169.586H292.045ZM301.624 162.672V167.066C301.624 167.488 301.721 167.816 301.914 168.05C302.112 168.279 302.406 168.394 302.797 168.394C303.085 168.394 303.354 168.331 303.606 168.205C303.858 168.075 304.096 167.897 304.32 167.672V162.672H305.985V169.586H304.967C304.752 169.586 304.61 169.485 304.543 169.283L304.428 168.731C304.284 168.874 304.136 169.007 303.983 169.128C303.831 169.245 303.667 169.346 303.491 169.431C303.321 169.512 303.134 169.575 302.932 169.62C302.734 169.67 302.521 169.694 302.292 169.694C301.914 169.694 301.58 169.631 301.288 169.506C301 169.375 300.757 169.193 300.56 168.96C300.362 168.726 300.211 168.45 300.108 168.131C300.009 167.807 299.96 167.452 299.96 167.066V162.672H301.624ZM310.654 162.564C311.089 162.564 311.489 162.633 311.853 162.773C312.222 162.912 312.538 163.116 312.803 163.386C313.069 163.651 313.275 163.979 313.424 164.37C313.572 164.756 313.646 165.199 313.646 165.698C313.646 165.824 313.639 165.929 313.626 166.014C313.617 166.095 313.597 166.16 313.565 166.21C313.538 166.255 313.5 166.289 313.45 166.311C313.401 166.329 313.338 166.338 313.262 166.338H308.989C309.038 167.048 309.229 167.569 309.562 167.902C309.894 168.234 310.335 168.4 310.883 168.4C311.152 168.4 311.384 168.369 311.577 168.306C311.775 168.243 311.945 168.173 312.089 168.097C312.237 168.021 312.365 167.951 312.473 167.888C312.586 167.825 312.693 167.794 312.797 167.794C312.864 167.794 312.923 167.807 312.972 167.834C313.021 167.861 313.064 167.899 313.1 167.949L313.585 168.555C313.401 168.771 313.194 168.953 312.965 169.101C312.736 169.245 312.496 169.362 312.244 169.452C311.997 169.537 311.743 169.598 311.483 169.634C311.226 169.67 310.977 169.688 310.734 169.688C310.254 169.688 309.807 169.609 309.393 169.452C308.98 169.29 308.62 169.054 308.315 168.744C308.009 168.429 307.769 168.043 307.594 167.585C307.419 167.122 307.331 166.587 307.331 165.981C307.331 165.509 307.407 165.066 307.56 164.653C307.713 164.235 307.931 163.874 308.214 163.568C308.501 163.258 308.85 163.013 309.258 162.833C309.672 162.654 310.137 162.564 310.654 162.564ZM310.687 163.757C310.202 163.757 309.822 163.894 309.548 164.168C309.274 164.442 309.099 164.831 309.023 165.334H312.15C312.15 165.118 312.121 164.916 312.062 164.727C312.004 164.534 311.914 164.366 311.793 164.222C311.671 164.078 311.518 163.966 311.334 163.885C311.15 163.799 310.934 163.757 310.687 163.757ZM315.03 169.586V162.672H316.048C316.263 162.672 316.405 162.773 316.472 162.975L316.587 163.521C316.726 163.377 316.872 163.247 317.025 163.13C317.182 163.013 317.346 162.912 317.517 162.827C317.692 162.741 317.879 162.676 318.076 162.631C318.274 162.586 318.49 162.564 318.723 162.564C319.101 162.564 319.435 162.629 319.727 162.759C320.019 162.885 320.262 163.065 320.455 163.298C320.653 163.528 320.801 163.804 320.9 164.127C321.003 164.446 321.055 164.799 321.055 165.186V169.586H319.39V165.186C319.39 164.763 319.292 164.437 319.094 164.208C318.901 163.975 318.609 163.858 318.218 163.858C317.93 163.858 317.661 163.923 317.409 164.053C317.157 164.184 316.919 164.361 316.695 164.586V169.586H315.03ZM327.584 164.134C327.534 164.197 327.485 164.246 327.436 164.282C327.391 164.318 327.323 164.336 327.233 164.336C327.148 164.336 327.065 164.312 326.984 164.262C326.903 164.208 326.807 164.15 326.694 164.087C326.582 164.02 326.447 163.961 326.29 163.912C326.137 163.858 325.946 163.831 325.717 163.831C325.425 163.831 325.169 163.885 324.949 163.993C324.729 164.096 324.544 164.246 324.396 164.444C324.252 164.642 324.144 164.882 324.073 165.165C324.001 165.444 323.965 165.761 323.965 166.116C323.965 166.484 324.003 166.812 324.079 167.1C324.16 167.387 324.275 167.63 324.423 167.827C324.571 168.021 324.751 168.169 324.962 168.272C325.173 168.371 325.411 168.42 325.677 168.42C325.942 168.42 326.155 168.389 326.317 168.326C326.483 168.259 326.622 168.187 326.735 168.11C326.847 168.03 326.944 167.958 327.024 167.895C327.11 167.827 327.204 167.794 327.308 167.794C327.442 167.794 327.543 167.845 327.611 167.949L328.089 168.555C327.905 168.771 327.705 168.953 327.489 169.101C327.274 169.245 327.049 169.362 326.816 169.452C326.586 169.537 326.348 169.598 326.101 169.634C325.854 169.67 325.609 169.688 325.367 169.688C324.94 169.688 324.538 169.609 324.16 169.452C323.783 169.29 323.453 169.056 323.169 168.751C322.891 168.445 322.668 168.072 322.502 167.632C322.34 167.187 322.26 166.682 322.26 166.116C322.26 165.608 322.331 165.138 322.475 164.707C322.624 164.271 322.839 163.896 323.122 163.581C323.405 163.262 323.756 163.013 324.174 162.833C324.591 162.654 325.072 162.564 325.616 162.564C326.133 162.564 326.584 162.647 326.971 162.813C327.361 162.979 327.712 163.218 328.022 163.528L327.584 164.134ZM332.04 162.564C332.475 162.564 332.875 162.633 333.239 162.773C333.608 162.912 333.924 163.116 334.189 163.386C334.455 163.651 334.661 163.979 334.809 164.37C334.958 164.756 335.032 165.199 335.032 165.698C335.032 165.824 335.025 165.929 335.012 166.014C335.003 166.095 334.982 166.16 334.951 166.21C334.924 166.255 334.886 166.289 334.836 166.311C334.787 166.329 334.724 166.338 334.648 166.338H330.375C330.424 167.048 330.615 167.569 330.948 167.902C331.28 168.234 331.721 168.4 332.269 168.4C332.538 168.4 332.77 168.369 332.963 168.306C333.161 168.243 333.331 168.173 333.475 168.097C333.623 168.021 333.751 167.951 333.859 167.888C333.972 167.825 334.079 167.794 334.183 167.794C334.25 167.794 334.309 167.807 334.358 167.834C334.407 167.861 334.45 167.899 334.486 167.949L334.971 168.555C334.787 168.771 334.58 168.953 334.351 169.101C334.122 169.245 333.882 169.362 333.63 169.452C333.383 169.537 333.129 169.598 332.868 169.634C332.612 169.67 332.363 169.688 332.12 169.688C331.64 169.688 331.193 169.609 330.779 169.452C330.366 169.29 330.006 169.054 329.701 168.744C329.395 168.429 329.155 168.043 328.98 167.585C328.805 167.122 328.717 166.587 328.717 165.981C328.717 165.509 328.793 165.066 328.946 164.653C329.099 164.235 329.317 163.874 329.6 163.568C329.887 163.258 330.236 163.013 330.644 162.833C331.058 162.654 331.523 162.564 332.04 162.564ZM332.073 163.757C331.588 163.757 331.208 163.894 330.934 164.168C330.66 164.442 330.485 164.831 330.409 165.334H333.536C333.536 165.118 333.507 164.916 333.448 164.727C333.39 164.534 333.3 164.366 333.179 164.222C333.057 164.078 332.904 163.966 332.72 163.885C332.536 163.799 332.32 163.757 332.073 163.757ZM336.416 169.586V162.672H337.393C337.564 162.672 337.683 162.703 337.75 162.766C337.818 162.829 337.863 162.937 337.885 163.09L337.986 163.925C338.233 163.498 338.523 163.161 338.856 162.914C339.188 162.667 339.561 162.544 339.974 162.544C340.316 162.544 340.599 162.622 340.824 162.779L340.608 164.026C340.594 164.107 340.565 164.166 340.52 164.202C340.475 164.233 340.415 164.249 340.338 164.249C340.271 164.249 340.179 164.233 340.062 164.202C339.945 164.17 339.79 164.154 339.597 164.154C339.251 164.154 338.954 164.251 338.707 164.444C338.46 164.633 338.251 164.911 338.081 165.28V169.586H336.416Z" fill="white"/>
<path d="M325.653 259.262V262.693H323.84V252.947H327.015C327.666 252.947 328.23 253.024 328.706 253.177C329.183 253.329 329.576 253.543 329.886 253.817C330.196 254.091 330.425 254.419 330.573 254.801C330.722 255.183 330.796 255.601 330.796 256.054C330.796 256.526 330.717 256.96 330.56 257.355C330.402 257.746 330.167 258.083 329.852 258.366C329.538 258.649 329.144 258.869 328.673 259.027C328.201 259.184 327.648 259.262 327.015 259.262H325.653ZM325.653 257.847H327.015C327.347 257.847 327.637 257.807 327.884 257.726C328.131 257.64 328.336 257.521 328.497 257.369C328.659 257.211 328.781 257.023 328.861 256.803C328.942 256.578 328.983 256.328 328.983 256.054C328.983 255.794 328.942 255.558 328.861 255.347C328.781 255.136 328.659 254.956 328.497 254.808C328.336 254.659 328.131 254.547 327.884 254.471C327.637 254.39 327.347 254.349 327.015 254.349H325.653V257.847ZM332.144 262.693V255.778H333.121C333.292 255.778 333.411 255.81 333.478 255.872C333.545 255.935 333.59 256.043 333.613 256.196L333.714 257.032C333.961 256.605 334.251 256.268 334.583 256.021C334.916 255.774 335.289 255.65 335.702 255.65C336.043 255.65 336.327 255.729 336.551 255.886L336.336 257.133C336.322 257.214 336.293 257.272 336.248 257.308C336.203 257.339 336.142 257.355 336.066 257.355C335.999 257.355 335.906 257.339 335.79 257.308C335.673 257.277 335.518 257.261 335.325 257.261C334.979 257.261 334.682 257.357 334.435 257.551C334.188 257.739 333.979 258.018 333.808 258.386V262.693H332.144ZM340.631 255.67C341.148 255.67 341.615 255.753 342.033 255.92C342.456 256.086 342.815 256.322 343.112 256.627C343.408 256.933 343.637 257.306 343.799 257.746C343.961 258.186 344.042 258.678 344.042 259.222C344.042 259.77 343.961 260.264 343.799 260.705C343.637 261.145 343.408 261.52 343.112 261.83C342.815 262.14 342.456 262.378 342.033 262.545C341.615 262.711 341.148 262.794 340.631 262.794C340.115 262.794 339.645 262.711 339.223 262.545C338.8 262.378 338.439 262.14 338.138 261.83C337.841 261.52 337.61 261.145 337.444 260.705C337.282 260.264 337.201 259.77 337.201 259.222C337.201 258.678 337.282 258.186 337.444 257.746C337.61 257.306 337.841 256.933 338.138 256.627C338.439 256.322 338.8 256.086 339.223 255.92C339.645 255.753 340.115 255.67 340.631 255.67ZM340.631 261.513C341.206 261.513 341.631 261.32 341.905 260.934C342.184 260.547 342.323 259.981 342.323 259.235C342.323 258.49 342.184 257.921 341.905 257.53C341.631 257.139 341.206 256.944 340.631 256.944C340.047 256.944 339.616 257.142 339.337 257.537C339.059 257.928 338.92 258.494 338.92 259.235C338.92 259.977 339.059 260.543 339.337 260.934C339.616 261.32 340.047 261.513 340.631 261.513ZM345.671 262.693V257.032L345.071 256.937C344.941 256.915 344.835 256.87 344.754 256.803C344.678 256.735 344.64 256.641 344.64 256.519V255.839H345.671V255.327C345.671 254.931 345.729 254.576 345.846 254.262C345.967 253.947 346.138 253.68 346.358 253.46C346.583 253.24 346.855 253.071 347.174 252.954C347.493 252.837 347.852 252.779 348.252 252.779C348.571 252.779 348.867 252.822 349.142 252.907L349.108 253.743C349.099 253.873 349.038 253.954 348.926 253.985C348.814 254.017 348.683 254.033 348.535 254.033C348.337 254.033 348.16 254.055 348.003 254.1C347.85 254.14 347.719 254.215 347.612 254.322C347.504 254.426 347.421 254.565 347.362 254.74C347.308 254.911 347.281 255.124 347.281 255.38V255.839H349.081V257.025H347.335V262.693H345.671ZM352.991 255.67C353.427 255.67 353.827 255.74 354.191 255.879C354.559 256.018 354.876 256.223 355.141 256.492C355.406 256.758 355.613 257.086 355.761 257.476C355.909 257.863 355.983 258.305 355.983 258.804C355.983 258.93 355.977 259.036 355.963 259.121C355.954 259.202 355.934 259.267 355.902 259.316C355.875 259.361 355.837 259.395 355.788 259.417C355.738 259.435 355.676 259.444 355.599 259.444H351.326C351.376 260.154 351.567 260.676 351.899 261.008C352.232 261.34 352.672 261.507 353.22 261.507C353.49 261.507 353.721 261.475 353.914 261.412C354.112 261.349 354.283 261.28 354.426 261.203C354.575 261.127 354.703 261.057 354.811 260.995C354.923 260.932 355.031 260.9 355.134 260.9C355.202 260.9 355.26 260.914 355.309 260.941C355.359 260.968 355.401 261.006 355.437 261.055L355.923 261.662C355.738 261.877 355.532 262.059 355.303 262.208C355.073 262.351 354.833 262.468 354.581 262.558C354.334 262.643 354.081 262.704 353.82 262.74C353.564 262.776 353.314 262.794 353.072 262.794C352.591 262.794 352.144 262.715 351.731 262.558C351.317 262.396 350.958 262.16 350.652 261.85C350.347 261.536 350.106 261.15 349.931 260.691C349.756 260.228 349.668 259.694 349.668 259.087C349.668 258.615 349.745 258.173 349.898 257.76C350.05 257.342 350.268 256.98 350.551 256.674C350.839 256.364 351.187 256.12 351.596 255.94C352.009 255.76 352.474 255.67 352.991 255.67ZM353.025 256.863C352.539 256.863 352.16 257 351.886 257.274C351.612 257.548 351.436 257.937 351.36 258.44H354.487C354.487 258.225 354.458 258.022 354.4 257.834C354.341 257.64 354.251 257.472 354.13 257.328C354.009 257.184 353.856 257.072 353.672 256.991C353.487 256.906 353.272 256.863 353.025 256.863ZM361.472 257.126C361.427 257.198 361.38 257.25 361.33 257.281C361.281 257.308 361.218 257.321 361.141 257.321C361.061 257.321 360.973 257.299 360.879 257.254C360.789 257.209 360.683 257.16 360.562 257.106C360.441 257.047 360.301 256.996 360.144 256.951C359.991 256.906 359.809 256.883 359.598 256.883C359.27 256.883 359.012 256.953 358.823 257.092C358.634 257.232 358.54 257.414 358.54 257.638C358.54 257.786 358.587 257.912 358.682 258.016C358.78 258.114 358.908 258.202 359.066 258.278C359.227 258.355 359.409 258.424 359.612 258.487C359.814 258.546 360.02 258.611 360.232 258.683C360.443 258.755 360.65 258.838 360.852 258.932C361.054 259.022 361.234 259.139 361.391 259.283C361.553 259.422 361.681 259.59 361.775 259.788C361.874 259.986 361.923 260.224 361.923 260.503C361.923 260.835 361.863 261.143 361.741 261.426C361.62 261.704 361.443 261.947 361.209 262.154C360.975 262.356 360.685 262.515 360.339 262.632C359.998 262.745 359.605 262.801 359.16 262.801C358.922 262.801 358.688 262.778 358.459 262.733C358.234 262.693 358.017 262.634 357.805 262.558C357.599 262.482 357.406 262.392 357.226 262.288C357.051 262.185 356.896 262.073 356.761 261.952L357.145 261.318C357.194 261.242 357.253 261.183 357.32 261.143C357.388 261.102 357.473 261.082 357.576 261.082C357.68 261.082 357.776 261.111 357.866 261.17C357.96 261.228 358.068 261.291 358.19 261.358C358.311 261.426 358.452 261.489 358.614 261.547C358.78 261.606 358.989 261.635 359.241 261.635C359.439 261.635 359.607 261.612 359.746 261.567C359.89 261.518 360.007 261.455 360.097 261.379C360.191 261.302 360.259 261.215 360.299 261.116C360.344 261.012 360.366 260.907 360.366 260.799C360.366 260.637 360.317 260.505 360.218 260.401C360.124 260.298 359.996 260.208 359.834 260.132C359.677 260.055 359.495 259.988 359.288 259.93C359.086 259.867 358.877 259.799 358.661 259.727C358.45 259.656 358.241 259.572 358.035 259.478C357.832 259.379 357.65 259.256 357.489 259.107C357.331 258.959 357.203 258.777 357.104 258.562C357.01 258.346 356.963 258.085 356.963 257.78C356.963 257.497 357.019 257.227 357.131 256.971C357.244 256.715 357.408 256.492 357.623 256.304C357.844 256.111 358.115 255.958 358.439 255.845C358.767 255.729 359.144 255.67 359.571 255.67C360.047 255.67 360.481 255.749 360.872 255.906C361.263 256.063 361.589 256.27 361.849 256.526L361.472 257.126ZM367.389 257.126C367.344 257.198 367.297 257.25 367.248 257.281C367.198 257.308 367.136 257.321 367.059 257.321C366.978 257.321 366.891 257.299 366.796 257.254C366.706 257.209 366.601 257.16 366.48 257.106C366.358 257.047 366.219 256.996 366.062 256.951C365.909 256.906 365.727 256.883 365.516 256.883C365.188 256.883 364.929 256.953 364.741 257.092C364.552 257.232 364.458 257.414 364.458 257.638C364.458 257.786 364.505 257.912 364.599 258.016C364.698 258.114 364.826 258.202 364.983 258.278C365.145 258.355 365.327 258.424 365.529 258.487C365.731 258.546 365.938 258.611 366.149 258.683C366.36 258.755 366.567 258.838 366.769 258.932C366.972 259.022 367.151 259.139 367.308 259.283C367.47 259.422 367.598 259.59 367.693 259.788C367.791 259.986 367.841 260.224 367.841 260.503C367.841 260.835 367.78 261.143 367.659 261.426C367.538 261.704 367.36 261.947 367.127 262.154C366.893 262.356 366.603 262.515 366.257 262.632C365.916 262.745 365.523 262.801 365.078 262.801C364.84 262.801 364.606 262.778 364.377 262.733C364.152 262.693 363.934 262.634 363.723 262.558C363.516 262.482 363.323 262.392 363.143 262.288C362.968 262.185 362.813 262.073 362.678 261.952L363.063 261.318C363.112 261.242 363.17 261.183 363.238 261.143C363.305 261.102 363.391 261.082 363.494 261.082C363.597 261.082 363.694 261.111 363.784 261.17C363.878 261.228 363.986 261.291 364.107 261.358C364.229 261.426 364.37 261.489 364.532 261.547C364.698 261.606 364.907 261.635 365.159 261.635C365.356 261.635 365.525 261.612 365.664 261.567C365.808 261.518 365.925 261.455 366.014 261.379C366.109 261.302 366.176 261.215 366.217 261.116C366.262 261.012 366.284 260.907 366.284 260.799C366.284 260.637 366.235 260.505 366.136 260.401C366.041 260.298 365.913 260.208 365.752 260.132C365.594 260.055 365.412 259.988 365.206 259.93C365.004 259.867 364.795 259.799 364.579 259.727C364.368 259.656 364.159 259.572 363.952 259.478C363.75 259.379 363.568 259.256 363.406 259.107C363.249 258.959 363.121 258.777 363.022 258.562C362.928 258.346 362.881 258.085 362.881 257.78C362.881 257.497 362.937 257.227 363.049 256.971C363.161 256.715 363.325 256.492 363.541 256.304C363.761 256.111 364.033 255.958 364.357 255.845C364.685 255.729 365.062 255.67 365.489 255.67C365.965 255.67 366.399 255.749 366.79 255.906C367.18 256.063 367.506 256.27 367.767 256.526L367.389 257.126ZM370.975 255.778V262.693H369.31V255.778H370.975ZM371.224 253.763C371.224 253.907 371.195 254.042 371.137 254.167C371.078 254.293 371 254.403 370.901 254.498C370.807 254.592 370.694 254.668 370.564 254.727C370.434 254.781 370.294 254.808 370.146 254.808C370.002 254.808 369.865 254.781 369.735 254.727C369.609 254.668 369.499 254.592 369.405 254.498C369.31 254.403 369.234 254.293 369.176 254.167C369.122 254.042 369.095 253.907 369.095 253.763C369.095 253.615 369.122 253.475 369.176 253.345C369.234 253.215 369.31 253.102 369.405 253.008C369.499 252.914 369.609 252.84 369.735 252.786C369.865 252.727 370.002 252.698 370.146 252.698C370.294 252.698 370.434 252.727 370.564 252.786C370.694 252.84 370.807 252.914 370.901 253.008C371 253.102 371.078 253.215 371.137 253.345C371.195 253.475 371.224 253.615 371.224 253.763ZM375.848 255.67C376.364 255.67 376.832 255.753 377.249 255.92C377.672 256.086 378.031 256.322 378.328 256.627C378.624 256.933 378.853 257.306 379.015 257.746C379.177 258.186 379.258 258.678 379.258 259.222C379.258 259.77 379.177 260.264 379.015 260.705C378.853 261.145 378.624 261.52 378.328 261.83C378.031 262.14 377.672 262.378 377.249 262.545C376.832 262.711 376.364 262.794 375.848 262.794C375.331 262.794 374.861 262.711 374.439 262.545C374.017 262.378 373.655 262.14 373.354 261.83C373.057 261.52 372.826 261.145 372.66 260.705C372.498 260.264 372.417 259.77 372.417 259.222C372.417 258.678 372.498 258.186 372.66 257.746C372.826 257.306 373.057 256.933 373.354 256.627C373.655 256.322 374.017 256.086 374.439 255.92C374.861 255.753 375.331 255.67 375.848 255.67ZM375.848 261.513C376.423 261.513 376.847 261.32 377.121 260.934C377.4 260.547 377.539 259.981 377.539 259.235C377.539 258.49 377.4 257.921 377.121 257.53C376.847 257.139 376.423 256.944 375.848 256.944C375.264 256.944 374.832 257.142 374.554 257.537C374.275 257.928 374.136 258.494 374.136 259.235C374.136 259.977 374.275 260.543 374.554 260.934C374.832 261.32 375.264 261.513 375.848 261.513ZM380.59 262.693V255.778H381.608C381.824 255.778 381.965 255.879 382.033 256.081L382.147 256.627C382.286 256.484 382.432 256.353 382.585 256.236C382.742 256.12 382.906 256.018 383.077 255.933C383.252 255.848 383.439 255.783 383.637 255.738C383.834 255.693 384.05 255.67 384.284 255.67C384.661 255.67 384.996 255.735 385.288 255.866C385.58 255.992 385.822 256.171 386.016 256.405C386.213 256.634 386.362 256.91 386.46 257.234C386.564 257.553 386.615 257.906 386.615 258.292V262.693H384.951V258.292C384.951 257.87 384.852 257.544 384.654 257.315C384.461 257.081 384.169 256.964 383.778 256.964C383.491 256.964 383.221 257.029 382.969 257.16C382.718 257.29 382.48 257.467 382.255 257.692V262.693H380.59ZM393.704 262.693H392.956C392.798 262.693 392.675 262.67 392.585 262.625C392.495 262.576 392.428 262.479 392.383 262.336L392.234 261.844C392.059 262.001 391.886 262.14 391.715 262.262C391.549 262.378 391.376 262.477 391.196 262.558C391.017 262.639 390.826 262.7 390.624 262.74C390.421 262.78 390.197 262.801 389.95 262.801C389.658 262.801 389.388 262.763 389.141 262.686C388.894 262.605 388.68 262.486 388.501 262.329C388.325 262.172 388.188 261.976 388.09 261.743C387.991 261.509 387.941 261.237 387.941 260.927C387.941 260.667 388.009 260.41 388.143 260.159C388.283 259.903 388.512 259.674 388.831 259.471C389.15 259.265 389.574 259.094 390.105 258.959C390.635 258.824 391.293 258.748 392.079 258.73V258.326C392.079 257.863 391.981 257.521 391.783 257.301C391.59 257.077 391.307 256.964 390.934 256.964C390.664 256.964 390.439 256.996 390.26 257.059C390.08 257.122 389.923 257.193 389.788 257.274C389.658 257.351 389.536 257.42 389.424 257.483C389.312 257.546 389.188 257.578 389.053 257.578C388.941 257.578 388.844 257.548 388.764 257.49C388.683 257.432 388.617 257.36 388.568 257.274L388.265 256.742C389.06 256.014 390.019 255.65 391.143 255.65C391.547 255.65 391.906 255.717 392.221 255.852C392.54 255.983 392.809 256.167 393.03 256.405C393.25 256.639 393.416 256.919 393.528 257.247C393.645 257.575 393.704 257.935 393.704 258.326V262.693ZM390.469 261.655C390.639 261.655 390.797 261.639 390.94 261.608C391.084 261.576 391.219 261.529 391.345 261.466C391.475 261.403 391.599 261.327 391.715 261.237C391.837 261.143 391.958 261.033 392.079 260.907V259.741C391.594 259.763 391.187 259.806 390.86 259.869C390.536 259.927 390.275 260.004 390.078 260.098C389.88 260.193 389.738 260.303 389.653 260.428C389.572 260.554 389.532 260.691 389.532 260.839C389.532 261.132 389.617 261.34 389.788 261.466C389.963 261.592 390.19 261.655 390.469 261.655ZM397.147 252.678V262.693H395.482V252.678H397.147Z" fill="white"/>
<path d="M201.513 301.928C193.523 297.58 186.046 293.217 179.938 286.324C176.253 282.165 175.301 278.787 173.429 273.868" stroke="white" stroke-width="0.893839" stroke-linecap="round"/>
<path d="M184.883 275.913C180.239 275.004 174.128 273.754 170.907 269.971C169.947 268.843 168.871 276.231 168.602 277.734" stroke="white" stroke-width="0.893839" stroke-linecap="round"/>
<path d="M9.23053 185.015C9.15972 185.157 9.07604 185.257 8.97948 185.315C8.88936 185.373 8.77993 185.402 8.65118 185.402C8.52244 185.402 8.3776 185.353 8.21667 185.257C8.05575 185.154 7.86585 185.041 7.64699 184.919C7.42812 184.797 7.17064 184.687 6.87453 184.591C6.58485 184.488 6.24047 184.436 5.84136 184.436C5.48088 184.436 5.16546 184.481 4.8951 184.571C4.63117 184.655 4.40587 184.774 4.2192 184.929C4.03896 185.083 3.90377 185.27 3.81365 185.489C3.72353 185.701 3.67847 185.936 3.67847 186.193C3.67847 186.522 3.76859 186.795 3.94883 187.014C4.13551 187.233 4.38012 187.42 4.68267 187.574C4.98522 187.729 5.32961 187.867 5.71584 187.989C6.10207 188.112 6.49473 188.244 6.89384 188.385C7.29938 188.521 7.69526 188.681 8.08149 188.868C8.46772 189.048 8.81211 189.28 9.11466 189.563C9.41721 189.84 9.6586 190.181 9.83884 190.587C10.0255 190.992 10.1189 191.485 10.1189 192.064C10.1189 192.695 10.0094 193.287 9.79056 193.841C9.57814 194.388 9.26271 194.868 8.8443 195.28C8.43232 195.685 7.927 196.007 7.32835 196.245C6.72969 196.477 6.04413 196.593 5.27167 196.593C4.82751 196.593 4.38978 196.548 3.95849 196.458C3.5272 196.374 3.112 196.252 2.7129 196.091C2.32023 195.93 1.9501 195.737 1.60249 195.511C1.26132 195.286 0.955553 195.035 0.685192 194.758L1.43834 193.513C1.50915 193.422 1.59283 193.348 1.68939 193.29C1.79238 193.226 1.90504 193.194 2.02734 193.194C2.18827 193.194 2.36207 193.261 2.54875 193.397C2.73543 193.525 2.95429 193.67 3.20534 193.831C3.46283 193.992 3.76216 194.14 4.10333 194.275C4.45093 194.404 4.86613 194.468 5.34892 194.468C6.08919 194.468 6.6621 194.295 7.06764 193.947C7.47318 193.593 7.67595 193.088 7.67595 192.431C7.67595 192.064 7.58261 191.765 7.39594 191.533C7.2157 191.301 6.9743 191.108 6.67176 190.954C6.36921 190.793 6.02482 190.658 5.63859 190.548C5.25236 190.439 4.85969 190.32 4.46059 190.191C4.06149 190.062 3.66882 189.908 3.28259 189.727C2.89636 189.547 2.55197 189.312 2.24942 189.023C1.94688 188.733 1.70226 188.372 1.51559 187.941C1.33535 187.503 1.24523 186.966 1.24523 186.329C1.24523 185.82 1.345 185.324 1.54455 184.842C1.75054 184.359 2.04665 183.931 2.43288 183.557C2.82555 183.184 3.30512 182.885 3.87159 182.659C4.43806 182.434 5.08499 182.322 5.81239 182.322C6.63635 182.322 7.39594 182.45 8.09115 182.708C8.78636 182.965 9.37858 183.326 9.86781 183.789L9.23053 185.015ZM14.4279 182.09V190.307H14.872C15.033 190.307 15.1585 190.284 15.2486 190.239C15.3387 190.194 15.4353 190.11 15.5383 189.988L18.0005 186.947C18.1099 186.818 18.2258 186.718 18.3481 186.647C18.4704 186.57 18.6314 186.531 18.8309 186.531H21.0131L17.9329 190.21C17.8235 190.345 17.7108 190.471 17.595 190.587C17.4791 190.696 17.3536 190.793 17.2184 190.877C17.3536 190.973 17.4727 191.086 17.5757 191.214C17.6787 191.343 17.7816 191.482 17.8846 191.63L21.1869 196.438H19.0337C18.847 196.438 18.6893 196.406 18.5605 196.342C18.4318 196.277 18.3159 196.168 18.2129 196.013L15.6928 192.257C15.5962 192.109 15.4997 192.013 15.4031 191.968C15.3066 191.923 15.1617 191.9 14.9686 191.9H14.4279V196.438H12.0429V182.09H14.4279ZM25.257 186.531V196.438H22.872V186.531H25.257ZM25.6142 183.644C25.6142 183.85 25.5724 184.043 25.4887 184.224C25.405 184.404 25.2924 184.562 25.1507 184.697C25.0156 184.832 24.8546 184.941 24.668 185.025C24.4813 185.102 24.2817 185.141 24.0693 185.141C23.8633 185.141 23.667 185.102 23.4803 185.025C23.3001 184.941 23.1423 184.832 23.0072 184.697C22.872 184.562 22.7626 184.404 22.6789 184.224C22.6016 184.043 22.563 183.85 22.563 183.644C22.563 183.432 22.6016 183.232 22.6789 183.046C22.7626 182.859 22.872 182.698 23.0072 182.563C23.1423 182.428 23.3001 182.322 23.4803 182.244C23.667 182.161 23.8633 182.119 24.0693 182.119C24.2817 182.119 24.4813 182.161 24.668 182.244C24.8546 182.322 25.0156 182.428 25.1507 182.563C25.2924 182.698 25.405 182.859 25.4887 183.046C25.5724 183.232 25.6142 183.432 25.6142 183.644ZM30.548 182.09V196.438H28.163V182.09H30.548ZM35.8391 182.09V196.438H33.4541V182.09H35.8391Z" fill="white"/>
<path d="M183.152 12.0866V14.1529H176.963V18.0249H181.839V20.0236H176.963V23.9728H183.152V26.0488H174.346V12.0866H183.152ZM187.657 20.9409L184.403 16.142H186.701C186.875 16.142 187.003 16.1678 187.087 16.2193C187.171 16.2643 187.245 16.3416 187.309 16.451L189.385 19.7629C189.417 19.6535 189.456 19.5441 189.501 19.4346C189.552 19.3252 189.614 19.2158 189.684 19.1063L191.355 16.4993C191.432 16.377 191.513 16.2869 191.596 16.2289C191.68 16.171 191.783 16.142 191.905 16.142H194.097L190.833 20.8347L194.232 26.0488H191.934C191.76 26.0488 191.619 26.0038 191.509 25.9136C191.406 25.8235 191.319 25.7205 191.249 25.6047L189.144 22.1576C189.086 22.3893 189.005 22.5824 188.902 22.7369L187.048 25.6047C186.978 25.7141 186.891 25.8171 186.788 25.9136C186.685 26.0038 186.556 26.0488 186.401 26.0488H184.267L187.657 20.9409ZM195.788 29.2835V16.142H197.246C197.4 16.142 197.532 16.1774 197.641 16.2482C197.751 16.3191 197.822 16.4285 197.854 16.5765L198.047 17.4938C198.446 17.0368 198.903 16.6667 199.418 16.3834C199.94 16.1002 200.548 15.9586 201.243 15.9586C201.784 15.9586 202.276 16.0712 202.72 16.2965C203.171 16.5218 203.557 16.8501 203.879 17.2814C204.207 17.7063 204.458 18.2341 204.632 18.865C204.812 19.4894 204.903 20.2071 204.903 21.0182C204.903 21.7585 204.803 22.444 204.603 23.0749C204.404 23.7057 204.117 24.2529 203.744 24.7163C203.377 25.1798 202.93 25.5435 202.402 25.8074C201.88 26.0649 201.295 26.1937 200.644 26.1937C200.084 26.1937 199.608 26.11 199.215 25.9426C198.829 25.7688 198.481 25.5306 198.173 25.2281V29.2835H195.788ZM200.422 17.8414C199.927 17.8414 199.502 17.9477 199.148 18.1601C198.8 18.3661 198.475 18.659 198.173 19.0388V23.4804C198.443 23.8151 198.736 24.0501 199.051 24.1853C199.373 24.314 199.717 24.3784 200.084 24.3784C200.445 24.3784 200.77 24.3108 201.06 24.1756C201.356 24.0404 201.604 23.8344 201.803 23.5576C202.009 23.2808 202.167 22.9332 202.276 22.5148C202.386 22.09 202.44 21.5911 202.44 21.0182C202.44 20.4388 202.392 19.9496 202.296 19.5505C202.205 19.145 202.073 18.8167 201.9 18.5656C201.726 18.3146 201.513 18.1311 201.262 18.0152C201.018 17.8994 200.738 17.8414 200.422 17.8414ZM210.849 15.9875C211.474 15.9875 212.046 16.0873 212.568 16.2869C213.096 16.4864 213.55 16.7793 213.929 17.1655C214.309 17.5453 214.605 18.0152 214.818 18.5753C215.03 19.1289 215.136 19.7629 215.136 20.4775C215.136 20.6577 215.127 20.809 215.107 20.9313C215.094 21.0472 215.065 21.1405 215.02 21.2113C214.982 21.2757 214.927 21.3239 214.856 21.3561C214.785 21.3819 214.695 21.3948 214.586 21.3948H208.464C208.535 22.4118 208.809 23.1585 209.285 23.6349C209.761 24.1112 210.392 24.3494 211.177 24.3494C211.564 24.3494 211.895 24.3044 212.172 24.2142C212.455 24.1241 212.7 24.0243 212.906 23.9149C213.118 23.8055 213.302 23.7057 213.456 23.6156C213.617 23.5255 213.772 23.4804 213.92 23.4804C214.016 23.4804 214.1 23.4997 214.171 23.5383C214.242 23.577 214.303 23.6317 214.354 23.7025L215.049 24.5715C214.785 24.8805 214.489 25.1412 214.161 25.3536C213.833 25.5596 213.488 25.727 213.128 25.8557C212.774 25.978 212.41 26.0649 212.037 26.1164C211.67 26.1679 211.313 26.1937 210.965 26.1937C210.276 26.1937 209.636 26.081 209.044 25.8557C208.451 25.624 207.936 25.286 207.499 24.8419C207.061 24.3913 206.716 23.8377 206.465 23.1811C206.214 22.518 206.089 21.752 206.089 20.883C206.089 20.2071 206.198 19.573 206.417 18.9808C206.636 18.3822 206.948 17.864 207.354 17.4262C207.766 16.9821 208.265 16.6313 208.85 16.3738C209.443 16.1163 210.109 15.9875 210.849 15.9875ZM210.897 17.6966C210.202 17.6966 209.658 17.8929 209.266 18.2856C208.873 18.6783 208.622 19.2351 208.512 19.9561H212.993C212.993 19.6471 212.951 19.3574 212.867 19.087C212.784 18.8102 212.655 18.5688 212.481 18.3629C212.307 18.1569 212.088 17.9959 211.824 17.8801C211.56 17.7578 211.251 17.6966 210.897 17.6966ZM217.119 26.0488V16.142H218.519C218.764 16.142 218.934 16.1871 219.031 16.2772C219.128 16.3673 219.192 16.5218 219.224 16.7407L219.369 17.938C219.723 17.3265 220.138 16.8437 220.615 16.4896C221.091 16.1356 221.625 15.9586 222.217 15.9586C222.707 15.9586 223.112 16.0712 223.434 16.2965L223.125 18.0828C223.106 18.1987 223.064 18.2824 223 18.3339C222.935 18.3789 222.848 18.4015 222.739 18.4015C222.642 18.4015 222.51 18.3789 222.343 18.3339C222.176 18.2888 221.954 18.2663 221.677 18.2663C221.181 18.2663 220.756 18.4047 220.402 18.6815C220.048 18.9519 219.749 19.351 219.504 19.8788V26.0488H217.119ZM227.59 16.142V26.0488H225.205V16.142H227.59ZM227.947 13.255C227.947 13.461 227.905 13.6541 227.822 13.8343C227.738 14.0145 227.625 14.1723 227.484 14.3074C227.349 14.4426 227.188 14.5521 227.001 14.6357C226.814 14.713 226.615 14.7516 226.402 14.7516C226.196 14.7516 226 14.713 225.813 14.6357C225.633 14.5521 225.475 14.4426 225.34 14.3074C225.205 14.1723 225.096 14.0145 225.012 13.8343C224.935 13.6541 224.896 13.461 224.896 13.255C224.896 13.0425 224.935 12.843 225.012 12.6563C225.096 12.4696 225.205 12.3087 225.34 12.1735C225.475 12.0383 225.633 11.9321 225.813 11.8549C226 11.7712 226.196 11.7294 226.402 11.7294C226.615 11.7294 226.814 11.7712 227.001 11.8549C227.188 11.9321 227.349 12.0383 227.484 12.1735C227.625 12.3087 227.738 12.4696 227.822 12.6563C227.905 12.843 227.947 13.0425 227.947 13.255ZM234.436 15.9875C235.06 15.9875 235.633 16.0873 236.154 16.2869C236.682 16.4864 237.136 16.7793 237.516 17.1655C237.896 17.5453 238.192 18.0152 238.404 18.5753C238.617 19.1289 238.723 19.7629 238.723 20.4775C238.723 20.6577 238.713 20.809 238.694 20.9313C238.681 21.0472 238.652 21.1405 238.607 21.2113C238.568 21.2757 238.514 21.3239 238.443 21.3561C238.372 21.3819 238.282 21.3948 238.172 21.3948H232.051C232.121 22.4118 232.395 23.1585 232.871 23.6349C233.348 24.1112 233.979 24.3494 234.764 24.3494C235.15 24.3494 235.482 24.3044 235.758 24.2142C236.042 24.1241 236.286 24.0243 236.492 23.9149C236.705 23.8055 236.888 23.7057 237.043 23.6156C237.204 23.5255 237.358 23.4804 237.506 23.4804C237.603 23.4804 237.686 23.4997 237.757 23.5383C237.828 23.577 237.889 23.6317 237.941 23.7025L238.636 24.5715C238.372 24.8805 238.076 25.1412 237.747 25.3536C237.419 25.5596 237.075 25.727 236.714 25.8557C236.36 25.978 235.997 26.0649 235.623 26.1164C235.256 26.1679 234.899 26.1937 234.551 26.1937C233.863 26.1937 233.222 26.081 232.63 25.8557C232.038 25.624 231.523 25.286 231.085 24.8419C230.647 24.3913 230.303 23.8377 230.052 23.1811C229.801 22.518 229.675 21.752 229.675 20.883C229.675 20.2071 229.785 19.573 230.004 18.9808C230.222 18.3822 230.535 17.864 230.94 17.4262C231.352 16.9821 231.851 16.6313 232.437 16.3738C233.029 16.1163 233.695 15.9875 234.436 15.9875ZM234.484 17.6966C233.789 17.6966 233.245 17.8929 232.852 18.2856C232.459 18.6783 232.208 19.2351 232.099 19.9561H236.579C236.579 19.6471 236.537 19.3574 236.454 19.087C236.37 18.8102 236.241 18.5688 236.067 18.3629C235.894 18.1569 235.675 17.9959 235.411 17.8801C235.147 17.7578 234.838 17.6966 234.484 17.6966ZM240.706 26.0488V16.142H242.164C242.473 16.142 242.675 16.2869 242.772 16.5765L242.936 17.3587C243.136 17.1527 243.345 16.966 243.564 16.7986C243.789 16.6313 244.024 16.4864 244.269 16.3641C244.52 16.2418 244.787 16.1485 245.07 16.0841C245.353 16.0197 245.662 15.9875 245.997 15.9875C246.538 15.9875 247.017 16.0809 247.436 16.2676C247.854 16.4478 248.202 16.7053 248.478 17.04C248.762 17.3683 248.974 17.7642 249.116 18.2277C249.264 18.6847 249.338 19.19 249.338 19.7436V26.0488H246.953V19.7436C246.953 19.1385 246.811 18.6718 246.528 18.3435C246.251 18.0088 245.833 17.8414 245.273 17.8414C244.861 17.8414 244.475 17.9348 244.114 18.1215C243.754 18.3081 243.412 18.5624 243.091 18.8843V26.0488H240.706ZM258.692 18.2373C258.621 18.3274 258.55 18.3983 258.479 18.4498C258.415 18.5013 258.318 18.527 258.189 18.527C258.067 18.527 257.948 18.4916 257.832 18.4208C257.716 18.3435 257.578 18.2599 257.417 18.1697C257.256 18.0732 257.063 17.9895 256.838 17.9187C256.619 17.8414 256.345 17.8028 256.017 17.8028C255.599 17.8028 255.232 17.8801 254.916 18.0346C254.601 18.1826 254.337 18.3983 254.124 18.6815C253.918 18.9647 253.764 19.3091 253.661 19.7147C253.558 20.1138 253.506 20.5676 253.506 21.0761C253.506 21.604 253.561 22.0739 253.671 22.4859C253.786 22.8978 253.951 23.2454 254.163 23.5287C254.375 23.8055 254.633 24.0179 254.935 24.166C255.238 24.3076 255.579 24.3784 255.959 24.3784C256.339 24.3784 256.645 24.3333 256.876 24.2432C257.114 24.1466 257.314 24.0437 257.475 23.9342C257.636 23.8184 257.774 23.7154 257.89 23.6252C258.012 23.5287 258.148 23.4804 258.296 23.4804C258.489 23.4804 258.634 23.5544 258.73 23.7025L259.416 24.5715C259.152 24.8805 258.865 25.1412 258.556 25.3536C258.247 25.5596 257.926 25.727 257.591 25.8557C257.263 25.978 256.921 26.0649 256.567 26.1164C256.213 26.1679 255.862 26.1937 255.515 26.1937C254.903 26.1937 254.327 26.081 253.786 25.8557C253.246 25.624 252.773 25.2892 252.367 24.8515C251.968 24.4138 251.649 23.8795 251.411 23.2487C251.179 22.6114 251.064 21.8872 251.064 21.0761C251.064 20.3487 251.167 19.676 251.373 19.0581C251.585 18.4337 251.894 17.8962 252.299 17.4456C252.705 16.9885 253.207 16.6313 253.806 16.3738C254.404 16.1163 255.093 15.9875 255.872 15.9875C256.612 15.9875 257.259 16.1066 257.813 16.3448C258.373 16.583 258.875 16.9241 259.319 17.3683L258.692 18.2373ZM265.075 15.9875C265.7 15.9875 266.273 16.0873 266.794 16.2869C267.322 16.4864 267.776 16.7793 268.155 17.1655C268.535 17.5453 268.831 18.0152 269.044 18.5753C269.256 19.1289 269.362 19.7629 269.362 20.4775C269.362 20.6577 269.353 20.809 269.333 20.9313C269.321 21.0472 269.292 21.1405 269.246 21.2113C269.208 21.2757 269.153 21.3239 269.082 21.3561C269.012 21.3819 268.921 21.3948 268.812 21.3948H262.69C262.761 22.4118 263.035 23.1585 263.511 23.6349C263.987 24.1112 264.618 24.3494 265.404 24.3494C265.79 24.3494 266.121 24.3044 266.398 24.2142C266.681 24.1241 266.926 24.0243 267.132 23.9149C267.344 23.8055 267.528 23.7057 267.682 23.6156C267.843 23.5255 267.998 23.4804 268.146 23.4804C268.242 23.4804 268.326 23.4997 268.397 23.5383C268.468 23.577 268.529 23.6317 268.58 23.7025L269.275 24.5715C269.012 24.8805 268.715 25.1412 268.387 25.3536C268.059 25.5596 267.714 25.727 267.354 25.8557C267 25.978 266.636 26.0649 266.263 26.1164C265.896 26.1679 265.539 26.1937 265.191 26.1937C264.502 26.1937 263.862 26.081 263.27 25.8557C262.677 25.624 262.162 25.286 261.725 24.8419C261.287 24.3913 260.943 23.8377 260.692 23.1811C260.44 22.518 260.315 21.752 260.315 20.883C260.315 20.2071 260.424 19.573 260.643 18.9808C260.862 18.3822 261.174 17.864 261.58 17.4262C261.992 16.9821 262.491 16.6313 263.076 16.3738C263.669 16.1163 264.335 15.9875 265.075 15.9875ZM265.123 17.6966C264.428 17.6966 263.884 17.8929 263.492 18.2856C263.099 18.6783 262.848 19.2351 262.739 19.9561H267.219C267.219 19.6471 267.177 19.3574 267.093 19.087C267.01 18.8102 266.881 18.5688 266.707 18.3629C266.533 18.1569 266.314 17.9959 266.05 17.8801C265.787 17.7578 265.478 17.6966 265.123 17.6966Z" fill="white"/>
<path d="M168.115 441.913V443.979H161.925V447.851H166.801V449.85H161.925V453.799H168.115V455.875H159.309V441.913H168.115ZM173.527 456.03C172.671 456.03 172.011 455.788 171.548 455.306C171.084 454.816 170.852 454.144 170.852 453.288V447.755H169.848C169.719 447.755 169.607 447.713 169.51 447.629C169.42 447.546 169.375 447.42 169.375 447.253V446.306L170.968 446.046L171.47 443.342C171.496 443.213 171.554 443.114 171.644 443.043C171.741 442.972 171.86 442.937 172.001 442.937H173.237V446.055H175.844V447.755H173.237V453.123C173.237 453.432 173.315 453.674 173.469 453.848C173.623 454.021 173.829 454.108 174.087 454.108C174.235 454.108 174.357 454.092 174.454 454.06C174.557 454.021 174.644 453.983 174.715 453.944C174.792 453.905 174.859 453.87 174.917 453.838C174.975 453.799 175.033 453.78 175.091 453.78C175.162 453.78 175.22 453.799 175.265 453.838C175.31 453.87 175.358 453.922 175.41 453.992L176.124 455.151C175.777 455.441 175.378 455.66 174.927 455.808C174.476 455.956 174.01 456.03 173.527 456.03ZM177.789 455.875V441.527H180.174V447.04C180.561 446.673 180.985 446.377 181.449 446.152C181.912 445.927 182.456 445.814 183.081 445.814C183.621 445.814 184.101 445.907 184.519 446.094C184.938 446.274 185.285 446.532 185.562 446.866C185.845 447.195 186.058 447.591 186.199 448.054C186.348 448.511 186.422 449.016 186.422 449.57V455.875H184.037V449.57C184.037 448.965 183.895 448.498 183.612 448.17C183.335 447.835 182.917 447.668 182.357 447.668C181.945 447.668 181.558 447.761 181.198 447.948C180.837 448.135 180.496 448.389 180.174 448.711V455.875H177.789ZM191.353 445.968V455.875H188.968V445.968H191.353ZM191.71 443.081C191.71 443.287 191.668 443.48 191.585 443.661C191.501 443.841 191.388 443.999 191.247 444.134C191.112 444.269 190.951 444.378 190.764 444.462C190.577 444.539 190.378 444.578 190.165 444.578C189.959 444.578 189.763 444.539 189.576 444.462C189.396 444.378 189.238 444.269 189.103 444.134C188.968 443.999 188.859 443.841 188.775 443.661C188.698 443.48 188.659 443.287 188.659 443.081C188.659 442.869 188.698 442.669 188.775 442.483C188.859 442.296 188.968 442.135 189.103 442C189.238 441.865 189.396 441.759 189.576 441.681C189.763 441.598 189.959 441.556 190.165 441.556C190.378 441.556 190.577 441.598 190.764 441.681C190.951 441.759 191.112 441.865 191.247 442C191.388 442.135 191.501 442.296 191.585 442.483C191.668 442.669 191.71 442.869 191.71 443.081ZM201.066 448.064C200.996 448.154 200.925 448.225 200.854 448.276C200.79 448.328 200.693 448.353 200.564 448.353C200.442 448.353 200.323 448.318 200.207 448.247C200.091 448.17 199.953 448.086 199.792 447.996C199.631 447.9 199.438 447.816 199.212 447.745C198.994 447.668 198.72 447.629 198.392 447.629C197.973 447.629 197.606 447.706 197.291 447.861C196.976 448.009 196.712 448.225 196.499 448.508C196.293 448.791 196.139 449.136 196.036 449.541C195.933 449.94 195.881 450.394 195.881 450.903C195.881 451.43 195.936 451.9 196.045 452.312C196.161 452.724 196.325 453.072 196.538 453.355C196.75 453.632 197.008 453.844 197.31 453.992C197.613 454.134 197.954 454.205 198.334 454.205C198.714 454.205 199.019 454.16 199.251 454.07C199.489 453.973 199.689 453.87 199.85 453.761C200.011 453.645 200.149 453.542 200.265 453.452C200.387 453.355 200.522 453.307 200.67 453.307C200.864 453.307 201.008 453.381 201.105 453.529L201.791 454.398C201.527 454.707 201.24 454.968 200.931 455.18C200.622 455.386 200.3 455.553 199.966 455.682C199.637 455.804 199.296 455.891 198.942 455.943C198.588 455.994 198.237 456.02 197.89 456.02C197.278 456.02 196.702 455.907 196.161 455.682C195.62 455.45 195.147 455.116 194.742 454.678C194.343 454.24 194.024 453.706 193.786 453.075C193.554 452.438 193.438 451.714 193.438 450.903C193.438 450.175 193.541 449.502 193.747 448.884C193.96 448.26 194.269 447.723 194.674 447.272C195.08 446.815 195.582 446.458 196.181 446.2C196.779 445.943 197.468 445.814 198.247 445.814C198.987 445.814 199.634 445.933 200.188 446.171C200.748 446.409 201.25 446.751 201.694 447.195L201.066 448.064ZM209.236 447.9C209.172 448.003 209.104 448.077 209.034 448.122C208.963 448.16 208.873 448.18 208.763 448.18C208.647 448.18 208.522 448.147 208.387 448.083C208.258 448.019 208.107 447.948 207.933 447.871C207.759 447.787 207.559 447.713 207.334 447.649C207.115 447.584 206.855 447.552 206.552 447.552C206.082 447.552 205.712 447.652 205.442 447.851C205.171 448.051 205.036 448.312 205.036 448.633C205.036 448.846 205.104 449.026 205.239 449.174C205.38 449.316 205.564 449.441 205.789 449.551C206.021 449.66 206.282 449.76 206.571 449.85C206.861 449.934 207.157 450.027 207.46 450.13C207.762 450.233 208.058 450.352 208.348 450.487C208.638 450.616 208.895 450.783 209.12 450.989C209.352 451.189 209.536 451.43 209.671 451.714C209.812 451.997 209.883 452.338 209.883 452.737C209.883 453.213 209.796 453.654 209.623 454.06C209.449 454.459 209.194 454.807 208.86 455.103C208.525 455.392 208.11 455.621 207.614 455.788C207.125 455.949 206.562 456.03 205.924 456.03C205.583 456.03 205.248 455.998 204.92 455.933C204.598 455.875 204.286 455.792 203.984 455.682C203.687 455.573 203.411 455.444 203.153 455.296C202.902 455.148 202.68 454.987 202.487 454.813L203.037 453.905C203.108 453.796 203.192 453.712 203.288 453.654C203.385 453.596 203.507 453.568 203.655 453.568C203.803 453.568 203.942 453.609 204.07 453.693C204.206 453.777 204.36 453.867 204.534 453.963C204.708 454.06 204.911 454.15 205.142 454.234C205.38 454.317 205.68 454.359 206.04 454.359C206.323 454.359 206.565 454.327 206.764 454.263C206.97 454.192 207.138 454.102 207.267 453.992C207.402 453.883 207.498 453.757 207.556 453.616C207.621 453.468 207.653 453.316 207.653 453.162C207.653 452.93 207.582 452.74 207.44 452.592C207.305 452.444 207.122 452.315 206.89 452.206C206.665 452.097 206.404 452 206.108 451.916C205.818 451.826 205.519 451.73 205.21 451.627C204.907 451.524 204.608 451.405 204.312 451.269C204.022 451.128 203.761 450.951 203.53 450.738C203.304 450.526 203.121 450.265 202.979 449.956C202.844 449.647 202.777 449.274 202.777 448.836C202.777 448.431 202.857 448.044 203.018 447.678C203.179 447.311 203.414 446.992 203.723 446.722C204.038 446.445 204.428 446.226 204.891 446.065C205.361 445.898 205.902 445.814 206.513 445.814C207.196 445.814 207.817 445.927 208.377 446.152C208.937 446.377 209.404 446.673 209.777 447.04L209.236 447.9Z" fill="white"/>
<path d="M462.3 302.464C462.442 302.464 462.564 302.519 462.667 302.628L463.691 303.739C463.124 304.44 462.426 304.978 461.596 305.351C460.772 305.725 459.78 305.911 458.622 305.911C457.585 305.911 456.652 305.734 455.821 305.38C454.997 305.026 454.293 304.534 453.707 303.903C453.121 303.272 452.67 302.519 452.355 301.643C452.046 300.768 451.892 299.812 451.892 298.776C451.892 297.726 452.065 296.767 452.413 295.898C452.761 295.023 453.25 294.27 453.881 293.639C454.511 293.008 455.265 292.519 456.14 292.171C457.022 291.817 457.994 291.64 459.056 291.64C460.092 291.64 460.997 291.808 461.769 292.142C462.548 292.471 463.214 292.908 463.768 293.455L462.899 294.662C462.848 294.74 462.78 294.807 462.696 294.865C462.619 294.923 462.51 294.952 462.368 294.952C462.22 294.952 462.069 294.894 461.914 294.778C461.76 294.662 461.563 294.537 461.325 294.402C461.087 294.266 460.784 294.141 460.418 294.025C460.057 293.909 459.597 293.851 459.037 293.851C458.38 293.851 457.775 293.967 457.221 294.199C456.674 294.424 456.201 294.749 455.802 295.174C455.409 295.599 455.1 296.117 454.875 296.729C454.656 297.334 454.547 298.016 454.547 298.776C454.547 299.561 454.656 300.259 454.875 300.871C455.1 301.483 455.403 301.998 455.783 302.416C456.163 302.834 456.61 303.156 457.125 303.382C457.64 303.6 458.193 303.71 458.786 303.71C459.14 303.71 459.458 303.691 459.742 303.652C460.031 303.613 460.295 303.552 460.533 303.468C460.778 303.385 461.007 303.279 461.219 303.15C461.438 303.015 461.653 302.85 461.866 302.657C461.93 302.599 461.998 302.554 462.069 302.522C462.139 302.484 462.217 302.464 462.3 302.464ZM467.754 295.85V302.146C467.754 302.751 467.892 303.221 468.169 303.555C468.452 303.884 468.874 304.048 469.434 304.048C469.846 304.048 470.232 303.958 470.593 303.777C470.953 303.591 471.294 303.336 471.616 303.015V295.85H474.001V305.757H472.543C472.234 305.757 472.031 305.612 471.935 305.322L471.771 304.531C471.565 304.737 471.352 304.926 471.133 305.1C470.915 305.268 470.68 305.412 470.429 305.535C470.184 305.651 469.917 305.741 469.627 305.805C469.344 305.876 469.038 305.911 468.71 305.911C468.169 305.911 467.69 305.821 467.271 305.641C466.859 305.454 466.512 305.194 466.228 304.859C465.945 304.524 465.729 304.128 465.581 303.671C465.44 303.208 465.369 302.699 465.369 302.146V295.85H467.754ZM479.135 291.408V305.757H476.75V291.408H479.135ZM485.141 305.911C484.285 305.911 483.625 305.67 483.161 305.187C482.698 304.698 482.466 304.025 482.466 303.169V297.636H481.462C481.333 297.636 481.221 297.595 481.124 297.511C481.034 297.427 480.989 297.302 480.989 297.134V296.188L482.582 295.927L483.084 293.224C483.11 293.095 483.168 292.995 483.258 292.924C483.355 292.854 483.474 292.818 483.615 292.818H484.851V295.937H487.458V297.636H484.851V303.005C484.851 303.314 484.928 303.555 485.083 303.729C485.237 303.903 485.443 303.99 485.701 303.99C485.849 303.99 485.971 303.974 486.068 303.942C486.171 303.903 486.258 303.864 486.329 303.826C486.406 303.787 486.473 303.752 486.531 303.719C486.589 303.681 486.647 303.662 486.705 303.662C486.776 303.662 486.834 303.681 486.879 303.719C486.924 303.752 486.972 303.803 487.024 303.874L487.738 305.033C487.391 305.322 486.992 305.541 486.541 305.689C486.09 305.837 485.624 305.911 485.141 305.911ZM491.586 295.85V302.146C491.586 302.751 491.724 303.221 492.001 303.555C492.284 303.884 492.706 304.048 493.266 304.048C493.678 304.048 494.064 303.958 494.424 303.777C494.785 303.591 495.126 303.336 495.448 303.015V295.85H497.833V305.757H496.375C496.066 305.757 495.863 305.612 495.766 305.322L495.602 304.531C495.396 304.737 495.184 304.926 494.965 305.1C494.746 305.268 494.511 305.412 494.26 305.535C494.016 305.651 493.748 305.741 493.459 305.805C493.176 305.876 492.87 305.911 492.541 305.911C492.001 305.911 491.521 305.821 491.103 305.641C490.691 305.454 490.343 305.194 490.06 304.859C489.777 304.524 489.561 304.128 489.413 303.671C489.271 303.208 489.201 302.699 489.201 302.146V295.85H491.586ZM500.427 305.757V295.85H501.828C502.072 295.85 502.243 295.895 502.339 295.985C502.436 296.075 502.5 296.23 502.532 296.449L502.677 297.646C503.031 297.034 503.447 296.552 503.923 296.198C504.399 295.844 504.933 295.667 505.526 295.667C506.015 295.667 506.42 295.779 506.742 296.005L506.433 297.791C506.414 297.907 506.372 297.99 506.308 298.042C506.243 298.087 506.157 298.109 506.047 298.109C505.951 298.109 505.819 298.087 505.651 298.042C505.484 297.997 505.262 297.974 504.985 297.974C504.489 297.974 504.064 298.113 503.71 298.39C503.356 298.66 503.057 299.059 502.812 299.587V305.757H500.427ZM512.453 295.696C513.077 295.696 513.65 295.795 514.172 295.995C514.699 296.194 515.153 296.487 515.533 296.874C515.913 297.253 516.209 297.723 516.421 298.283C516.634 298.837 516.74 299.471 516.74 300.185C516.74 300.366 516.73 300.517 516.711 300.639C516.698 300.755 516.669 300.848 516.624 300.919C516.585 300.984 516.531 301.032 516.46 301.064C516.389 301.09 516.299 301.103 516.19 301.103H510.068C510.139 302.12 510.412 302.867 510.889 303.343C511.365 303.819 511.996 304.057 512.781 304.057C513.167 304.057 513.499 304.012 513.776 303.922C514.059 303.832 514.303 303.732 514.509 303.623C514.722 303.513 514.905 303.414 515.06 303.324C515.221 303.233 515.375 303.188 515.523 303.188C515.62 303.188 515.704 303.208 515.774 303.246C515.845 303.285 515.906 303.34 515.958 303.41L516.653 304.28C516.389 304.588 516.093 304.849 515.765 305.062C515.436 305.268 515.092 305.435 514.732 305.564C514.378 305.686 514.014 305.773 513.64 305.824C513.274 305.876 512.916 305.902 512.569 305.902C511.88 305.902 511.239 305.789 510.647 305.564C510.055 305.332 509.54 304.994 509.102 304.55C508.665 304.099 508.32 303.546 508.069 302.889C507.818 302.226 507.693 301.46 507.693 300.591C507.693 299.915 507.802 299.281 508.021 298.689C508.24 298.09 508.552 297.572 508.957 297.134C509.369 296.69 509.868 296.339 510.454 296.082C511.046 295.824 511.713 295.696 512.453 295.696ZM512.501 297.405C511.806 297.405 511.262 297.601 510.869 297.994C510.477 298.386 510.226 298.943 510.116 299.664H514.596C514.596 299.355 514.555 299.065 514.471 298.795C514.387 298.518 514.258 298.277 514.085 298.071C513.911 297.865 513.692 297.704 513.428 297.588C513.164 297.466 512.855 297.405 512.501 297.405Z" fill="white"/>
<path d="M205.957 98.6513C192.301 98.1369 181.921 110.525 171.761 118.405C159.64 127.805 145.091 134.52 133.83 144.848C129.079 149.205 125.656 154.783 121.147 159.288C116.61 163.822 110.273 167.3 106.924 173.041C104.914 176.485 104.881 181.481 103.545 185.293C101.488 191.165 99.6013 197.041 98.33 203.172C95.8801 214.984 93.6456 226.811 90.8032 238.553C86.9052 254.657 90.9545 269.594 95.8408 284.687C100.209 298.181 106.267 310.796 114.569 322.07C127.441 339.548 141.114 355.102 161.152 363.077C166.55 365.226 170.739 369.667 176.324 371.204C181.863 372.728 187.402 375.193 192.563 377.705C197.931 380.318 204.973 379.742 210.698 381.206C214.387 382.149 217.198 384.303 221.129 384.457C225.547 384.629 229.876 384.524 234.286 385.019C259.076 387.801 286.082 386.244 309.791 378.33C335.951 369.599 360.107 346.865 377.414 325.133C398.852 298.214 403.614 260.402 398.809 226.614C394.734 197.962 383.373 168.137 363.605 147.286C349.973 132.908 328.241 125.102 310.384 119.655C286.932 112.503 264.09 105.716 239.976 102.027C226.451 99.9579 221.038 98.6513 207.336 98.6513" stroke="#B6B5B5" stroke-width="3.8" stroke-linecap="round"/>
<path d="M195.613 55.8788C173.457 64.8946 167.228 66.9267 154.715 77.1704C139.788 89.3908 121.87 98.1194 108.002 111.546C102.151 117.211 97.9355 124.461 92.3828 130.318C75.528 152.002 70.5808 170.602 66.4563 178.065C63.9814 182.543 69.059 171.196 67.4141 176.152C64.8803 183.786 65.8477 179.397 64.282 187.366C61.2649 202.723 58.5131 218.097 55.0125 233.362C50.2119 254.296 55.1989 273.715 61.2165 293.336C66.5965 310.878 74.0565 327.278 84.281 341.933C100.133 364.654 116.972 384.874 141.65 395.243C148.298 398.036 153.458 403.81 160.335 405.807C167.156 407.788 173.979 410.993 180.334 414.259C186.945 417.656 195.618 416.907 202.669 418.81C207.212 420.036 210.674 422.836 215.515 423.035C220.956 423.26 226.287 423.123 231.719 423.767C262.248 427.383 295.507 425.36 324.706 415.071C356.924 403.72 386.672 374.166 407.987 345.915C434.388 310.92 440.254 261.766 434.336 217.841C429.318 180.594 415.326 141.821 390.98 114.715C374.193 96.0235 347.428 85.8759 325.436 78.7957C296.554 69.4972 268.423 60.6746 238.726 55.8788C222.069 53.1891 214.18 50.7586 195.613 55.8788Z" stroke="#B6B5B5" stroke-width="3.8" stroke-linecap="round"/>
<circle cx="63.6805" cy="189.028" r="11.4173" fill="#FB7C51"/>
<path d="M226.188 50.9C226.188 56.0314 222.028 60.1912 216.897 60.1912C211.766 60.1912 207.606 56.0314 207.606 50.9C207.606 45.7687 211.766 41.6089 216.897 41.6089C222.028 41.6089 226.188 45.7687 226.188 50.9Z" fill="#FB7C51"/>
<circle cx="186.701" cy="416.489" r="9.29114" fill="#FB7C51"/>
<circle cx="431.336" cy="296.353" r="9.29114" fill="#FB7C51"/>
<path d="M144.625 263.14C145.323 266.062 151.078 289.897 151.795 292.814C152.404 295.296 154.953 297.686 156.139 300.029C159.56 306.784 165.257 311.072 170.105 316.593C174.273 321.34 178.84 324.12 184.341 327.184C193.984 332.553 203.397 337.57 213.979 340.877C233.803 347.072 254.244 348.529 274.921 348.287C293.754 348.066 310.093 341.267 324.382 329.162C336.834 318.612 343.957 305.27 347.463 289.4C348.996 282.461 352.351 275.764 352.351 268.685" stroke="#B6B5B5" stroke-width="3.8" stroke-linecap="round"/>
<path d="M348.859 200.255C350.289 213.005 352.351 225.003 352.351 237.806C352.351 241.227 351.781 245.265 353.049 248.435" stroke="#B6B5B5" stroke-width="3.8" stroke-linecap="round"/>
<path d="M331.403 174.419C338.128 182.314 348.859 188.655 348.859 200.255" stroke="#B6B5B5" stroke-width="3.8" stroke-linecap="round"/>
<path d="M171.317 177.884C184.423 163.24 177.448 171.241 195.074 158.586C201.182 155.796 206.836 151.197 213.085 148.895C231.811 143.921 238.551 143.921 251.594 143.921C263.502 143.921 275.915 142.864 287.529 145.85C294.258 147.581 300.466 150.423 306.998 152.669C309.903 153.667 306.998 152.669 316.432 156.271" stroke="#B6B5B5" stroke-width="3.8" stroke-linecap="round"/>
<path d="M162.905 192.378C159.724 196.54 157.302 201.067 154.584 205.515C153.116 207.917 151.909 211.458 151.39 214.229C150.377 219.631 149.892 225.011 149.277 230.478C149.05 232.493 148.828 234.59 148.752 236.604C148.68 238.535 147.868 240.458 147.868 242.354C147.868 243.337 147.504 244.36 147.295 245.302C147.066 246.331 147.278 247.649 147.278 248.693" stroke="#B6B5B5" stroke-width="3.8" stroke-linecap="round"/>
</svg>
