<svg width="21" height="20" viewBox="0 0 21 20" fill="none" xmlns="http://www.w3.org/2000/svg">
<path d="M2.36009 19.4309C0.899805 17.0472 0.169664 14.642 0.169664 12.2154C0.169664 10.0679 0.706532 8.01706 1.78027 6.06286C2.87548 4.08719 4.45387 2.28331 6.51545 0.651232L8.99578 2.1652C9.21053 2.29405 9.36085 2.45511 9.44675 2.64838C9.53265 2.82018 9.5756 2.99198 9.5756 3.16377C9.5756 3.35705 9.53265 3.53958 9.44675 3.71138C9.36085 3.88318 9.26421 4.0335 9.15684 4.16235C8.87767 4.48447 8.57702 4.86028 8.2549 5.28978C7.95425 5.71927 7.67508 6.19171 7.41739 6.7071C7.15969 7.20102 6.94494 7.74863 6.77314 8.34992C6.60135 8.95121 6.51545 9.59546 6.51545 10.2826C6.51545 11.0128 6.63356 11.7966 6.86978 12.6341C7.106 13.4502 7.50328 14.3092 8.06163 15.2111C8.2549 15.5117 8.35154 15.8124 8.35154 16.113C8.35154 16.8002 7.96499 17.2834 7.1919 17.5626L2.36009 19.4309ZM13.0545 19.4309C11.5942 17.0472 10.8641 14.642 10.8641 12.2154C10.8641 10.0679 11.4009 8.01706 12.4747 6.06286C13.5699 4.08719 15.1483 2.28331 17.2099 0.651232L19.6902 2.1652C19.9049 2.29405 20.0553 2.45511 20.1412 2.64838C20.2271 2.82018 20.27 2.99198 20.27 3.16377C20.27 3.35705 20.2271 3.53958 20.1412 3.71138C20.0553 3.88318 19.9586 4.0335 19.8513 4.16235C19.5721 4.48447 19.2714 4.86028 18.9493 5.28978C18.6487 5.71927 18.3695 6.19171 18.1118 6.7071C17.8541 7.20102 17.6394 7.74863 17.4676 8.34992C17.2958 8.95121 17.2099 9.59546 17.2099 10.2826C17.2099 11.0128 17.328 11.7966 17.5642 12.6341C17.8004 13.4502 18.1977 14.3092 18.756 15.2111C18.9493 15.5117 19.046 15.8124 19.046 16.113C19.046 16.8002 18.6594 17.2834 17.8863 17.5626L13.0545 19.4309Z" fill="#FB7C51"/>
</svg>
