<svg width="132" height="46" viewBox="0 0 132 46" fill="none" xmlns="http://www.w3.org/2000/svg">
<path d="M1.66368 28.6109C35.1138 25.5979 68.5601 22.5417 102.013 19.5581C109.362 18.9027 116.708 18.2184 124.064 17.6437C126.272 17.4711 128.665 16.4454 130.701 17.3165C132.273 17.9883 127.361 18.0458 125.677 18.3335C121.974 18.9661 118.259 19.5299 114.542 20.0767C99.0794 22.3517 83.5326 24.1496 68.1507 26.9518C65.8168 27.377 63.482 27.8236 61.1907 28.4383C60.6582 28.5811 59.5102 28.7046 59.7283 29.211C59.9856 29.8085 61.0056 29.4938 61.6557 29.518C63.5103 29.5872 65.3675 29.5116 67.2232 29.4905C79.9985 29.3451 92.7467 29.2585 105.52 29.3689" stroke="white" stroke-width="1.4235" stroke-linecap="round"/>
</svg>
